<?xml version="1.0" encoding="utf-8"?>
<!-- Generator: Adobe Illustrator 23.0.1, SVG Export Plug-In . SVG Version: 6.00 Build 0)  -->
<svg version="1.1" id="Layer_1" xmlns="http://www.w3.org/2000/svg" xmlns:xlink="http://www.w3.org/1999/xlink" x="0px" y="0px"
	 viewBox="0 0 57.3 59" style="enable-background:new 0 0 57.3 59;" xml:space="preserve">
<style type="text/css">
	.st0{fill:#26336D;}
	.st1{fill:none;}
</style>
<path class="st0" d="M47.9,15.3c-2.3-0.5-5-1.3-7.5-2.3c-6.6-2.5-12.8-5.6-12.8-5.6c-4.8,2.6-9.2,4.5-12.7,5.7
	c-4.3,1.5-7.2,2.2-7.2,2.2c-0.3,1.9-0.5,3.8-0.5,5.7c0,14.3,8.4,26.6,20.6,32.2C39.9,47.6,48.3,35.3,48.3,21
	C48.3,19.1,48.2,17.2,47.9,15.3 M28,47.9c-9-4.5-15.2-13.8-15.2-24.5c0-1.6,0-3,0.1-4.6c1.3-0.4,8.7-2.4,14.8-6.1
	c0,0,5.8,3.8,14.6,6c0.2,1.6,0.2,3.3,0.2,5C42.5,34.2,36.6,43.3,28,47.9"/>
<path class="st0" d="M36.8,24.2c-0.7,0-1.2,0.6-1.2,1.2c0,0.2,0,0.3,0.1,0.5l-2.6,3.5l-0.1-4.9c0.4-0.2,0.7-0.6,0.7-1.1
	c0-0.7-0.6-1.2-1.2-1.2c-0.7,0-1.2,0.6-1.2,1.2c0,0.3,0.1,0.6,0.3,0.8l-1.6,3.8l-1.2-5.4c0.2-0.2,0.3-0.5,0.3-0.8
	c0-0.7-0.6-1.2-1.2-1.2c-0.7,0-1.2,0.6-1.2,1.2c0,0.3,0.1,0.6,0.3,0.8L26.1,28l-1.8-3.9c0.2-0.2,0.3-0.5,0.3-0.8
	c0-0.7-0.6-1.2-1.2-1.2c-0.7,0-1.2,0.6-1.2,1.2c0,0.5,0.3,0.9,0.7,1.1l-0.1,5l-2.8-3.8l0,0c0-0.1,0-0.1,0-0.2c0-0.7-0.6-1.2-1.2-1.2
	c-0.7,0-1.2,0.6-1.2,1.2c0,0.6,0.4,1.1,1,1.2l2.9,8.5c0,0,7.4-0.5,13.4,0l2.7-8.6c0.4-0.2,0.8-0.6,0.8-1.1
	C38,24.7,37.5,24.2,36.8,24.2"/>
<rect x="-372.6" y="-245.1" class="st1" width="841.9" height="595.3"/>
</svg>
