<?xml version="1.0" encoding="utf-8"?>
<!-- Generator: Adobe Illustrator 16.0.0, SVG Export Plug-In . SVG Version: 6.00 Build 0)  -->
<!DOCTYPE svg PUBLIC "-//W3C//DTD SVG 1.1//EN" "http://www.w3.org/Graphics/SVG/1.1/DTD/svg11.dtd">
<svg version="1.1" id="Layer_1" xmlns="http://www.w3.org/2000/svg" xmlns:xlink="http://www.w3.org/1999/xlink" x="0px" y="0px"
	 width="24px" height="24px" viewBox="0 0 24 24" enable-background="new 0 0 24 24" xml:space="preserve">
<path fill="#1E306E" d="M7.1,1H4.11C3.267,1.001,2.464,1.355,1.896,1.978C1.329,2.6,1.048,3.431,1.124,4.27
	c0.346,3.263,1.451,6.383,3.227,9.124c1.609,2.532,3.763,4.687,6.303,6.3c2.72,1.765,5.826,2.869,9.058,3.221
	c0.859,0.078,1.694-0.204,2.316-0.775c0.622-0.57,0.976-1.378,0.972-2.223V16.92c0.037-1.498-1.072-2.807-2.58-3.02
	c-0.895-0.119-1.764-0.335-2.6-0.647l-0.195-0.065c-1.043-0.313-2.185-0.033-2.969,0.741l-0.721,0.72l-0.118-0.074
	c-1.754-1.143-3.25-2.638-4.391-4.392l-0.075-0.12l0.716-0.716c0.828-0.837,1.091-2.073,0.679-3.169
	c-0.312-0.834-0.528-1.704-0.645-2.589C9.89,2.089,8.606,0.985,7.1,1z M4.111,3H7.12c0.502-0.005,0.93,0.363,1,0.86
	c0.135,1.026,0.389,2.042,0.753,3.02c0.138,0.368,0.05,0.78-0.224,1.058L7.383,9.203c-0.318,0.318-0.385,0.81-0.162,1.201
	c1.513,2.66,3.715,4.862,6.375,6.375c0.391,0.223,0.883,0.156,1.201-0.162l1.27-1.27c0.274-0.271,0.687-0.359,1.052-0.222
	c0.979,0.366,1.996,0.619,3.031,0.755c0.493,0.07,0.863,0.507,0.851,1.014v3.025c0.001,0.285-0.117,0.555-0.324,0.745
	s-0.485,0.284-0.766,0.259c-2.904-0.315-5.711-1.314-8.176-2.913c-2.3-1.462-4.243-3.405-5.7-5.697
	c-1.609-2.484-2.608-5.304-2.92-8.239c-0.023-0.264,0.07-0.541,0.259-0.749C3.563,3.119,3.83,3,4.111,3z"/>
</svg>
