<?xml version="1.0" encoding="utf-8"?>
<!-- Generator: Adobe Illustrator 16.0.0, SVG Export Plug-In . SVG Version: 6.00 Build 0)  -->
<!DOCTYPE svg PUBLIC "-//W3C//DTD SVG 1.1//EN" "http://www.w3.org/Graphics/SVG/1.1/DTD/svg11.dtd">
<svg version="1.1" id="Layer_1" xmlns="http://www.w3.org/2000/svg" xmlns:xlink="http://www.w3.org/1999/xlink" x="0px" y="0px"
	 width="24px" height="24px" viewBox="0 0 24 24" enable-background="new 0 0 24 24" xml:space="preserve">
<path fill="#FFFFFF" d="M7.1,1H4.11C3.267,1,2.464,1.356,1.896,1.977C1.328,2.599,1.048,3.431,1.124,4.27
	c0.346,3.263,1.451,6.383,3.227,9.125c1.61,2.531,3.763,4.686,6.303,6.299c2.72,1.765,5.825,2.869,9.058,3.221
	c0.86,0.078,1.694-0.204,2.315-0.775c0.623-0.57,0.976-1.378,0.973-2.223V16.92c0.037-1.498-1.072-2.807-2.58-3.02
	c-0.895-0.118-1.764-0.336-2.6-0.647l-0.195-0.065c-1.043-0.313-2.184-0.033-2.968,0.74l-0.722,0.721l-0.119-0.074
	c-1.753-1.143-3.25-2.637-4.39-4.391l-0.076-0.12l0.716-0.716c0.828-0.837,1.091-2.073,0.68-3.169
	c-0.312-0.834-0.529-1.703-0.646-2.589C9.889,2.089,8.606,0.985,7.1,1L7.1,1z M4.111,3H7.12c0.502-0.005,0.93,0.363,1,0.86
	c0.135,1.026,0.388,2.042,0.753,3.02c0.138,0.367,0.05,0.78-0.224,1.057L7.383,9.203c-0.318,0.318-0.385,0.81-0.162,1.201
	c1.512,2.661,3.715,4.864,6.375,6.375c0.391,0.223,0.883,0.156,1.201-0.162l1.27-1.27c0.274-0.271,0.687-0.358,1.052-0.221
	c0.979,0.365,1.995,0.618,3.03,0.754c0.494,0.07,0.865,0.508,0.852,1.014v3.025c0.001,0.286-0.116,0.555-0.324,0.745
	c-0.207,0.19-0.486,0.284-0.766,0.26c-2.904-0.317-5.71-1.315-8.176-2.914c-2.3-1.462-4.243-3.405-5.7-5.697
	c-1.61-2.485-2.608-5.305-2.92-8.24c-0.023-0.264,0.07-0.54,0.26-0.748C3.562,3.118,3.83,3,4.111,3L4.111,3z"/>
</svg>
