<?xml version="1.0" encoding="utf-8"?>
<!-- Generator: Adobe Illustrator 16.0.0, SVG Export Plug-In . SVG Version: 6.00 Build 0)  -->
<!DOCTYPE svg PUBLIC "-//W3C//DTD SVG 1.1//EN" "http://www.w3.org/Graphics/SVG/1.1/DTD/svg11.dtd">
<svg version="1.1" id="Layer_1" xmlns="http://www.w3.org/2000/svg" xmlns:xlink="http://www.w3.org/1999/xlink" x="0px" y="0px"
	 width="24px" height="24px" viewBox="0 0 24 24" enable-background="new 0 0 24 24" xml:space="preserve">
<path fill="#1E306E" d="M17.4,3C21.045,3,24,5.955,24,9.6c0,1.815-0.732,3.46-1.92,4.653v4.106c0,1.266-0.992,2.311-2.236,2.395
	L19.68,20.76H2.4c-1.265,0-2.31-0.992-2.394-2.236L0,18.359V7.8c0-1.265,0.992-2.31,2.236-2.394L2.4,5.4h9.909
	C13.52,3.934,15.35,3,17.4,3z M10.986,11.16H0.96v7.199c0,0.755,0.566,1.365,1.3,1.434L2.4,19.8h17.28
	c0.754,0,1.364-0.565,1.434-1.3l0.007-0.141v-3.308c-1.06,0.724-2.341,1.148-3.72,1.148C14.292,16.2,11.687,14.052,10.986,11.16z
	 M17.4,4.2c-2.982,0-5.4,2.418-5.4,5.4s2.418,5.4,5.4,5.4c2.981,0,5.399-2.418,5.399-5.4S20.382,4.2,17.4,4.2z M11.04,12.6v0.961
	H3.36V12.6H11.04z M20.549,8.14c0.504,0,0.504,0,0.805,0.246c0.299,0.248,0.299,0.248,0.299,0.66
	c-0.004,0.284-0.004,0.284-0.146,0.492c-0.141,0.21-0.141,0.21-0.396,0.305c0.304,0.082,0.304,0.082,0.465,0.298
	c0.16,0.216,0.16,0.216,0.16,0.533c0,0.446,0,0.446-0.328,0.705c-0.33,0.26-0.33,0.26-0.887,0.26c-0.346,0-0.346,0-0.664-0.106
	c-0.319-0.106-0.319-0.106-0.525-0.293l0.21-0.451l0.132,0.094c0.396,0.261,0.396,0.261,0.824,0.261c0.326,0,0.326,0,0.486-0.13
	c0.162-0.13,0.162-0.13,0.162-0.393c0-0.26,0-0.26-0.164-0.382c-0.162-0.122-0.162-0.122-0.504-0.122h-0.451V9.622h0.371
	l0.125-0.005c0.537-0.045,0.537-0.045,0.537-0.499c0-0.235,0-0.235-0.145-0.36C20.77,8.634,20.77,8.634,20.51,8.634
	c-0.46,0-0.46,0-0.921,0.355l-0.207-0.451l0.11-0.087c0.175-0.123,0.175-0.123,0.41-0.204C20.218,8.139,20.218,8.139,20.549,8.14
	L20.549,8.14z M15.279,8.182v2.914h0.742V11.6h-2.106v-0.504h0.749V8.893L13.968,9.31V8.758l0.95-0.576h0.359H15.279z M17.654,8.139
	c0.514,0,0.514,0,0.813,0.252s0.3,0.252,0.3,0.68c0,0.292,0,0.292-0.127,0.551c-0.127,0.26-0.127,0.26-0.425,0.581l-0.84,0.893
	h1.517V11.6h-2.295v-0.456l1.162-1.253l0.096-0.11c0.135-0.162,0.135-0.162,0.207-0.303c0.096-0.187,0.096-0.187,0.096-0.37
	c0-0.234,0-0.234-0.137-0.354s-0.137-0.12-0.392-0.12c-0.45,0-0.45,0-0.926,0.355l-0.206-0.451l0.107-0.087
	c0.172-0.123,0.172-0.123,0.41-0.204C17.333,8.139,17.333,8.139,17.654,8.139z M11.65,6.36H2.4c-0.754,0-1.364,0.566-1.433,1.3
	L0.96,7.8v0.96h9.893C10.963,7.897,11.239,7.086,11.65,6.36L11.65,6.36z"/>
</svg>
