<svg xmlns="http://www.w3.org/2000/svg" width="65" height="65" viewBox="0 0 65 65">
    <defs>
        <linearGradient id="xbz42997ma" x1="0%" x2="100%" y1="50%" y2="50%">
            <stop offset="0%" stop-color="#0A3097"/>
            <stop offset="100%" stop-color="#3C81F5"/>
        </linearGradient>
    </defs>
    <g fill="none" fill-rule="evenodd">
        <g fill="url(#xbz42997ma)" transform="translate(-785 -416)">
            <g>
                <g>
                    <path d="M52 8c4.418 0 8 3.582 8 8v17h3c.552 0 1 .448 1 1v14c0 .552-.448 1-1 1h-3v5.5c0 .828-.672 1.5-1.5 1.5s-1.5-.672-1.5-1.5V49H7v5.5c0 .828-.672 1.5-1.5 1.5S4 55.328 4 54.5V49H1c-.552 0-1-.448-1-1V34c0-.552.448-1 1-1h3V16c0-4.418 3.582-8 8-8h40zm9 28H3v10h58V36zm-9-25H12c-2.689 0-4.882 2.122-4.995 4.783L7 16v17h2.062c.492-3.946 3.858-7 7.938-7h5c4.08 0 7.446 3.054 7.938 7h4.124c.492-3.946 3.858-7 7.938-7h5c4.08 0 7.446 3.054 7.938 7H57V16c0-2.689-2.122-4.882-4.783-4.995L52 11zM22 29h-5c-2.398 0-4.402 1.688-4.888 3.941l-.011.059h14.797l-.01-.059c-.471-2.184-2.37-3.838-4.671-3.936L22 29zm25 0h-5c-2.398 0-4.402 1.688-4.888 3.941l-.011.059h14.797l-.01-.059c-.471-2.184-2.37-3.838-4.671-3.936L47 29z" transform="translate(735 380) translate(50.5 36.567)"/>
                </g>
            </g>
        </g>
    </g>
</svg>
