<svg xmlns="http://www.w3.org/2000/svg" width="41" height="40" viewBox="0 0 41 40">
    <defs>
        <linearGradient id="prefix__a" x1="100%" x2="0%" y1="50%" y2="50%">
            <stop offset="0%" stop-color="#F2F8FF"/>
            <stop offset="100%" stop-color="#D2DFFF"/>
        </linearGradient>
        <linearGradient id="prefix__b" x1="0%" x2="100%" y1="50%" y2="50%">
            <stop offset="0%" stop-color="#0A3097"/>
            <stop offset="100%" stop-color="#3C81F5"/>
        </linearGradient>
    </defs>
    <g fill="none" fill-rule="evenodd">
        <path fill="url(#prefix__a)" d="M3.75 8.125v20h25c-5.758-2.606-10.133-5.106-13.125-7.5-2.992-2.394-6.95-6.56-11.875-12.5z" transform="translate(.5)"/>
        <path fill="url(#prefix__b)" d="M28.017 7.5c.669 0 1.221.504 1.287 1.148l.007.13v1.362h4.718c1.395 0 2.54 1.078 2.626 2.435l.005.164v.66c0 .265-.168.49-.404.579l-.092.027 1.036 4.093c1.522.23 2.706 1.49 2.795 3.035l.005.187v6.6c0 .312-.232.569-.534.613l-.092.007h-2.047v.04c0 2.162-1.779 3.92-3.966 3.92-2.187 0-3.966-1.758-3.966-3.92v-.04H15.282v.04c0 2.162-1.779 3.92-3.966 3.92-2.187 0-3.966-1.758-3.966-3.92v-.04H3.968c-.67 0-1.222-.505-1.288-1.149l-.007-.13v-1.362H.626C.28 25.9 0 25.622 0 25.281c0-.311.232-.568.534-.613l.092-.006H6.64c.346 0 .626.277.626.619 0 .31-.232.567-.534.612l-.092.006H3.925v1.362c0 .015.008.028.02.035l.022.006h3.6c.538-1.535 2.014-2.64 3.748-2.64 1.662 0 3.087 1.015 3.677 2.45l.072.19h12.994V22.64c0-.341.28-.618.627-.618.314 0 .574.229.62.527l.006.091v4.662h.301c.538-1.535 2.015-2.64 3.75-2.64 1.66 0 3.086 1.015 3.676 2.45l.072.19h1.637V24.58h-.71c-1.032 0-1.881-.792-1.957-1.794l-.005-.145v-1.32c0-.31.232-.568.534-.612l.092-.007h1.948c-.249-.761-.943-1.327-1.778-1.395l-.168-.007H29.31V20c0 .342-.28.62-.626.62-.315 0-.575-.23-.62-.528L28.058 20V8.78c0-.015-.008-.029-.02-.036l-.021-.005H3.967c-.016 0-.03.008-.036.02l-.006.02V20c0 .342-.28.619-.626.619-.315 0-.575-.23-.62-.527L2.672 20V8.78c0-.661.51-1.207 1.162-1.272l.133-.007h24.05zM11.315 25.9c-1.496 0-2.714 1.202-2.714 2.681s1.218 2.682 2.714 2.682c1.497 0 2.714-1.203 2.714-2.682 0-1.479-1.217-2.682-2.714-2.682zm22.046 0c-1.496 0-2.714 1.202-2.714 2.681s1.218 2.682 2.714 2.682c1.497 0 2.714-1.203 2.714-2.682 0-1.479-1.217-2.682-2.714-2.682zm-22.046 1.402c.714 0 1.295.574 1.295 1.279s-.581 1.279-1.295 1.279c-.713 0-1.294-.574-1.294-1.279s.58-1.279 1.294-1.279zm22.046 0c.714 0 1.295.574 1.295 1.279s-.581 1.279-1.295 1.279-1.294-.574-1.294-1.279.58-1.279 1.294-1.279zm-7.348-2.64c.345 0 .626.277.626.619 0 .31-.232.568-.534.612l-.092.007H16.66c-.346 0-.627-.277-.627-.62 0-.31.232-.567.534-.611l.093-.007h9.353zm12.734-2.723h-1.42v.701c0 .355.268.649.614.695l.097.007h.71v-1.403zm-28.768.083c.346 0 .626.277.626.618 0 .311-.231.568-.533.613l-.093.006H1.962c-.346 0-.626-.277-.626-.619 0-.31.232-.568.534-.612l.092-.006H9.98zm6.585-10.772l4.061 1.57-.007.801c-.035 2.007-.255 3.414-.693 4.26-.475.918-1.5 1.766-3.07 2.59l-.295.154-.566-.304c-1.412-.777-2.345-1.577-2.792-2.44-.44-.85-.658-2.258-.693-4.272l-.009-.788 4.064-1.571zm0 1.41l-2.77 1.071.013.442c.055 1.407.22 2.407.474 2.978l.052.108c.303.587 1.056 1.232 2.258 1.893l-.028-.016.195-.109c.998-.574 1.653-1.132 1.97-1.65l.066-.118c.267-.515.445-1.462.514-2.817l.022-.563.003-.147-2.77-1.071zm18.312 1.358h-5.565v4.043H35.9l-1.023-4.043zm-.847-2.64h-4.718v1.403h6.096v-.042c0-.75-.618-1.361-1.378-1.361z" transform="translate(.5)"/>
    </g>
</svg>
