<svg xmlns="http://www.w3.org/2000/svg" width="40" height="40" viewBox="0 0 40 40">
    <defs>
        <linearGradient id="prefix__a" x1="100%" x2="0%" y1="50%" y2="50%">
            <stop offset="0%" stop-color="#F2F8FF"/>
            <stop offset="100%" stop-color="#D2DFFF"/>
        </linearGradient>
        <linearGradient id="prefix__b" x1="0%" x2="100%" y1="50%" y2="50%">
            <stop offset="0%" stop-color="#0A3097"/>
            <stop offset="100%" stop-color="#3C81F5"/>
        </linearGradient>
    </defs>
    <g fill="none" fill-rule="evenodd">
        <path fill="url(#prefix__a)" d="M31.862 12.237c0 6.202-2.857 10.303-5.254 12.652-2.72 2.665-5.63 3.849-6.276 3.849-.646 0-3.555-1.184-6.276-3.85-2.397-2.348-5.254-6.45-5.254-12.651V6.268c4.06-1.153 7.84-2.761 11.53-4.906C23.931 3.45 27.9 5.14 31.862 6.268v5.969z"/>
        <path fill="url(#prefix__b)" d="M20.011.088c.198-.117.444-.117.642 0 3.727 2.2 7.88 3.961 12.007 5.092.274.075.464.325.464.609v6.448c0 6.64-3.063 11.035-5.633 13.553-.191.188-.385.37-.58.546l4.131 9.871c.116.279.064.591-.136.816-.18.203-.444.295-.706.252l-.087-.02-3.702-1.045c-.01-.003-.021-.001-.03.005l-.01.01-1.854 3.372c-.138.252-.396.403-.68.403h-.04c-.27-.015-.507-.163-.637-.394l-.04-.08-2.244-5.364c-.127-.302.015-.65.318-.776.28-.117.6-.003.745.256l.03.062 1.917 4.58 1.446-2.63c.26-.47.785-.711 1.303-.61l.097.024 2.889.815-3.66-8.744c-1.7 1.351-3.402 2.252-4.571 2.642l-4.077 9.742c-.12.28-.378.46-.678.476l-.041.001c-.255 0-.49-.123-.635-.33l-.045-.073-1.854-3.372c-.005-.008-.014-.015-.024-.016h-.015l-3.704 1.046c-.288.082-.592-.007-.792-.232-.18-.202-.24-.476-.166-.73l.03-.085 4.196-10.026c-.138-.128-.276-.258-.412-.392-2.57-2.518-5.633-6.913-5.633-13.553V5.789c0-.284.19-.534.464-.609C12.25 4.017 16.177 2.352 20.011.088zM14.53 26.999l-3.718 8.884 2.888-.815c.516-.146 1.057.059 1.348.5l.052.085 1.446 2.63 3.48-8.31c-1.123-.175-3.325-1.21-5.496-2.974zm5.803-25.637c-3.69 2.145-7.47 3.753-11.53 4.906v5.969c0 6.202 2.857 10.303 5.254 12.652 2.72 2.665 5.63 3.849 6.276 3.849.647 0 3.555-1.184 6.276-3.85 2.397-2.348 5.254-6.45 5.254-12.651v-5.97C27.9 5.14 23.931 3.45 20.332 1.363zm1.556 24.035c.3-.176.687-.075.864.226.176.3.075.687-.226.863l-.042.025c-.1.057-.208.085-.315.085-.218 0-.43-.113-.547-.315-.175-.302-.072-.688.23-.863zm5.09-4.865c.19-.292.581-.374.873-.183.292.19.374.581.183.873-.564.863-1.224 1.688-1.963 2.452-.606.627-1.263 1.211-1.952 1.737-.114.087-.249.13-.382.13-.19 0-.378-.086-.502-.25-.212-.276-.158-.672.119-.884.639-.487 1.248-1.029 1.81-1.61.683-.707 1.293-1.47 1.813-2.265zm-4.407-9.693c.707-.707 1.858-.707 2.565 0 .707.707.707 1.858 0 2.565l-5.655 5.655c-.343.343-.798.531-1.283.531-.484 0-.94-.188-1.282-.53l-2.591-2.591c-.707-.708-.707-1.858 0-2.565.707-.708 1.858-.708 2.565 0l1.308 1.307zm1.726.839c-.245-.245-.643-.245-.887 0l-4.792 4.792c-.112.111-.263.174-.42.174-.157 0-.308-.063-.42-.174l-1.727-1.728c-.122-.122-.283-.183-.443-.183-.161 0-.322.061-.444.183-.245.245-.245.643 0 .888l2.59 2.59c.119.119.276.184.444.184.168 0 .326-.065.444-.183l5.655-5.656c.245-.244.245-.643 0-.887zM13.92 5.842c.324-.128.69.031.819.355.127.325-.032.691-.356.819-1.012.398-2.046.769-3.082 1.104v1.976c0 .348-.283.631-.631.631-.349 0-.631-.283-.631-.631V7.659c0-.276.179-.52.442-.602 1.155-.362 2.312-.771 3.44-1.215zm1.772-.738c.32-.14.693.005.833.324.14.32-.004.691-.323.831l-.012.005c-.082.036-.168.053-.253.053-.243 0-.475-.14-.579-.378-.14-.32.005-.69.324-.83z"/>
        <path fill="#FFF" d="M18.198 16.644c.157 0 .308-.063.42-.174l4.792-4.792c.244-.245.642-.245.887 0 .245.244.245.643 0 .887l-5.655 5.656c-.118.118-.276.183-.444.183-.168 0-.325-.065-.443-.183l-2.591-2.591c-.245-.245-.245-.643 0-.888.122-.122.283-.183.444-.183.16 0 .321.061.443.183l1.728 1.728c.111.111.262.174.42.174z"/>
    </g>
</svg>
