<svg xmlns="http://www.w3.org/2000/svg" width="65" height="65" viewBox="0 0 65 65">
    <defs>
        <linearGradient id="70cog07hza" x1="0%" x2="100%" y1="50%" y2="50%">
            <stop offset="0%" stop-color="#0A3097"/>
            <stop offset="100%" stop-color="#3C81F5"/>
        </linearGradient>
    </defs>
    <g fill="none" fill-rule="evenodd">
        <g fill="url(#70cog07hza)" transform="translate(-590 -416)">
            <g>
                <g>
                    <path d="M11.5 19c.78 0 1.42.595 1.493 1.356L13 20.5v35c0 1.869 1.464 3.395 3.308 3.495L16.5 59h32c1.933 0 3.5-1.567 3.5-3.5v-5c0-.828.672-1.5 1.5-1.5.78 0 1.42.595 1.493 1.356L55 50.5v5c0 3.512-2.785 6.373-6.267 6.496L48.5 62h-32c-3.512 0-6.373-2.785-6.496-6.267L10 55.5v-35c0-.828.672-1.5 1.5-1.5zM21 51c1.105 0 2 .895 2 2s-.895 2-2 2-2-.895-2-2 .895-2 2-2zm12 0c1.105 0 2 .895 2 2s-.895 2-2 2-2-.895-2-2 .895-2 2-2zm12 0c1.105 0 2 .895 2 2s-.895 2-2 2-2-.895-2-2 .895-2 2-2zm-24-8c1.105 0 2 .895 2 2s-.895 2-2 2-2-.895-2-2 .895-2 2-2zm12 0c1.105 0 2 .895 2 2s-.895 2-2 2-2-.895-2-2 .895-2 2-2zm12 0c1.105 0 2 .895 2 2s-.895 2-2 2-2-.895-2-2 .895-2 2-2zm3.5-40c3.512 0 6.373 2.785 6.496 6.267L55 9.5v32c0 .828-.672 1.5-1.5 1.5-.78 0-1.42-.595-1.493-1.356L52 41.5v-32c0-1.869-1.464-3.395-3.308-3.495L48.5 6h-32c-1.869 0-3.395 1.464-3.495 3.308L13 9.5v3c0 .828-.672 1.5-1.5 1.5-.78 0-1.42-.595-1.493-1.356L10 12.5v-3c0-3.512 2.785-6.373 6.267-6.496L16.5 3h32zM21 35c1.105 0 2 .895 2 2s-.895 2-2 2-2-.895-2-2 .895-2 2-2zm12 0c1.105 0 2 .895 2 2s-.895 2-2 2-2-.895-2-2 .895-2 2-2zm12 0c1.105 0 2 .895 2 2s-.895 2-2 2-2-.895-2-2 .895-2 2-2zm-24-8c1.105 0 2 .895 2 2s-.895 2-2 2-2-.895-2-2 .895-2 2-2zm12 0c1.105 0 2 .895 2 2s-.895 2-2 2-2-.895-2-2 .895-2 2-2zm12 0c1.105 0 2 .895 2 2s-.895 2-2 2-2-.895-2-2 .895-2 2-2zm-24-8c1.105 0 2 .895 2 2s-.895 2-2 2-2-.895-2-2 .895-2 2-2zm12 0c1.105 0 2 .895 2 2s-.895 2-2 2-2-.895-2-2 .895-2 2-2zm12 0c1.105 0 2 .895 2 2s-.895 2-2 2-2-.895-2-2 .895-2 2-2zm-24-8c1.105 0 2 .895 2 2s-.895 2-2 2-2-.895-2-2 .895-2 2-2zm12 0c1.105 0 2 .895 2 2s-.895 2-2 2-2-.895-2-2 .895-2 2-2zm12 0c1.105 0 2 .895 2 2s-.895 2-2 2-2-.895-2-2 .895-2 2-2z" transform="translate(540 380) translate(50.5 36.567)"/>
                </g>
            </g>
        </g>
    </g>
</svg>
