<svg xmlns="http://www.w3.org/2000/svg" width="40" height="40" viewBox="0 0 40 40">
    <defs>
        <linearGradient id="prefix__a" x1="100%" x2="0%" y1="50%" y2="50%">
            <stop offset="0%" stop-color="#F2F8FF"/>
            <stop offset="100%" stop-color="#D2DFFF"/>
        </linearGradient>
        <linearGradient id="prefix__b" x1="0%" x2="100%" y1="50%" y2="50%">
            <stop offset="0%" stop-color="#0A3097"/>
            <stop offset="100%" stop-color="#3C81F5"/>
        </linearGradient>
    </defs>
    <g fill="none" fill-rule="evenodd">
        <path fill="url(#prefix__a)" d="M15.925 34.38C7.841 34.377 1.29 27.822 1.29 19.74c.001-5.309 2.876-10.2 7.513-12.784-.55 1.63-.828 3.338-.826 5.058 0 8.844 7.17 16.013 16.014 16.013 1.483 0 2.958-.206 4.383-.612-2.669 4.315-7.375 6.948-12.449 6.964z"/>
        <path fill="url(#prefix__b)" d="M9.929 5.073c.18-.075.383-.07.56.013.343.163.49.573.328.917-1.734 3.714-1.829 7.986-.261 11.774 3.088 7.458 11.637 11.002 19.096 7.914.26-.107.56-.045.757.158.194.205.243.508.124.764-1.696 3.658-4.71 6.541-8.44 8.073-8.177 3.36-17.53-.547-20.888-8.724-3.36-8.177.547-17.53 8.724-20.889zM8.897 7.097C4.26 9.68 1.385 14.572 1.384 19.88 1.383 27.964 7.935 34.52 16.02 34.52c5.074-.016 9.78-2.649 12.45-6.964-1.426.406-2.901.612-4.384.612-8.844 0-16.014-7.17-16.014-16.013-.002-1.72.277-3.429.826-5.058zm20.78 3.73c.528 0 .823.591.533 1.009l-.043.056-2.959 3.45h2.47c.33 0 .603.25.64.57l.005.076c0 .33-.25.603-.57.64l-.076.005h-3.87c-.528 0-.823-.591-.533-1.01l.043-.055 2.957-3.451h-1.822c-.331 0-.604-.25-.641-.57l-.005-.075c0-.331.25-.604.57-.641l.076-.004h3.225zM21.935 5.02c.533 0 .826.602.527 1.018l-.044.056-4.208 4.733h4.37c.332 0 .604.249.641.57l.005.075c0 .33-.25.603-.57.64l-.075.005h-5.807c-.532 0-.826-.602-.527-1.018l.045-.056 4.206-4.733h-3.724c-.33 0-.603-.249-.64-.57l-.005-.075c0-.33.25-.603.57-.64l.075-.005h5.161zm16.775-.645c.532 0 .826.602.526 1.018l-.044.056-4.207 4.732h4.37c.33 0 .603.25.64.57l.005.076c0 .33-.25.603-.57.64l-.075.005h-5.807c-.532 0-.825-.602-.526-1.018l.044-.056 4.206-4.733h-3.724c-.33 0-.603-.249-.64-.57l-.005-.075c0-.33.25-.603.57-.64l.075-.005h5.162z"/>
    </g>
</svg>
