<svg xmlns="http://www.w3.org/2000/svg" width="100" height="84" viewBox="0 0 100 84">
  <path fill="#1E306E" fill-rule="evenodd" d="M22.1472891,53.1611614 C24.5070821,53.1611614 24.5070821,53.1611614 26.1926485,54.062573 L26.4479769,54.2065855 L26.4479769,56.8498937 L26.1172051,56.670099 C24.1407213,55.6344819 24.1407213,55.6344819 22.3597737,55.6344819 C20.4644113,55.6344819 20.4644113,55.6344819 19.2617486,56.6501582 C18.0590859,57.6658344 18.0590859,57.6658344 18.0590859,59.2382203 C18.0590859,60.8191056 18.0590859,60.8191056 19.2447498,61.8475309 C20.4304137,62.8759563 20.4304137,62.8759563 22.2832792,62.8759563 C23.2012126,62.8759563 23.2012126,62.8759563 24.0511509,62.6337238 C24.830261,62.4116775 24.830261,62.4116775 26.3092717,61.7004148 L26.5839671,61.5670513 L26.5839671,64.1593631 L26.2401192,64.3341285 C24.1694885,65.3407773 24.1694885,65.3407773 21.9178058,65.3407773 C18.7560353,65.3407773 18.7560353,65.3407773 16.8819213,63.5941541 C15.0078074,61.8475309 15.0078074,61.8475309 15.0078074,59.2892166 C15.0078074,56.7309023 15.0078074,56.7309023 16.9839139,54.9460319 C18.9600205,53.1611614 18.9600205,53.1611614 22.1472891,53.1611614 Z M35.5678149,53.1611614 C37.9276079,53.1611614 37.9276079,53.1611614 39.6131744,54.062573 L39.8685028,54.2065855 L39.8685028,56.8498937 L39.5377309,56.670099 C37.5612472,55.6344819 37.5612472,55.6344819 35.7802995,55.6344819 C33.8849371,55.6344819 33.8849371,55.6344819 32.6822744,56.6501582 C31.4796117,57.6658344 31.4796117,57.6658344 31.4796117,59.2382203 C31.4796117,60.8191056 31.4796117,60.8191056 32.6652756,61.8475309 C33.8509396,62.8759563 33.8509396,62.8759563 35.7038051,62.8759563 C36.6217384,62.8759563 36.6217384,62.8759563 37.4716767,62.6337238 C38.2507869,62.4116775 38.2507869,62.4116775 39.7297976,61.7004148 L40.0044929,61.5670513 L40.0044929,64.1593631 L39.6606451,64.3341285 C37.5900143,65.3407773 37.5900143,65.3407773 35.3383316,65.3407773 C32.1765611,65.3407773 32.1765611,65.3407773 30.3024471,63.5941541 C28.4283332,61.8475309 28.4283332,61.8475309 28.4283332,59.2892166 C28.4283332,56.7309023 28.4283332,56.7309023 30.4044397,54.9460319 C32.3805463,53.1611614 32.3805463,53.1611614 35.5678149,53.1611614 Z M48.6568648,53.1611614 C51.6911446,53.1611614 51.6911446,53.1611614 53.5695082,54.9927785 C55.4478719,56.8243955 55.4478719,56.8243955 55.4478719,59.2552191 C55.4478719,61.7200402 55.4478719,61.7200402 53.5440101,63.5304087 C51.6401483,65.3407773 51.6401483,65.3407773 48.6568648,65.3407773 C45.6395839,65.3407773 45.6395839,65.3407773 43.7442214,63.5389081 C41.848859,61.7370389 41.848859,61.7370389 41.848859,59.2552191 C41.848859,56.8158961 41.848859,56.8158961 43.7314724,54.9885288 C45.6140857,53.1611614 45.6140857,53.1611614 48.6568648,53.1611614 Z M60.4455091,53.3141503 L60.4455091,60.1391549 L60.4522173,60.3607008 C60.5192992,61.4480599 60.5192992,61.4480599 61.2572002,62.1280105 C62.0688913,62.8759563 62.0688913,62.8759563 63.3862957,62.8759563 C64.7546963,62.8759563 64.7546963,62.8759563 65.5748868,62.1110118 C66.3267281,61.4098127 66.3267281,61.4098127 66.3893815,60.1658335 L66.3950773,59.9351697 L66.3950773,53.3141503 L69.3528626,53.3141503 L69.3528626,60.0541611 L69.3475394,60.3557862 C69.2623691,62.7339666 69.2623691,62.7339666 67.8144742,63.9978748 C66.2760859,65.3407773 66.2760859,65.3407773 63.4202932,65.3407773 C60.598498,65.3407773 60.598498,65.3407773 59.0388612,63.980876 C57.5709678,62.700969 57.5709678,62.700969 57.4846211,60.3670207 L57.4792244,60.0711598 L57.4792244,53.3141503 L60.4455091,53.3141503 Z M10.2696937,53.3141503 L15.5393112,65.1877884 L12.3605419,65.1877884 L11.3831129,62.8419587 L6.07099847,62.8419587 L5.18706263,65.1877884 L2.05079029,65.1877884 L6.83594295,53.3141503 L10.2696937,53.3141503 Z M74.6479782,53.3141503 L80.988518,60.5726234 L80.988518,53.3141503 L83.9463033,53.3141503 L83.9463033,65.1877884 L81.455984,65.1877884 L74.8944603,57.5808406 L74.8944603,65.1877884 L71.936675,65.1877884 L71.936675,53.3141503 L74.6479782,53.3141503 Z M97.3328316,53.3141503 L97.3328316,55.4899924 L93.0321437,55.4899924 L93.0321437,65.1877884 L90.0743584,65.1877884 L90.0743584,55.4899924 L85.7736706,55.4899924 L85.7736706,53.3141503 L97.3328316,53.3141503 Z M48.6568648,55.6344819 C46.9654876,55.6344819 46.9654876,55.6344819 45.9328126,56.6289097 C44.9001375,57.6233375 44.9001375,57.6233375 44.9001375,59.2552191 C44.9001375,60.8786012 44.9001375,60.8786012 45.9328126,61.8772787 C46.9654876,62.8759563 46.9654876,62.8759563 48.6568648,62.8759563 C50.3397427,62.8759563 50.3397427,62.8759563 51.368168,61.8772787 C52.3965934,60.8786012 52.3965934,60.8786012 52.3965934,59.2552191 C52.3965934,57.6233375 52.3965934,57.6233375 51.368168,56.6289097 C50.3397427,55.6344819 50.3397427,55.6344819 48.6568648,55.6344819 Z M8.59531524,56.1529443 L6.85294171,60.7681093 L10.5076764,60.7681093 L8.59531524,56.1529443 Z M50.2431725,12.9998352 L50.4009751,13.1003674 C50.4545373,13.1308005 55.7348131,16.3402614 65.9934587,19.3408874 L66.4704687,19.4792172 L66.6546403,19.5315433 L66.6871897,19.7206592 C66.69337,19.7758695 67.5606661,25.3232687 65.9908807,31.7507365 C64.5644579,37.6032472 60.7801106,45.3896873 50.8752179,49.5097488 L50.398915,49.7031485 L50.2872584,49.7443502 L50.1764258,49.7031485 C39.9060738,45.6620841 36.0034472,37.7319897 34.5383142,31.787818 C32.9823975,25.4811963 33.777301,20.0147494 33.8151643,19.7696154 L33.8164601,19.7614489 L33.8440652,19.571097 L34.0290609,19.5171227 C44.4335245,16.5014068 49.8646376,13.2335266 50.0768118,13.1041001 L50.0828979,13.1003674 L50.2431725,12.9998352 Z M50.2477047,16.9823931 C49.4648721,17.5250197 45.7847348,19.8858781 38.0651811,22.1437322 C37.847224,23.8622558 36.5773871,36.9396807 47.2325631,44.0927107 C48.0611296,44.7329854 49.0256618,45.2822043 50.1150352,45.7378953 C50.1735416,45.7634403 50.2155674,45.7873373 50.2584172,45.8087622 C50.2662455,45.8145305 50.2736618,45.8157665 50.2810781,45.8211227 C50.2905545,45.8157665 50.2987948,45.8128824 50.3057991,45.8075262 C50.3482369,45.7856893 50.3902627,45.7634403 50.4327004,45.7448996 C51.5360824,45.2801442 52.4985545,44.7280412 53.3094043,44.0972429 C63.9629322,36.9063073 62.6642541,23.8342386 62.4421768,22.114891 C54.7152069,19.8751657 51.0293013,17.5233717 50.2477047,16.9823931 Z M50.2779056,23.8060155 C50.744721,23.8060155 51.1233648,24.1846592 51.1241888,24.6490026 C51.1246009,24.874376 51.0347811,25.0865648 50.8798627,25.2427193 L50.8798627,25.2427193 L51.8106094,30.1704446 C52.9209957,27.4939811 53.2778026,26.6336893 53.3944034,26.3572258 C53.3173562,26.2266163 53.2745064,26.0799382 53.2745064,25.932024 C53.2732704,25.4660326 53.6527382,25.0857408 54.1187296,25.0840927 C54.584721,25.0824446 54.9637768,25.4635605 54.9641888,25.9295519 C54.9641888,26.2398009 54.7882575,26.5199725 54.5179742,26.6658266 C54.5187983,27.2677837 54.5187983,29.4737236 54.5208584,31.091715 L54.5208584,31.091715 L56.9764807,27.779509 C56.9562918,27.707818 56.9459914,27.634067 56.9459914,27.5611399 C56.9451674,27.0943245 57.3221631,26.7165047 57.7910386,26.7156807 C58.256206,26.7156807 58.6365023,27.0935004 58.6365023,27.5582558 C58.6377339,27.9360755 58.3831073,28.2578609 58.0295966,28.3637494 C57.3361717,30.2128824 55.7750386,35.3190112 55.7581459,35.3713373 L55.7581459,35.3713373 L55.6992275,35.5682815 L55.495691,35.5406764 C55.4619056,35.5369682 52.2580601,35.1212429 50.2676052,35.122479 C48.2804464,35.1270112 45.0778369,35.5485047 45.0444635,35.5530369 L45.0444635,35.5530369 L44.8413391,35.58023 L44.7815966,35.3845219 C44.7651159,35.3338438 43.1891502,30.2297751 42.4916052,28.3818781 C42.1380944,28.2776378 41.8847039,27.9583245 41.8838798,27.5800927 C41.8838798,27.1116292 42.2621116,26.7346335 42.727279,26.7346335 C43.1940944,26.7346335 43.5731502,27.1103931 43.5739742,27.5772086 C43.5739742,27.6501356 43.5644979,27.7230627 43.543073,27.7955777 L43.543073,27.7955777 L46.0081717,31.1048996 C46.00537,29.7296069 46.003759,27.9304144 46.0025796,27.0471163 L46.0019914,26.6724189 C45.7358283,26.5368652 45.5570129,26.2550455 45.5566009,25.9369682 C45.5566009,25.4713888 45.9348326,25.091921 46.4012361,25.090685 C46.8676395,25.0894489 47.2462833,25.4697408 47.2471073,25.9344961 C47.2471073,26.0894146 47.2038455,26.2398009 47.1235021,26.3687622 C47.311794,26.8364017 48.0727897,28.6488652 48.7151245,30.178273 L48.7151245,30.178273 L49.6359828,25.2456034 C49.4785923,25.0878009 49.3887725,24.876024 49.3887725,24.6531227 C49.3887725,24.1879554 49.7653562,23.8060155 50.2325837,23.8060155 L50.2325837,23.8060155 Z"/>
</svg>
