<?xml version="1.0" encoding="utf-8"?>
<!-- Generator: Adobe Illustrator 16.0.0, SVG Export Plug-In . SVG Version: 6.00 Build 0)  -->
<!DOCTYPE svg PUBLIC "-//W3C//DTD SVG 1.1//EN" "http://www.w3.org/Graphics/SVG/1.1/DTD/svg11.dtd">
<svg version="1.1" id="Layer_1" xmlns="http://www.w3.org/2000/svg" xmlns:xlink="http://www.w3.org/1999/xlink" x="0px" y="0px"
	 width="24px" height="24px" viewBox="0 0 24 24" enable-background="new 0 0 24 24" xml:space="preserve">
<path fill="#3C81F5" d="M9,20c1.104,0,2,0.896,2,2s-0.896,2-2,2s-2-0.896-2-2S7.896,20,9,20z M20,20c1.104,0,2,0.896,2,2
	s-0.896,2-2,2s-2-0.896-2-2S18.896,20,20,20z M5,1c0.437,0,0.818,0.283,0.951,0.69l0.03,0.114L6.82,6H23
	c0.588,0,1.04,0.502,0.998,1.072l-0.016,0.115l-1.602,8.397c-0.271,1.366-1.443,2.357-2.803,2.413L19.4,18H9.699
	c-1.393,0.026-2.611-0.906-2.959-2.238l-0.041-0.176L4.18,3H1C0.487,3,0.064,2.614,0.007,2.117L0,2c0-0.513,0.386-0.936,0.883-0.993
	L1,1H5z M21.79,8H7.22l1.44,7.195c0.087,0.436,0.448,0.757,0.896,0.8L9.68,16h9.739c0.444,0.009,0.835-0.275,0.969-0.684l0.03-0.113
	L21.79,8z"/>
</svg>
