<?xml version="1.0" encoding="utf-8"?>
<!-- Generator: Adobe Illustrator 16.0.0, SVG Export Plug-In . SVG Version: 6.00 Build 0)  -->
<!DOCTYPE svg PUBLIC "-//W3C//DTD SVG 1.1//EN" "http://www.w3.org/Graphics/SVG/1.1/DTD/svg11.dtd">
<svg version="1.1" id="Layer_1" xmlns="http://www.w3.org/2000/svg" xmlns:xlink="http://www.w3.org/1999/xlink" x="0px" y="0px"
	 width="24px" height="24px" viewBox="0 0 24 24" enable-background="new 0 0 24 24" xml:space="preserve">
<path fill="#1E306E" d="M21,1c1.104,0,2,0.896,2,2v18c0,1.104-0.896,2-2,2H3c-1.104,0-2-0.896-2-2V3c0-1.104,0.896-2,2-2H21z
	 M18.707,7.293c-0.391-0.391-1.023-0.391-1.414,0l0,0L10,14.585l-3.293-3.292L6.613,11.21c-0.392-0.305-0.959-0.277-1.32,0.083
	c-0.391,0.391-0.391,1.023,0,1.414l0,0l4,4l0.094,0.083c0.392,0.306,0.959,0.277,1.32-0.083l0,0l8-8l0.084-0.094
	C19.096,8.221,19.067,7.653,18.707,7.293z"/>
</svg>
