<svg xmlns="http://www.w3.org/2000/svg" width="24" height="24" viewBox="0 0 24 24">
  <path fill-rule="evenodd" d="M21,1 C22.1045695,1 23,1.8954305 23,3 L23,21 C23,22.1045695 22.1045695,23 21,23 L3,23 C1.8954305,23 1,22.1045695 1,21 L1,3 C1,1.8954305 1.8954305,1 3,1 L21,1 Z M18.7071068,7.29289322 C18.3165825,6.90236893 17.6834175,6.90236893 17.2928932,7.29289322 L17.2928932,7.29289322 L10,14.585 L6.70710678,11.2928932 L6.61289944,11.2097046 C6.22060824,10.9046797 5.65337718,10.9324093 5.29289322,11.2928932 C4.90236893,11.6834175 4.90236893,12.3165825 5.29289322,12.7071068 L5.29289322,12.7071068 L9.29289322,16.7071068 L9.38710056,16.7902954 C9.77939176,17.0953203 10.3466228,17.0675907 10.7071068,16.7071068 L10.7071068,16.7071068 L18.7071068,8.70710678 L18.7902954,8.61289944 C19.0953203,8.22060824 19.0675907,7.65337718 18.7071068,7.29289322 Z"/>
</svg>
