<svg xmlns="http://www.w3.org/2000/svg" width="24" height="24" viewBox="0 0 24 24">
  <path fill-rule="evenodd" d="M6.34314575,4.92893219 L12.000039,10.585039 L17.6568542,4.92893219 C18.0173382,4.56844823 18.5845693,4.54071869 18.9768605,4.84574358 L19.0710678,4.92893219 C19.4615921,5.31945648 19.4615921,5.95262146 19.0710678,6.34314575 L19.0710678,6.34314575 L13.415039,12.000039 L19.0710678,17.6568542 C19.4615921,18.0473785 19.4615921,18.6805435 19.0710678,19.0710678 C18.6805435,19.4615921 18.0473785,19.4615921 17.6568542,19.0710678 L12.000039,13.415039 L6.34314575,19.0710678 C5.98266179,19.4315518 5.41543073,19.4592813 5.02313953,19.1542564 L4.92893219,19.0710678 C4.5384079,18.6805435 4.5384079,18.0473785 4.92893219,17.6568542 L4.92893219,17.6568542 L10.585039,12.000039 L4.92893219,6.34314575 C4.5384079,5.95262146 4.5384079,5.31945648 4.92893219,4.92893219 C5.31945648,4.5384079 5.95262146,4.5384079 6.34314575,4.92893219 Z"/>
</svg>
