<?xml version="1.0" encoding="utf-8"?>
<!-- Generator: Adobe Illustrator 16.0.0, SVG Export Plug-In . SVG Version: 6.00 Build 0)  -->
<!DOCTYPE svg PUBLIC "-//W3C//DTD SVG 1.1//EN" "http://www.w3.org/Graphics/SVG/1.1/DTD/svg11.dtd">
<svg version="1.1" id="Layer_1" xmlns="http://www.w3.org/2000/svg" xmlns:xlink="http://www.w3.org/1999/xlink" x="0px" y="0px"
	 width="24px" height="24px" viewBox="0 0 24 24" enable-background="new 0 0 24 24" xml:space="preserve">
<path fill="#3C81F5" d="M16.663,2.004c-1.62,0.072-3.159,0.747-4.31,1.9L12,4.254l-0.353-0.352c-2.539-2.539-6.655-2.539-9.194,0
	s-2.539,6.655,0,9.194l8.84,8.84c0.39,0.391,1.024,0.391,1.414,0l8.84-8.84c1.221-1.219,1.905-2.873,1.905-4.597
	s-0.685-3.378-1.905-4.597c-1.219-1.22-2.873-1.905-4.597-1.905L16.663,2.004L16.663,2.004z M16.95,3.998
	c1.194,0,2.339,0.475,3.183,1.319c0.844,0.844,1.319,1.99,1.319,3.183c0,1.194-0.476,2.339-1.319,3.183L12,19.814l-8.133-8.131
	c-1.758-1.758-1.758-4.608,0-6.366c1.758-1.758,4.608-1.758,6.366,0l1.06,1.06c0.39,0.39,1.024,0.39,1.414,0l1.061-1.06
	C14.611,4.473,15.757,3.998,16.95,3.998z"/>
</svg>
