<svg xmlns="http://www.w3.org/2000/svg" width="24" height="24" viewBox="0 0 24 24">
    <path fill-rule="evenodd" d="M16.663 2.004c-1.62.072-3.159.747-4.31 1.9L12 4.254l-.353-.352c-2.539-2.539-6.655-2.539-9.194 0-2.539 2.539-2.539 6.655 0 9.194l8.84 8.84c.39.39 1.024.39 1.414 0l8.84-8.84c1.22-1.219 1.905-2.873 1.905-4.597 0-1.724-.685-3.378-1.905-4.597-1.219-1.22-2.873-1.905-4.597-1.905l-.287.006zm.287 1.994c1.194 0 2.339.475 3.183 1.319.844.844 1.319 1.99 1.319 3.183 0 1.194-.475 2.339-1.319 3.183L12 19.815l-8.133-8.132c-1.758-1.758-1.758-4.608 0-6.366s4.608-1.758 6.366 0l1.06 1.06c.39.39 1.024.39 1.414 0l1.06-1.06c.844-.844 1.99-1.319 3.183-1.319z"/>
</svg>
