<?xml version="1.0" encoding="utf-8"?>
<!-- Generator: Adobe Illustrator 16.0.0, SVG Export Plug-In . SVG Version: 6.00 Build 0)  -->
<!DOCTYPE svg PUBLIC "-//W3C//DTD SVG 1.1//EN" "http://www.w3.org/Graphics/SVG/1.1/DTD/svg11.dtd">
<svg version="1.1" id="Layer_1" xmlns="http://www.w3.org/2000/svg" xmlns:xlink="http://www.w3.org/1999/xlink" x="0px" y="0px"
	 width="24px" height="24px" viewBox="0 0 24 24" enable-background="new 0 0 24 24" xml:space="preserve">
<path fill="#1E306E" d="M12,1c6.075,0,11,4.925,11,11s-4.925,11-11,11S1,18.075,1,12S5.925,1,12,1z M12,3c-4.971,0-9,4.029-9,9
	s4.029,9,9,9s9-4.029,9-9S16.971,3,12,3z M12,11c0.513,0,0.936,0.386,0.993,0.883L13,12v4c0,0.553-0.447,1-1,1
	c-0.513,0-0.936-0.387-0.993-0.883L11,16v-4C11,11.448,11.448,11,12,11z M12.01,7c0.553,0,1,0.448,1,1
	c0,0.513-0.386,0.936-0.883,0.993L12,9c-0.552,0-1-0.448-1-1c0-0.513,0.386-0.936,0.883-0.993L12.01,7z"/>
</svg>
