<?xml version="1.0" encoding="utf-8"?>
<!-- Generator: Adobe Illustrator 16.0.0, SVG Export Plug-In . SVG Version: 6.00 Build 0)  -->
<!DOCTYPE svg PUBLIC "-//W3C//DTD SVG 1.1//EN" "http://www.w3.org/Graphics/SVG/1.1/DTD/svg11.dtd">
<svg version="1.1" id="Layer_1" xmlns="http://www.w3.org/2000/svg" xmlns:xlink="http://www.w3.org/1999/xlink" x="0px" y="0px"
	 width="24px" height="24px" viewBox="0 0 24 24" enable-background="new 0 0 24 24" xml:space="preserve">
<path fill="#3C81F5" d="M20.572,2.096c0.849-0.402,1.734,0.483,1.332,1.332l0,0l-9,19c-0.402,0.85-1.646,0.726-1.875-0.186l0,0
	l-1.855-7.418l-7.417-1.854c-0.871-0.219-1.022-1.366-0.291-1.817l0,0l0.105-0.057L20.572,2.096z M18.896,5.102L4.953,11.707
	l5.29,1.322c0.318,0.08,0.575,0.311,0.691,0.611l0,0l0.037,0.117l1.322,5.288L18.896,5.102z"/>
</svg>
