<?xml version="1.0" encoding="utf-8"?>
<!-- Generator: Adobe Illustrator 16.0.0, SVG Export Plug-In . SVG Version: 6.00 Build 0)  -->
<!DOCTYPE svg PUBLIC "-//W3C//DTD SVG 1.1//EN" "http://www.w3.org/Graphics/SVG/1.1/DTD/svg11.dtd">
<svg version="1.1" id="Layer_1" xmlns="http://www.w3.org/2000/svg" xmlns:xlink="http://www.w3.org/1999/xlink" x="0px" y="0px"
	 width="24px" height="24px" viewBox="0 0 24 24" enable-background="new 0 0 24 24" xml:space="preserve">
<path fill="#1E306E" d="M12,1c3.238,0,5.877,2.565,5.996,5.775L18,7v3h1c1.598,0,2.904,1.249,2.995,2.824L22,13v7
	c0,1.598-1.249,2.904-2.824,2.995L19,23H5c-1.598,0-2.904-1.249-2.995-2.824L2,20v-7c0-1.598,1.249-2.904,2.824-2.995L5,10h1V7
	C6,3.687,8.687,1,12,1z M19,12H5c-0.513,0-0.936,0.386-0.993,0.883L4,13v7c0,0.513,0.386,0.936,0.883,0.993L5,21h14
	c0.513,0,0.936-0.387,0.993-0.883L20,20v-7C20,12.448,19.553,12,19,12z M12,14.5c1.104,0,2,0.896,2,2s-0.896,2-2,2s-2-0.896-2-2
	S10.896,14.5,12,14.5z M12,3C9.858,3,8.109,4.684,8.005,6.8L8,7v3h8V7C16,4.791,14.209,3,12,3z"/>
</svg>
