<svg xmlns="http://www.w3.org/2000/svg" width="24" height="24" viewBox="0 0 24 24">
  <path fill-rule="evenodd" d="M12,1 C15.2383969,1 17.8775718,3.56557489 17.9958615,6.77506174 L18,7 L18,10 L19,10 C20.5976809,10 21.9036609,11.24892 21.9949073,12.8237272 L22,13 L22,20 C22,21.5976809 20.75108,22.9036609 19.1762728,22.9949073 L19,23 L5,23 C3.40231912,23 2.09633912,21.75108 2.00509269,20.1762728 L2,20 L2,13 C2,11.4023191 3.24891996,10.0963391 4.82372721,10.0050927 L5,10 L6,10 L6,7 C6,3.6862915 8.6862915,1 12,1 Z M19,12 L5,12 C4.48716416,12 4.06449284,12.3860402 4.00672773,12.8833789 L4,13 L4,20 C4,20.5128358 4.38604019,20.9355072 4.88337887,20.9932723 L5,21 L19,21 C19.5128358,21 19.9355072,20.6139598 19.9932723,20.1166211 L20,20 L20,13 C20,12.4477153 19.5522847,12 19,12 Z M12,14.5 C13.1045695,14.5 14,15.3954305 14,16.5 C14,17.6045695 13.1045695,18.5 12,18.5 C10.8954305,18.5 10,17.6045695 10,16.5 C10,15.3954305 10.8954305,14.5 12,14.5 Z M12,3 C9.85780461,3 8.10892112,4.68396847 8.00489531,6.80035966 L8,7 L8,10 L16,10 L16,7 C16,4.790861 14.209139,3 12,3 Z"/>
</svg>
