<svg xmlns="http://www.w3.org/2000/svg" width="24" height="24" viewBox="0 0 24 24">
    <path fill-rule="evenodd" d="M7.1 1H4.11c-.843 0-1.646.356-2.214.977-.568.622-.848 1.454-.772 2.293.346 3.263 1.451 6.383 3.227 9.124 1.61 2.532 3.763 4.686 6.303 6.3 2.72 1.764 5.825 2.869 9.058 3.22.86.078 1.694-.204 2.316-.775.623-.571.975-1.378.972-2.223V16.92c.037-1.498-1.072-2.807-2.58-3.02-.895-.118-1.764-.335-2.6-.647l-.195-.065c-1.043-.313-2.184-.034-2.968.74l-.721.72-.119-.074c-1.754-1.142-3.25-2.637-4.39-4.391l-.076-.12.716-.716c.828-.837 1.091-2.073.68-3.169-.312-.834-.529-1.703-.646-2.589-.212-1.5-1.495-2.604-3-2.59zM4.111 3H7.12c.502-.005.93.363 1 .86.135 1.026.388 2.042.753 3.02.138.367.05.78-.224 1.057L7.383 9.203c-.318.318-.385.81-.162 1.201 1.512 2.66 3.715 4.863 6.375 6.375.391.223.883.156 1.201-.162l1.27-1.27c.274-.27.686-.358 1.051-.22.98.365 1.996.618 3.031.754.494.07.864.507.851 1.014v3.025c.001.286-.116.555-.324.745-.207.19-.486.284-.766.26-2.904-.317-5.71-1.315-8.176-2.914-2.3-1.462-4.243-3.405-5.7-5.697-1.61-2.485-2.608-5.305-2.92-8.24-.023-.264.07-.54.26-.748C3.562 3.118 3.83 3 4.11 3z"/>
</svg>
