<?xml version="1.0" encoding="utf-8"?>
<!-- Generator: Adobe Illustrator 16.0.0, SVG Export Plug-In . SVG Version: 6.00 Build 0)  -->
<!DOCTYPE svg PUBLIC "-//W3C//DTD SVG 1.1//EN" "http://www.w3.org/Graphics/SVG/1.1/DTD/svg11.dtd">
<svg version="1.1" id="Layer_1" xmlns="http://www.w3.org/2000/svg" xmlns:xlink="http://www.w3.org/1999/xlink" x="0px" y="0px"
	 width="24px" height="24px" viewBox="0 0 24 24" enable-background="new 0 0 24 24" xml:space="preserve">
<path fill="#3C81F5" d="M12,0c5.523,0,10,4.477,10,10c0,3.371-1.803,6.676-4.773,9.813c-1.02,1.076-2.108,2.056-3.197,2.923
	c-0.191,0.151-0.375,0.296-0.552,0.429l0,0l-0.505,0.375l-0.418,0.293c-0.336,0.225-0.773,0.225-1.109,0l0,0l-0.417-0.293
	c-0.32-0.23-0.675-0.5-1.057-0.804c-1.089-0.867-2.178-1.847-3.197-2.923C3.802,16.676,2,13.371,2,10C2,4.477,6.477,0,12,0z M12,2
	c-4.418,0-8,3.582-8,8c0,2.754,1.573,5.637,4.226,8.438c0.95,1.002,1.97,1.921,2.991,2.733c0.178,0.142,0.35,0.275,0.514,0.399l0,0
	L12,21.771l0.521-0.395l0.262-0.206c1.021-0.813,2.041-1.731,2.99-2.733C18.428,15.637,20,12.754,20,10C20,5.582,16.418,2,12,2z
	 M12,6c2.209,0,4,1.791,4,4s-1.791,4-4,4s-4-1.791-4-4S9.791,6,12,6z M12,8c-1.104,0-2,0.896-2,2s0.896,2,2,2s2-0.896,2-2
	S13.104,8,12,8z"/>
</svg>
