<svg xmlns="http://www.w3.org/2000/svg" width="24" height="24" viewBox="0 0 24 24">
    <path fill-rule="evenodd" d="M16 14c2.689 0 4.882 2.122 4.995 4.783L21 19v2c0 .552-.448 1-1 1-.513 0-.936-.386-.993-.883L19 21v-2c0-1.598-1.249-2.904-2.824-2.995L16 16H8c-1.598 0-2.904 1.249-2.995 2.824L5 19v2c0 .552-.448 1-1 1-.513 0-.936-.386-.993-.883L3 21v-2c0-2.689 2.122-4.882 4.783-4.995L8 14h8zM12 2c2.761 0 5 2.239 5 5s-2.239 5-5 5-5-2.239-5-5 2.239-5 5-5zm0 2c-1.657 0-3 1.343-3 3s1.343 3 3 3 3-1.343 3-3-1.343-3-3-3z"/>
</svg>
