<?xml version="1.0" encoding="utf-8"?>
<!-- Generator: Adobe Illustrator 16.0.0, SVG Export Plug-In . SVG Version: 6.00 Build 0)  -->
<!DOCTYPE svg PUBLIC "-//W3C//DTD SVG 1.1//EN" "http://www.w3.org/Graphics/SVG/1.1/DTD/svg11.dtd">
<svg version="1.1" id="Layer_1" xmlns="http://www.w3.org/2000/svg" xmlns:xlink="http://www.w3.org/1999/xlink" x="0px" y="0px"
	 width="24px" height="24px" viewBox="0 0 24 24" enable-background="new 0 0 24 24" xml:space="preserve">
<path fill="#1E306E" d="M12,1c6.075,0,11,4.925,11,11s-4.925,11-11,11S1,18.075,1,12S5.925,1,12,1z M12,3c-4.971,0-9,4.029-9,9
	c0,4.971,4.029,9,9,9c4.971,0,9-4.029,9-9C21,7.029,16.971,3,12,3z M12,5c3.866,0,7,3.134,7,7s-3.134,7-7,7s-7-3.134-7-7
	S8.134,5,12,5z"/>
</svg>
