<?xml version="1.0" encoding="utf-8"?>
<!-- Generator: Adobe Illustrator 16.0.0, SVG Export Plug-In . SVG Version: 6.00 Build 0)  -->
<!DOCTYPE svg PUBLIC "-//W3C//DTD SVG 1.1//EN" "http://www.w3.org/Graphics/SVG/1.1/DTD/svg11.dtd">
<svg version="1.1" id="Layer_1" xmlns="http://www.w3.org/2000/svg" xmlns:xlink="http://www.w3.org/1999/xlink" x="0px" y="0px"
	 width="24px" height="24px" viewBox="0 0 24 24" enable-background="new 0 0 24 24" xml:space="preserve">
<path fill="#3C81F5" d="M8.246,7.346L1.855,8.28L1.742,8.304C1.006,8.495,0.737,9.436,1.302,9.986l4.623,4.503l-1.09,6.362
	l-0.013,0.109c-0.049,0.762,0.764,1.313,1.464,0.944L12,18.9l5.715,3.005l0.101,0.046c0.708,0.283,1.483-0.32,1.351-1.1
	l-1.092-6.362l4.623-4.503l0.079-0.085c0.483-0.586,0.149-1.506-0.632-1.621l-6.392-0.934l-2.856-5.789
	c-0.367-0.743-1.426-0.743-1.793,0L8.246,7.346z M12,4.258l2.193,4.445l0.061,0.106c0.156,0.237,0.406,0.399,0.691,0.441
	l4.906,0.716l-3.549,3.458l-0.083,0.09c-0.178,0.223-0.254,0.512-0.206,0.795l0.838,4.883l-4.386-2.307l-0.112-0.051
	c-0.266-0.1-0.564-0.083-0.819,0.051l-4.387,2.307l0.838-4.883l0.013-0.121c0.013-0.284-0.095-0.563-0.301-0.764l-3.55-3.458
	L9.055,9.25C9.38,9.202,9.661,8.998,9.807,8.703L12,4.258z"/>
</svg>
