<?xml version="1.0" encoding="utf-8"?>
<!-- Generator: Adobe Illustrator 16.0.0, SVG Export Plug-In . SVG Version: 6.00 Build 0)  -->
<!DOCTYPE svg PUBLIC "-//W3C//DTD SVG 1.1//EN" "http://www.w3.org/Graphics/SVG/1.1/DTD/svg11.dtd">
<svg version="1.1" id="Layer_1" xmlns="http://www.w3.org/2000/svg" xmlns:xlink="http://www.w3.org/1999/xlink" x="0px" y="0px"
	 width="24px" height="24px" viewBox="0 0 24 24" enable-background="new 0 0 24 24" xml:space="preserve">
<path fill="#3C81F5" d="M2.213,19.617l0.08,0.09c-0.036-0.035-0.068-0.072-0.097-0.111c-0.018-0.024-0.035-0.049-0.05-0.075
	c-0.007-0.012-0.015-0.024-0.021-0.036c-0.011-0.02-0.021-0.041-0.031-0.062c-0.008-0.017-0.016-0.034-0.022-0.052
	c-0.008-0.02-0.015-0.039-0.022-0.06c-0.004-0.015-0.009-0.03-0.014-0.046c-0.006-0.021-0.011-0.043-0.016-0.064
	c-0.003-0.018-0.006-0.035-0.009-0.053c-0.003-0.02-0.005-0.039-0.007-0.059C2.001,19.063,2,19.038,2,19.012C2,19.008,2,19.004,2,19
	v-0.019c0-0.023,0.002-0.047,0.004-0.071L2,19c0-0.051,0.004-0.101,0.011-0.148c0.002-0.018,0.005-0.035,0.009-0.053
	c0.004-0.021,0.01-0.043,0.016-0.064c0.004-0.016,0.009-0.031,0.014-0.047c0.006-0.02,0.014-0.039,0.021-0.059
	c0.007-0.018,0.014-0.035,0.022-0.053c0.01-0.02,0.02-0.041,0.031-0.061c0.006-0.012,0.014-0.024,0.021-0.036
	c0.016-0.026,0.033-0.051,0.05-0.075c0.004-0.006,0.009-0.012,0.013-0.018c0.028-0.035,0.055-0.065,0.083-0.094l4-4
	c0.391-0.391,1.023-0.391,1.414,0c0.36,0.36,0.388,0.928,0.083,1.32l-0.083,0.094L5.415,18H17c1.598,0,2.904-1.249,2.995-2.824
	L20,15v-2c0-0.552,0.447-1,1-1c0.513,0,0.936,0.386,0.993,0.883L22,13v2c0,2.689-2.122,4.882-4.783,4.996L17,20H5.415l2.292,2.293
	c0.36,0.36,0.388,0.928,0.083,1.32l-0.083,0.094c-0.36,0.36-0.928,0.389-1.32,0.083l-0.094-0.083L2.29,19.704
	C2.263,19.677,2.237,19.647,2.213,19.617z M17.613,0.21l0.094,0.083l4,4c0.028,0.028,0.055,0.059,0.08,0.09l-0.08-0.09
	c0.035,0.035,0.068,0.073,0.097,0.112c0.018,0.024,0.034,0.049,0.05,0.075c0.008,0.012,0.016,0.024,0.021,0.037
	c0.012,0.02,0.021,0.04,0.031,0.061c0.008,0.017,0.016,0.034,0.022,0.052c0.008,0.02,0.015,0.039,0.022,0.06
	c0.004,0.015,0.009,0.03,0.014,0.045c0.006,0.021,0.011,0.043,0.016,0.065c0.003,0.017,0.006,0.035,0.008,0.052
	c0.004,0.02,0.006,0.041,0.008,0.062C21.998,4.932,21.999,4.95,22,4.968c0,0.01,0,0.021,0,0.032v0.033
	c-0.001,0.018-0.002,0.035-0.004,0.052L22,5c0,0.051-0.004,0.101-0.012,0.149c-0.002,0.017-0.005,0.035-0.008,0.052
	c-0.005,0.022-0.01,0.044-0.016,0.065c-0.005,0.016-0.01,0.031-0.015,0.046c-0.007,0.02-0.014,0.04-0.021,0.059
	c-0.007,0.018-0.015,0.035-0.022,0.052c-0.01,0.021-0.02,0.041-0.031,0.061c-0.006,0.012-0.014,0.024-0.021,0.036
	c-0.016,0.026-0.032,0.051-0.05,0.075c-0.005,0.006-0.009,0.012-0.013,0.018c-0.023,0.029-0.045,0.054-0.066,0.077l-0.018,0.017
	l-4,4c-0.391,0.391-1.023,0.391-1.414,0c-0.36-0.36-0.389-0.928-0.084-1.32l0.084-0.094L18.585,6H7C5.402,6,4.096,7.249,4.005,8.824
	L4,9v2c0,0.552-0.448,1-1,1c-0.513,0-0.936-0.386-0.993-0.883L2,11V9c0-2.689,2.122-4.882,4.783-4.996L7,4h11.585l-2.292-2.293
	c-0.36-0.36-0.389-0.928-0.084-1.32l0.084-0.094C16.653-0.067,17.221-0.095,17.613,0.21z"/>
</svg>
