<?xml version="1.0" encoding="utf-8"?>
<!-- Generator: Adobe Illustrator 16.0.0, SVG Export Plug-In . SVG Version: 6.00 Build 0)  -->
<!DOCTYPE svg PUBLIC "-//W3C//DTD SVG 1.1//EN" "http://www.w3.org/Graphics/SVG/1.1/DTD/svg11.dtd">
<svg version="1.1" id="Layer_1" xmlns="http://www.w3.org/2000/svg" xmlns:xlink="http://www.w3.org/1999/xlink" x="0px" y="0px"
	 width="24px" height="24px" viewBox="0 0 24 24" enable-background="new 0 0 24 24" xml:space="preserve">
<path fill="#3C81F5" d="M11,2c4.971,0,9,4.03,9,9c0,2.125-0.736,4.078-1.968,5.617l3.675,3.676c0.391,0.391,0.391,1.023,0,1.414
	c-0.359,0.359-0.928,0.389-1.32,0.083l-0.094-0.083l-3.676-3.675C15.077,19.264,13.125,20,11,20c-4.97,0-9-4.029-9-9
	C2,6.03,6.03,2,11,2z M11,4c-3.866,0-7,3.134-7,7s3.134,7,7,7c1.891,0,3.605-0.75,4.865-1.967c0.023-0.033,0.05-0.063,0.078-0.09
	l0.09-0.078C17.25,14.605,18,12.891,18,11C18,7.134,14.866,4,11,4z"/>
</svg>
