<svg xmlns="http://www.w3.org/2000/svg" width="220" height="120" viewBox="0 0 220 120">
  <g fill="none" transform="translate(13.5)">
    <g transform="translate(.5)">
      <path fill="#1E306E" d="M191.41779,98.0035107 C191.41779,101.265485 188.735235,104.911247 185.669509,105.870642 C127.228661,124.483165 64.1891149,124.483165 5.74828133,105.870642 C2.49092674,104.911247 -5.80528533e-14,101.265485 -5.80528533e-14,98.0035107 L-5.80528533e-14,21.8265233 C-5.80528533e-14,18.564549 2.6825337,14.9187875 5.74828133,13.9593918 C64.1891149,-4.65313061 127.228661,-4.65313061 185.669509,13.9593918 C188.926856,14.9187875 191.41779,18.564549 191.41779,21.8265233 L191.41779,98.0035107 Z"/>
      <path fill="#FFF" d="M176.66388,44.468522 C164.975696,35.2582076 83.5417224,38.3283608 67.0632918,38.3283608 C45.2198155,38.3283608 31.6155473,35.6419949 34.298081,28.3504718 C36.0225654,23.553421 74.7276428,17.2213661 95.613077,17.2213661 C131.252421,17.2213661 159.610585,23.1697062 156.928102,33.3394163 L167.083387,34.298812 C168.999457,32.7637354 176.280637,25.4722848 178.388328,24.1291019 C153.287512,16.2619704 127.611831,11.6568132 95.613077,11.6568132 C52.5009743,11.6568132 27.4001434,19.907732 13.2210471,26.0478932 C9.38886433,27.7748634 8.43081503,70.5644612 14.5623175,75.3614395 C26.2504871,84.5717539 107.684504,81.5016733 124.162862,81.5016733 C146.006331,81.5016733 159.610585,84.1880391 156.928102,91.4794897 C155.203581,96.2765405 116.498511,102.416774 95.613077,102.416774 C59.9737328,102.416774 31.6155473,96.4684342 34.298081,86.2987241 L24.1427816,85.3393284 C22.2266902,86.8743325 14.9455315,94.1658556 12.8378331,95.5090385 C37.9386568,103.568064 63.614323,108.173221 95.613077,108.173221 C138.725223,108.173221 164.017661,99.9223021 178.005085,93.7820683 C181.837297,92.0551706 182.795332,49.2655729 176.66388,44.468522"/>
      <g fill="#1E306E" transform="translate(22.614 49.037)">
        <path d="M16.474631 15.3875345C16.474631 19.2251896 12.4508341 21.911483 7.85220902 21.911483 4.59485443 21.911483 2.10392769 20.9520873.762664465 20.3764789L.571043018 15.1956408C1.33747811 17.3063258 3.44518368 20.1845853 7.27736641 20.1845853 10.9179494 20.1845853 12.0676057 18.0739003 12.0676057 16.5388238 12.0676057 13.6605643 8.81024384 13.2768495 5.55288201 11.7417729 2.10391321 10.2066964.762649981 8.47979868.762649981 6.17722008.762649981 1.95585015 5.36127504.420773576 8.81024384.420773576 10.1515071.420773576 12.4508196.612957302 14.3669182 1.57206288L14.5585397 6.17722008C13.9837477 4.6421435 11.876006 2.14767126 8.42703715 2.14767126 5.55289649 2.14767126 4.59485443 3.68274784 4.59485443 5.02593078 4.59485443 6.9447221 6.12772462 7.52040301 9.57669342 8.86358595 13.0256622 10.0148752 16.474631 11.1661645 16.474631 15.3875345M147.343809 15.3875345C147.343809 19.2251896 143.320049 21.911483 138.721424 21.911483 135.464076 21.911483 132.973142 20.9520873 131.631865 20.3764789L131.439953 15.1956408C132.206439 17.3063258 134.31413 20.1845853 138.14627 20.1845853 141.78686 20.1845853 142.936516 18.0739003 142.936516 16.5388238 142.936516 13.6605643 139.679169 13.2768495 136.421821 11.7417729 132.972853 10.2066964 131.631575 8.47979868 131.631575 6.17722008 131.631575 1.95585015 136.2302.420773576 139.679169.420773576 141.020446.420773576 143.319759.612957302 145.235829 1.57206288L145.42774 6.17722008C144.852731 4.6421435 142.745184 2.14767126 139.296215 2.14767126 136.422111 2.14767126 135.464076 3.68274784 135.464076 5.02593078 135.464076 6.9447221 136.996903 7.52040301 140.445872 8.86358595 143.703292 10.0148752 147.343809 11.1661645 147.343809 15.3875345M25.4802742.612667213C24.9054823.804850939 24.7138391 1.38016924 24.7138391 1.95585015L24.7138391 19.9926917C24.7138391 20.7601937 24.9054605 21.143981 25.4802742 21.3358746L19.7319928 21.3358746C20.3067848 21.1436909 20.4984279 20.5683001 20.4984279 19.9926917L20.4984279 1.95585015C20.4984279 1.1882756 20.115185.80456085 19.7319928.612667213L25.4802742.612667213zM47.7069571.612667213L53.0719956.612667213C52.4969864.804850939 52.3055822 1.38016924 52.3055822 1.95585015L52.3055822 19.9926917C52.3055822 20.7601937 52.6886803 21.143981 53.0719956 21.3358746L47.3237143 21.3358746C47.8987234 21.1436909 48.0902 20.5683001 48.0902 19.9926917L48.0902 4.6421435C48.0902 4.25850127 48.0902 3.87464148 48.0902 3.87464148L48.0902 4.6421435 40.4257767 21.911483 32.7614329 5.21782441 32.5698115 4.45024986 32.5698115 5.21782441 32.5698115 20.1845853C32.5698115 20.9520873 32.9530544 21.3358746 33.5278608 21.5277682L29.887285 21.5277682C30.462077 21.3355845 30.6537201 20.7601937 30.6537201 20.1845853L30.6537201 2.14767126C30.6537201 1.57184531 30.0789282.996381965 29.6956708.80456085L35.2523452.80456085 41.5754329 14.8118536 47.7069571.612667213zM74.5322941.612667213L79.8973326.612667213C79.3223234.804850939 79.1309192 1.38016924 79.1309192 1.95585015L79.1309192 19.9926917C79.1309192 20.7601937 79.5140173 21.143981 79.8973326 21.3358746L74.1490513 21.3358746C74.7240604 21.1436909 74.9154646 20.5683001 74.9154646 19.9926917L74.9154646 4.6421435C74.9154646 4.25850127 74.9154646 3.87464148 74.9154646 3.87464148L74.7242777 4.6421435 67.0598543 21.911483 59.3955033 5.21782441 59.2035922 4.45024986 59.2035922 5.21782441 59.2035922 20.1845853C59.2035922 20.9520873 59.5866903 21.3358746 60.161627 21.5277682L56.5210368 21.5277682C57.096046 21.3355845 57.2875226 20.7601937 57.2875226 20.1845853L57.2875226 2.14767126C57.2875226 1.57184531 56.7125134.996381965 56.3294878.80456085L61.8861476.80456085 68.2092209 14.8118536 74.5322941.612667213zM94.2680721 21.7195894C87.753305 21.7195894 82.3882666 17.1144322 82.579888 10.7823773 82.7717991 5.40971805 87.1785131.0369863019 94.842864.228879939 100.399524.228879939 106.531048 4.06653511 106.339427 10.9742709 106.147516 18.2657215 100.016353 21.911483 94.2680721 21.7195894M86.9868916 10.5904836C86.9868916 17.1144322 90.8191033 20.1845853 94.4596211 20.1845853 98.6750757 20.1845853 101.740802 16.922611 101.740802 11.3579857 101.740802 5.40971805 98.6750757 1.95585015 94.4596211 1.95585015 90.244239 1.95585015 86.9868916 5.02593078 86.9868916 10.5904836M125.308791 1.95585015C125.308791 1.1882756 124.925693.80456085 124.542305.612667213L128.182896.612667213C127.607887.804850939 127.416482 1.38016924 127.416482 1.95585015L127.416482 22.2952703C127.416482 22.2952703 112.087708 5.02593078 112.087708 4.6421435L112.087708 19.9926917C112.087708 20.7601937 112.470806 21.143981 113.045743 21.3358746L109.405153 21.3358746C109.788251 21.1436909 110.171638 20.5683001 110.171638 19.9926917L110.171638 3.68274784C110.171638 2.53145854 110.171638 2.53145854 109.596629 1.76395651 109.213531 1.38031428 108.830216.996381965 108.063802.612667213L113.620462.612667213 125.500195 14.0443515 125.308791 1.95585015z"/>
      </g>
    </g>
    <path fill="#1E306E" d="M187.5,111.499964 C187.5,111.115544 187.5,110.730906 187.692573,110.538624 C187.885146,110.154204 188.076993,109.961631 188.269566,109.769566 C188.461413,109.576993 188.846559,109.385146 189.038624,109.192573 C189.423043,109 189.615617,109 189.999964,109 C190.384383,109 190.769021,109 190.961304,109.192573 C191.345723,109.385146 191.538297,109.576993 191.730434,109.769566 C191.92228,109.962139 192.114854,110.346559 192.307427,110.538624 C192.5,110.923043 192.5,111.115617 192.5,111.499964 C192.5,111.884383 192.5,112.269094 192.307427,112.461304 C192.114854,112.845723 191.923007,113.038297 191.730434,113.230434 C191.537861,113.423007 191.153441,113.614854 190.961304,113.807427 C190.576884,114 190.384311,114 189.999964,114 C189.615544,114 189.230906,114 189.038624,113.807427 C188.654204,113.614854 188.461631,113.423007 188.269566,113.230434 C188.076993,113.037861 187.885146,112.653441 187.692573,112.461304 C187.692573,112.26873 187.5,111.884311 187.5,111.499964 M188.076993,111.499964 C188.076993,111.884383 188.076993,112.076957 188.269566,112.269094 C188.461413,112.461667 188.461413,112.846087 188.653986,112.846087 C188.846559,113.03866 189.038406,113.230507 189.230979,113.230507 C189.423552,113.42308 189.807972,113.42308 190.000036,113.42308 C190.384456,113.42308 190.577029,113.42308 190.769094,113.230507 C190.961667,113.037933 191.153514,113.037933 191.346087,112.846087 C191.53866,112.653514 191.730507,112.461667 191.730507,112.269094 C191.922353,112.076521 191.922353,111.692101 191.922353,111.499964 C191.922353,111.115544 191.922353,110.922971 191.730507,110.730906 C191.537933,110.538333 191.537933,110.346486 191.346087,110.153913 C191.153514,109.96134 190.961667,109.769493 190.769094,109.769493 C190.576521,109.769493 190.384674,109.57692 190.192101,109.57692 C189.807681,109.57692 189.615108,109.57692 189.423043,109.769493 C189.23047,109.962067 189.038624,109.962067 188.84605,110.153913 C188.653477,110.346486 188.461631,110.538333 188.461631,110.730906 C188.077211,111.115326 188.077211,111.307899 188.077211,111.499964 M189.230834,110.154059 L190.384456,110.154059 C190.768876,110.154059 190.961449,110.154059 191.153514,110.346632 C191.346087,110.539205 191.346087,110.731052 191.346087,110.923625 C191.346087,111.116198 191.346087,111.308044 191.153514,111.500618 C190.96094,111.693191 190.769094,111.693191 190.576521,111.693191 L191.345578,112.846813 L190.768585,112.846813 L189.999528,111.693191 L189.615108,111.693191 L189.615108,112.846813 L189.038115,112.846813 L189.038115,110.155003 L189.230834,110.154059 Z M189.615253,111.307681 L189.999673,111.307681 C189.999673,111.307681 190.192246,111.307681 190.192246,111.307681 C190.192246,111.307681 190.384819,111.307681 190.384819,111.307681 C190.384819,111.307681 190.577393,111.307681 190.577393,111.115108 C190.577393,111.115108 190.577393,110.922535 190.577393,110.922535 C190.577393,110.922535 190.577393,110.729961 190.577393,110.729961 C190.577393,110.729961 190.577393,110.537388 190.384819,110.537388 C190.384819,110.537388 190.192246,110.537388 190.192246,110.537388 C190.192246,110.537388 189.999673,110.537388 189.999673,110.537388 L189.615253,110.537388 L189.615253,111.307681 Z"/>
  </g>
</svg>
