<?xml version="1.0" encoding="utf-8"?>
<!-- Generator: Adobe Illustrator 16.0.0, SVG Export Plug-In . SVG Version: 6.00 Build 0)  -->
<!DOCTYPE svg PUBLIC "-//W3C//DTD SVG 1.1//EN" "http://www.w3.org/Graphics/SVG/1.1/DTD/svg11.dtd">
<svg version="1.1" id="Layer_1" xmlns="http://www.w3.org/2000/svg" xmlns:xlink="http://www.w3.org/1999/xlink" x="0px" y="0px"
	 width="28px" height="28px" viewBox="0 0 28 28" enable-background="new 0 0 28 28" xml:space="preserve">
<g>
	<path fill="none" d="M14,0c7.732,0,14,6.268,14,14c0,7.732-6.268,14-14,14C6.268,28,0,21.732,0,14C0,6.268,6.268,0,14,0z"/>
	<path fill="#1E306E" d="M14,0c7.732,0,14,6.268,14,14c0,7.732-6.268,14-14,14C6.268,28,0,21.732,0,14C0,6.268,6.268,0,14,0z
		 M14,0.933C6.783,0.933,0.933,6.783,0.933,14S6.783,27.066,14,27.066S27.066,21.217,27.066,14S21.217,0.933,14,0.933z M14.934,5.6
		c1.354,0,2.799,0.48,2.799,0.48v2.396h-1.399c-1,0-1.399,0.241-1.399,0.958V11.2h2.799L17.268,14h-2.334v7.471h-3.267V14h-1.4v-2.8
		h1.4V9.434C11.667,7.193,12.404,5.6,14.934,5.6z"/>
</g>
</svg>
