<?xml version="1.0" encoding="utf-8"?>
<!-- Generator: Adobe Illustrator 16.0.0, SVG Export Plug-In . SVG Version: 6.00 Build 0)  -->
<!DOCTYPE svg PUBLIC "-//W3C//DTD SVG 1.1//EN" "http://www.w3.org/Graphics/SVG/1.1/DTD/svg11.dtd">
<svg version="1.1" id="Layer_1" xmlns="http://www.w3.org/2000/svg" xmlns:xlink="http://www.w3.org/1999/xlink" x="0px" y="0px"
	 width="30px" height="30px" viewBox="0 0 30 30" enable-background="new 0 0 30 30" xml:space="preserve">
<g>
	<path display="none" fill="#FFFFFF" d="M15,0c8.284,0,15,6.716,15,15s-6.716,15-15,15S0,23.284,0,15S6.716,0,15,0z"/>
	<path fill="#FFFFFF" d="M15,0c8.284,0,15,6.716,15,15s-6.716,15-15,15S0,23.284,0,15S6.716,0,15,0z M15,1C7.268,1,1,7.268,1,15
		c0,7.732,6.268,14,14,14c7.732,0,14-6.268,14-14C29,7.268,22.732,1,15,1z M18.557,7C21.006,7,23,8.994,23,11.444v7.113
		C23,21.006,21.006,23,18.557,23h-7.113C8.994,23,7,21.006,7,18.557v-7.113C7,8.994,8.994,7,11.444,7H18.557z M18.557,8.778h-7.113
		c-1.47,0-2.666,1.196-2.666,2.666v7.113c0,1.469,1.196,2.666,2.666,2.666h7.113c1.469,0,2.666-1.197,2.666-2.666v-7.113
		C21.223,9.974,20.025,8.778,18.557,8.778z M15,10.556c2.45,0,4.443,1.993,4.443,4.444c0,2.45-1.992,4.443-4.443,4.443
		c-2.45,0-4.444-1.992-4.444-4.443C10.556,12.55,12.549,10.556,15,10.556z M15,12.333c-1.47,0-2.667,1.197-2.667,2.667
		c0,1.471,1.197,2.667,2.667,2.667c1.471,0,2.667-1.196,2.667-2.667C17.667,13.53,16.471,12.333,15,12.333z M19.443,9.667
		c0.492,0,0.891,0.398,0.891,0.889c0,0.49-0.398,0.888-0.891,0.888c-0.489,0-0.887-0.398-0.887-0.888
		C18.557,10.065,18.954,9.666,19.443,9.667L19.443,9.667z"/>
</g>
</svg>
