<?xml version="1.0" encoding="utf-8"?>
<!-- Generator: Adobe Illustrator 16.0.0, SVG Export Plug-In . SVG Version: 6.00 Build 0)  -->
<!DOCTYPE svg PUBLIC "-//W3C//DTD SVG 1.1//EN" "http://www.w3.org/Graphics/SVG/1.1/DTD/svg11.dtd">
<svg version="1.1" id="Layer_1" xmlns="http://www.w3.org/2000/svg" xmlns:xlink="http://www.w3.org/1999/xlink" x="0px" y="0px"
	 width="28px" height="28px" viewBox="0 0 28 28" enable-background="new 0 0 28 28" xml:space="preserve">
<g>
	<path fill="none" d="M14,0c7.732,0,14,6.268,14,14c0,7.732-6.268,14-14,14C6.268,28,0,21.732,0,14C0,6.268,6.268,0,14,0z"/>
	<path fill="#1E306E" d="M14,0c7.732,0,14,6.268,14,14c0,7.732-6.268,14-14,14C6.268,28,0,21.732,0,14C0,6.268,6.268,0,14,0z
		 M14,0.933C6.783,0.933,0.933,6.783,0.933,14S6.783,27.066,14,27.066S27.066,21.217,27.066,14S21.217,0.933,14,0.933z M16.872,8.4
		c0.882,0,1.678,0.4,2.235,1.041c0.701-0.147,1.354-0.422,1.947-0.8c-0.229,0.77-0.715,1.417-1.348,1.825
		c0.62-0.08,1.211-0.257,1.76-0.52c-0.41,0.662-0.93,1.243-1.527,1.708c0.004,0.14,0.008,0.284,0.008,0.428
		c0,4.359-3.081,9.385-8.717,9.385c-1.73,0-3.34-0.547-4.697-1.48c0.24,0.029,0.484,0.045,0.731,0.045
		c1.435,0,2.757-0.527,3.805-1.413c-1.34-0.025-2.471-0.979-2.862-2.29c0.187,0.04,0.38,0.061,0.577,0.061
		c0.28,0,0.55-0.041,0.808-0.117c-1.403-0.303-2.46-1.636-2.46-3.234v-0.04c0.415,0.245,0.888,0.395,1.39,0.41
		c-0.823-0.591-1.364-1.6-1.364-2.745c0-0.604,0.151-1.171,0.415-1.66c1.512,1.998,3.769,3.31,6.315,3.448
		c-0.052-0.242-0.079-0.493-0.079-0.751C13.809,9.877,15.182,8.4,16.872,8.4z"/>
</g>
</svg>
