<svg xmlns="http://www.w3.org/2000/svg" width="28" height="28" viewBox="0 0 28 28">
    <g fill="none" fill-rule="evenodd">
        <path d="M14 0c7.732 0 14 6.268 14 14s-6.268 14-14 14S0 21.732 0 14 6.268 0 14 0z"/>
        <path fill="#000" d="M14 0c7.732 0 14 6.268 14 14s-6.268 14-14 14S0 21.732 0 14 6.268 0 14 0zm0 .933C6.783.933.933 6.783.933 14c0 7.217 5.85 13.067 13.067 13.067 7.217 0 13.067-5.85 13.067-13.067C27.067 6.783 21.217.933 14 .933zm3.319 5.6c2.287 0 4.148 1.861 4.148 4.148v6.638c0 2.287-1.861 4.148-4.148 4.148H10.68c-2.287 0-4.148-1.861-4.148-4.148V10.68c0-2.287 1.861-4.148 4.148-4.148zm0 1.66H10.68c-1.372 0-2.488 1.116-2.488 2.488v6.638c0 1.372 1.116 2.488 2.488 2.488h6.638c1.372 0 2.488-1.116 2.488-2.488V10.68c0-1.372-1.116-2.488-2.488-2.488zM14 9.852c2.287 0 4.148 1.86 4.148 4.148 0 2.287-1.86 4.148-4.148 4.148-2.287 0-4.148-1.86-4.148-4.148 0-2.287 1.86-4.148 4.148-4.148zm0 1.66c-1.372 0-2.489 1.116-2.489 2.488 0 1.372 1.117 2.489 2.489 2.489 1.372 0 2.489-1.117 2.489-2.489 0-1.372-1.117-2.489-2.489-2.489zm4.148-2.49c.458 0 .83.372.83.83 0 .458-.372.83-.83.83-.458 0-.83-.372-.83-.83 0-.458.372-.83.83-.83z"/>
    </g>
</svg>
