<svg xmlns="http://www.w3.org/2000/svg" width="30" height="30" viewBox="0 0 30 30">
    <g fill="none" fill-rule="evenodd">
        <path d="M15 0c8.284 0 15 6.716 15 15 0 8.284-6.716 15-15 15-8.284 0-15-6.716-15-15C0 6.716 6.716 0 15 0z"/>
        <path fill="#000" d="M15 0c8.284 0 15 6.716 15 15 0 8.284-6.716 15-15 15-8.284 0-15-6.716-15-15C0 6.716 6.716 0 15 0zm0 1C7.268 1 1 7.268 1 15s6.268 14 14 14 14-6.268 14-14S22.732 1 15 1zm3.556 6C21.006 7 23 8.994 23 11.444v7.112C23 21.006 21.006 23 18.556 23h-7.112C8.994 23 7 21.006 7 18.556v-7.112C7 8.994 8.994 7 11.444 7zm0 1.778h-7.112c-1.47 0-2.666 1.196-2.666 2.666v7.112c0 1.47 1.196 2.666 2.666 2.666h7.112c1.47 0 2.666-1.196 2.666-2.666v-7.112c0-1.47-1.196-2.666-2.666-2.666zM15 10.556c2.45 0 4.444 1.993 4.444 4.444 0 2.45-1.993 4.444-4.444 4.444-2.45 0-4.444-1.993-4.444-4.444 0-2.45 1.993-4.444 4.444-4.444zm0 1.777c-1.47 0-2.667 1.197-2.667 2.667 0 1.47 1.197 2.667 2.667 2.667 1.47 0 2.667-1.197 2.667-2.667 0-1.47-1.197-2.667-2.667-2.667zm4.444-2.666c.491 0 .89.398.89.889 0 .49-.399.888-.89.888-.49 0-.888-.398-.888-.888 0-.491.398-.89.888-.89z"/>
    </g>
</svg>
