<?xml version="1.0" encoding="utf-8"?>
<!-- Generator: Adobe Illustrator 16.0.0, SVG Export Plug-In . SVG Version: 6.00 Build 0)  -->
<!DOCTYPE svg PUBLIC "-//W3C//DTD SVG 1.1//EN" "http://www.w3.org/Graphics/SVG/1.1/DTD/svg11.dtd">
<svg version="1.1" id="Layer_1" xmlns="http://www.w3.org/2000/svg" xmlns:xlink="http://www.w3.org/1999/xlink" x="0px" y="0px"
	 width="28px" height="28px" viewBox="0 0 28 28" enable-background="new 0 0 28 28" xml:space="preserve">
<g>
	<path fill="none" d="M14,0c7.732,0,14,6.268,14,14c0,7.732-6.268,14-14,14C6.268,28,0,21.732,0,14C0,6.268,6.268,0,14,0z"/>
	<path fill="#1E306E" d="M14,0c7.732,0,14,6.268,14,14c0,7.732-6.268,14-14,14C6.268,28,0,21.732,0,14C0,6.268,6.268,0,14,0z
		 M14,0.933C6.783,0.933,0.933,6.783,0.933,14S6.783,27.066,14,27.066S27.066,21.217,27.066,14S21.217,0.933,14,0.933z
		 M17.318,6.533c2.287,0,4.148,1.861,4.148,4.148v6.637c0,2.287-1.861,4.148-4.148,4.148H10.68c-2.287,0-4.148-1.861-4.148-4.148
		V10.68c0-2.287,1.861-4.148,4.148-4.148L17.318,6.533z M17.318,8.193H10.68c-1.372,0-2.488,1.116-2.488,2.488v6.637
		c0,1.373,1.116,2.488,2.488,2.488h6.638c1.371,0,2.488-1.115,2.488-2.488V10.68C19.807,9.308,18.689,8.192,17.318,8.193
		L17.318,8.193z M14,9.852c2.287,0,4.148,1.86,4.148,4.148c0,2.287-1.86,4.148-4.148,4.148c-2.287,0-4.148-1.86-4.148-4.148
		C9.852,11.713,11.712,9.852,14,9.852z M14,11.512c-1.372,0-2.489,1.116-2.489,2.488s1.117,2.489,2.489,2.489
		s2.488-1.117,2.488-2.489S15.372,11.511,14,11.511V11.512z M18.148,9.022c0.457,0,0.83,0.372,0.83,0.83s-0.373,0.83-0.83,0.83
		c-0.459,0-0.83-0.372-0.83-0.83S17.689,9.022,18.148,9.022z"/>
</g>
</svg>
