<svg xmlns="http://www.w3.org/2000/svg" width="28" height="28" viewBox="0 0 28 28">
    <g fill="none" fill-rule="evenodd">
        <path d="M14 0c7.732 0 14 6.268 14 14s-6.268 14-14 14S0 21.732 0 14 6.268 0 14 0z"/>
        <path fill="#000" d="M14 0c7.732 0 14 6.268 14 14s-6.268 14-14 14S0 21.732 0 14 6.268 0 14 0zm0 .933C6.783.933.933 6.783.933 14c0 7.217 5.85 13.067 13.067 13.067 7.217 0 13.067-5.85 13.067-13.067C27.067 6.783 21.217.933 14 .933zm.933 4.667c1.355 0 2.8.48 2.8.48v2.396h-1.4c-1 0-1.4.241-1.4.958V11.2h2.8l-.466 2.8h-2.334v7.47h-3.266V14h-1.4v-2.8h1.4V9.434c0-2.241.737-3.834 3.266-3.834z"/>
    </g>
</svg>
