<?xml version="1.0" encoding="utf-8"?>
<!-- Generator: Adobe Illustrator 16.0.0, SVG Export Plug-In . SVG Version: 6.00 Build 0)  -->
<!DOCTYPE svg PUBLIC "-//W3C//DTD SVG 1.1//EN" "http://www.w3.org/Graphics/SVG/1.1/DTD/svg11.dtd">
<svg version="1.1" id="Layer_1" xmlns="http://www.w3.org/2000/svg" xmlns:xlink="http://www.w3.org/1999/xlink" x="0px" y="0px"
	 width="30px" height="30px" viewBox="0 0 30 30" enable-background="new 0 0 30 30" xml:space="preserve">
<g>
	<path display="none" fill="#FFFFFF" d="M15,0c8.284,0,15,6.716,15,15s-6.716,15-15,15S0,23.284,0,15S6.716,0,15,0z"/>
	<path fill="#FFFFFF" d="M15,0c8.284,0,15,6.716,15,15s-6.716,15-15,15S0,23.284,0,15S6.716,0,15,0z M15,1C7.268,1,1,7.268,1,15
		c0,7.732,6.268,14,14,14c7.732,0,14-6.268,14-14C29,7.268,22.732,1,15,1z M18.077,9c0.944,0,1.799,0.429,2.396,1.115
		c0.75-0.157,1.45-0.452,2.086-0.856c-0.246,0.825-0.766,1.518-1.443,1.955c0.664-0.085,1.297-0.276,1.885-0.557
		c-0.439,0.71-0.995,1.331-1.637,1.83c0.006,0.15,0.009,0.304,0.009,0.458c0,4.67-3.302,10.055-9.34,10.055
		c-1.853,0-3.58-0.585-5.032-1.587c0.256,0.032,0.518,0.049,0.783,0.049c1.538,0,2.954-0.565,4.077-1.514
		c-1.437-0.027-2.648-1.05-3.066-2.453c0.2,0.042,0.406,0.063,0.618,0.063c0.3,0,0.59-0.043,0.865-0.125
		c-1.503-0.324-2.635-1.752-2.635-3.466v-0.043c0.444,0.262,0.95,0.423,1.488,0.44c-0.881-0.634-1.46-1.716-1.46-2.941
		c0-0.647,0.161-1.255,0.444-1.779c1.62,2.14,4.038,3.546,6.766,3.694c-0.056-0.259-0.084-0.528-0.084-0.805
		C14.796,10.583,16.266,9,18.077,9z"/>
</g>
</svg>
