<svg xmlns="http://www.w3.org/2000/svg" width="28" height="28" viewBox="0 0 28 28">
    <g fill="none" fill-rule="evenodd">
        <path d="M14 0c7.732 0 14 6.268 14 14s-6.268 14-14 14S0 21.732 0 14 6.268 0 14 0z"/>
        <path fill="#000" d="M14 0c7.732 0 14 6.268 14 14s-6.268 14-14 14S0 21.732 0 14 6.268 0 14 0zm0 .933C6.783.933.933 6.783.933 14c0 7.217 5.85 13.067 13.067 13.067 7.217 0 13.067-5.85 13.067-13.067C27.067 6.783 21.217.933 14 .933zM16.872 8.4c.882 0 1.678.4 2.236 1.041.7-.147 1.354-.422 1.947-.8-.23.77-.715 1.417-1.348 1.825.62-.08 1.211-.257 1.76-.52-.41.662-.93 1.243-1.528 1.708.005.14.008.284.008.428 0 4.359-3.081 9.385-8.717 9.385-1.73 0-3.34-.547-4.697-1.481.24.03.484.045.731.045 1.435 0 2.757-.527 3.805-1.413-1.34-.025-2.471-.98-2.862-2.29.187.04.38.06.577.06.28 0 .55-.04.808-.117-1.403-.302-2.46-1.635-2.46-3.234v-.04c.415.245.888.395 1.39.41-.823-.591-1.364-1.6-1.364-2.745 0-.604.151-1.171.415-1.66 1.512 1.998 3.769 3.31 6.315 3.448-.052-.242-.079-.493-.079-.751 0-1.822 1.372-3.299 3.063-3.299z"/>
    </g>
</svg>
