<svg xmlns="http://www.w3.org/2000/svg" width="30" height="30" viewBox="0 0 30 30">
    <g fill="none" fill-rule="evenodd">
        <path d="M15 0c8.284 0 15 6.716 15 15 0 8.284-6.716 15-15 15-8.284 0-15-6.716-15-15C0 6.716 6.716 0 15 0z"/>
        <path fill="#000" d="M15 0c8.284 0 15 6.716 15 15 0 8.284-6.716 15-15 15-8.284 0-15-6.716-15-15C0 6.716 6.716 0 15 0zm0 1C7.268 1 1 7.268 1 15s6.268 14 14 14 14-6.268 14-14S22.732 1 15 1zm3.077 8c.945 0 1.799.429 2.396 1.115.75-.157 1.45-.452 2.086-.856-.246.825-.766 1.518-1.444 1.955.664-.085 1.297-.276 1.885-.557-.439.71-.995 1.331-1.637 1.83.006.15.009.304.009.458 0 4.67-3.302 10.055-9.34 10.055-1.853 0-3.58-.585-5.032-1.587.256.033.518.049.783.049 1.538 0 2.954-.565 4.077-1.514-1.437-.027-2.648-1.05-3.066-2.453.2.042.406.063.618.063.3 0 .59-.042.865-.125-1.503-.323-2.635-1.752-2.635-3.465v-.043c.444.262.95.423 1.488.44-.881-.634-1.46-1.716-1.46-2.941 0-.647.161-1.255.444-1.779 1.62 2.14 4.038 3.546 6.766 3.694-.056-.259-.084-.528-.084-.805 0-1.951 1.47-3.534 3.281-3.534z"/>
    </g>
</svg>
