<svg xmlns="http://www.w3.org/2000/svg" width="30" height="30" viewBox="0 0 30 30">
    <g fill="none" fill-rule="evenodd">
        <path d="M15 0c8.284 0 15 6.716 15 15 0 8.284-6.716 15-15 15-8.284 0-15-6.716-15-15C0 6.716 6.716 0 15 0z"/>
        <path fill="#000" d="M15 0c8.284 0 15 6.716 15 15 0 8.284-6.716 15-15 15-8.284 0-15-6.716-15-15C0 6.716 6.716 0 15 0zm0 1C7.268 1 1 7.268 1 15s6.268 14 14 14 14-6.268 14-14S22.732 1 15 1zm1 5c1.451 0 3 .514 3 .514V9.08h-1.5c-1.073 0-1.5.259-1.5 1.027V12h3l-.5 3H16v8.004h-3.5V15H11v-3h1.5v-1.892C12.5 7.706 13.29 6 16 6z"/>
    </g>
</svg>
