<svg xmlns="http://www.w3.org/2000/svg" width="64" height="65" viewBox="0 0 64 65">
    <defs>
        <linearGradient id="x978f3wm1a" x1="0%" x2="100%" y1="50%" y2="50%">
            <stop offset="0%" stop-color="#0A3097"/>
            <stop offset="100%" stop-color="#3C81F5"/>
        </linearGradient>
        <linearGradient id="91v8bek34b" x1="0%" x2="100%" y1="50%" y2="50%">
            <stop offset="0%" stop-color="#0A3097"/>
            <stop offset="100%" stop-color="#3C81F5"/>
        </linearGradient>
        <linearGradient id="dah0sbt84c" x1="100%" x2="0%" y1="50%" y2="50%">
            <stop offset="0%" stop-color="#F2F8FF"/>
            <stop offset="100%" stop-color="#D2DFFF"/>
        </linearGradient>
        <linearGradient id="xts1g4u53d" x1="0%" x2="100%" y1="50%" y2="50%">
            <stop offset="0%" stop-color="#0A3097"/>
            <stop offset="100%" stop-color="#3C81F5"/>
        </linearGradient>
    </defs>
    <g fill="none" fill-rule="evenodd">
        <g>
            <g>
                <g>
                    <g>
                        <g transform="translate(-689 -310) translate(641 260) translate(48 50.5) translate(12.8 3.2)">
                            <rect width="35.2" height="57.6" x="1.6" fill="url(#x978f3wm1a)" rx="1"/>
                            <path fill="url(#91v8bek34b)" d="M37.27 19.2c.624 0 1.13.716 1.13 1.6V24c0 .884-.506 1.6-1.13 1.6H1.13C.505 25.6 0 24.884 0 24v-3.2c0-.884.506-1.6 1.13-1.6h36.14z"/>
                            <path fill="url(#dah0sbt84c)" d="M3.2 25.6H35.2V56H3.2z"/>
                            <path fill="#FFF" d="M3.2 1.6H35.2V19.200000000000003H3.2zM36.8 20.8L1.6 20.8 1.6 24 36.8 24z"/>
                            <g transform="translate(9.6 4.8)">
                                <rect width="19.2" height="11.2" fill="url(#xts1g4u53d)" rx="1"/>
                                <path fill="#FFF" d="M1.6 1.6H17.6V9.6H1.6z"/>
                            </g>
                        </g>
                    </g>
                </g>
            </g>
        </g>
    </g>
</svg>
