<svg xmlns="http://www.w3.org/2000/svg" width="64" height="65" viewBox="0 0 64 65">
    <defs>
        <linearGradient id="5b8h9q81ba" x1="0%" x2="100%" y1="50%" y2="50%">
            <stop offset="0%" stop-color="#0A3097"/>
            <stop offset="100%" stop-color="#3C81F5"/>
        </linearGradient>
        <linearGradient id="i2iok5m5vb" x1="100%" x2="0%" y1="50%" y2="50%">
            <stop offset="0%" stop-color="#F2F8FF"/>
            <stop offset="100%" stop-color="#D2DFFF"/>
        </linearGradient>
        <linearGradient id="9hk38u2w2c" x1="0%" x2="100%" y1="50%" y2="50%">
            <stop offset="0%" stop-color="#0A3097"/>
            <stop offset="100%" stop-color="#3C81F5"/>
        </linearGradient>
    </defs>
    <g fill="none" fill-rule="evenodd">
        <g>
            <g>
                <g transform="translate(-499 -555) translate(451 505) translate(48 50.5)">
                    <path fill="url(#5b8h9q81ba)" d="M56.6 3.2c.552 0 1 .448 1 1v18.2c.884 0 1.6.716 1.6 1.6v3.2c0 .884-.716 1.6-1.6 1.6v31c0 .552-.448 1-1 1H7.4c-.552 0-1-.448-1-1v-31c-.884 0-1.6-.716-1.6-1.6V24c0-.884.716-1.6 1.6-1.6V4.2c0-.552.448-1 1-1h49.2z"/>
                    <path fill="url(#i2iok5m5vb)" d="M8 28.8H56V59.2H8z"/>
                    <path fill="#FFF" d="M8 4.8H56V22.400000000000002H8zM57.6 24L6.4 24 6.4 27.2 57.6 27.2z"/>
                    <rect width="19.2" height="11.2" x="11.2" y="8" fill="url(#9hk38u2w2c)" rx="1"/>
                    <rect width="19.2" height="11.2" x="33.6" y="8" fill="url(#9hk38u2w2c)" rx="1"/>
                    <path fill="#FFF" d="M12.8 9.6H28.8V17.6H12.8zM35.2 9.6H51.2V17.6H35.2z"/>
                </g>
            </g>
        </g>
    </g>
</svg>
