<svg xmlns="http://www.w3.org/2000/svg" width="64" height="65" viewBox="0 0 64 65">
    <defs>
        <linearGradient id="z7canu7wba" x1="0%" x2="100%" y1="50%" y2="50%">
            <stop offset="0%" stop-color="#0A3097"/>
            <stop offset="100%" stop-color="#3C81F5"/>
        </linearGradient>
        <linearGradient id="yuyu95ro1b" x1="0%" x2="100%" y1="50%" y2="50%">
            <stop offset="0%" stop-color="#0A3097"/>
            <stop offset="100%" stop-color="#3C81F5"/>
        </linearGradient>
        <linearGradient id="89u0sn4hlc" x1="100%" x2="0%" y1="50%" y2="50%">
            <stop offset="0%" stop-color="#F2F8FF"/>
            <stop offset="100%" stop-color="#D2DFFF"/>
        </linearGradient>
        <linearGradient id="wsyva7sxgd" x1="0%" x2="100%" y1="50%" y2="50%">
            <stop offset="0%" stop-color="#0A3097"/>
            <stop offset="100%" stop-color="#3C81F5"/>
        </linearGradient>
    </defs>
    <g fill="none" fill-rule="evenodd">
        <g>
            <g>
                <g transform="translate(-878 -555) translate(830 505) translate(48 50.5)">
                    <rect width="60.8" height="60.8" x="1.6" y="1.6" fill="url(#z7canu7wba)" rx="1"/>
                    <path fill="url(#yuyu95ro1b)" d="M62.118 22.4c1.04 0 1.882.716 1.882 1.6v3.2c0 .884-.843 1.6-1.882 1.6H1.882C.842 28.8 0 28.084 0 27.2V24c0-.884.843-1.6 1.882-1.6h60.236z"/>
                    <path fill="url(#89u0sn4hlc)" d="M3.2 28.8H60.800000000000004V60.8H3.2z"/>
                    <path fill="#FFF" d="M3.2 3.2H60.800000000000004V22.4H3.2zM62.4 24L1.6 24 1.6 27.2 62.4 27.2z"/>
                    <rect width="19.2" height="11.2" x="8" y="8" fill="url(#wsyva7sxgd)" rx="1"/>
                    <rect width="19.2" height="11.2" x="36.8" y="8" fill="url(#wsyva7sxgd)" rx="1"/>
                    <path fill="#FFF" d="M9.6 9.6H25.6V17.6H9.6zM38.4 9.6H54.4V17.6H38.4z"/>
                </g>
            </g>
        </g>
    </g>
</svg>
