<svg xmlns="http://www.w3.org/2000/svg" width="64" height="65" viewBox="0 0 64 65">
    <defs>
        <linearGradient id="1jylci8xsa" x1="0%" x2="100%" y1="50%" y2="50%">
            <stop offset="0%" stop-color="#0A3097"/>
            <stop offset="100%" stop-color="#3C81F5"/>
        </linearGradient>
        <linearGradient id="aslmqlclab" x1="0%" x2="100%" y1="50%" y2="50%">
            <stop offset="0%" stop-color="#0A3097"/>
            <stop offset="100%" stop-color="#3C81F5"/>
        </linearGradient>
        <linearGradient id="rm2l5z04wc" x1="100%" x2="0%" y1="50%" y2="50%">
            <stop offset="0%" stop-color="#F2F8FF"/>
            <stop offset="100%" stop-color="#D2DFFF"/>
        </linearGradient>
        <linearGradient id="k53zbjmz4d" x1="0%" x2="100%" y1="50%" y2="50%">
            <stop offset="0%" stop-color="#0A3097"/>
            <stop offset="100%" stop-color="#3C81F5"/>
        </linearGradient>
    </defs>
    <g fill="none" fill-rule="evenodd">
        <g>
            <g>
                <g>
                    <g transform="translate(-499 -310) translate(451 260) translate(48 50.5) translate(16 3.2)">
                        <rect width="28.8" height="57.6" x="1.6" fill="url(#1jylci8xsa)" rx="1"/>
                        <path fill="url(#aslmqlclab)" d="M31.059 19.2c.52 0 .941.716.941 1.6V24c0 .884-.421 1.6-.941 1.6H.94C.421 25.6 0 24.884 0 24v-3.2c0-.884.421-1.6.941-1.6H31.06z"/>
                        <path fill="url(#rm2l5z04wc)" d="M3.2 25.6H28.8V56H3.2z"/>
                        <path fill="#FFF" d="M3.2 1.6H28.8V19.200000000000003H3.2zM30.4 20.8L1.6 20.8 1.6 24 30.4 24z"/>
                        <rect width="19.2" height="11.2" x="6.4" y="4.8" fill="url(#k53zbjmz4d)" rx="1"/>
                        <path fill="#FFF" d="M8 6.4H24V14.4H8z"/>
                    </g>
                </g>
            </g>
        </g>
    </g>
</svg>
