<?xml version="1.0" encoding="utf-8"?>
<!-- Generator: Adobe Illustrator 16.0.0, SVG Export Plug-In . SVG Version: 6.00 Build 0)  -->
<!DOCTYPE svg PUBLIC "-//W3C//DTD SVG 1.1//EN" "http://www.w3.org/Graphics/SVG/1.1/DTD/svg11.dtd">
<svg version="1.1" id="Layer_1" xmlns="http://www.w3.org/2000/svg" xmlns:xlink="http://www.w3.org/1999/xlink" x="0px" y="0px"
	 width="24px" height="24px" viewBox="0 0 24 24" enable-background="new 0 0 24 24" xml:space="preserve">
<path fill="#3C81F5" d="M11.387,4.21l-0.094,0.083l-7,7c-0.028,0.028-0.055,0.059-0.08,0.09l0.08-0.09
	c-0.036,0.035-0.068,0.073-0.097,0.112c-0.018,0.024-0.035,0.049-0.05,0.075c-0.007,0.012-0.015,0.024-0.021,0.037
	c-0.011,0.02-0.021,0.04-0.031,0.061c-0.008,0.017-0.016,0.034-0.022,0.052c-0.008,0.02-0.015,0.039-0.022,0.06
	c-0.004,0.015-0.009,0.03-0.014,0.045C4.03,11.756,4.025,11.778,4.02,11.8c-0.003,0.017-0.006,0.035-0.009,0.052
	c-0.003,0.02-0.006,0.041-0.007,0.062C4.002,11.932,4.001,11.95,4,11.968c0,0.01,0,0.021,0,0.032v0.033
	c0,0.018,0.001,0.035,0.003,0.052L4,12c0,0.051,0.004,0.101,0.011,0.149c0.002,0.017,0.005,0.035,0.009,0.052
	c0.004,0.022,0.01,0.044,0.016,0.065c0.004,0.016,0.009,0.031,0.014,0.046c0.006,0.02,0.014,0.04,0.021,0.059
	c0.007,0.018,0.014,0.035,0.022,0.052c0.01,0.021,0.02,0.041,0.031,0.061c0.006,0.012,0.014,0.024,0.021,0.036
	c0.016,0.026,0.033,0.051,0.05,0.076c0.004,0.006,0.009,0.012,0.013,0.018c0.005,0.006,0.008,0.01,0.01,0.012l0.073,0.082l7,7
	c0.391,0.391,1.023,0.391,1.414,0c0.359-0.359,0.389-0.928,0.084-1.32l-0.084-0.094L7.415,13H19c0.553,0,1-0.447,1-1
	c0-0.513-0.387-0.936-0.883-0.993L19,11H7.415l5.292-5.293c0.359-0.36,0.389-0.928,0.084-1.32l-0.084-0.094
	C12.347,3.933,11.779,3.905,11.387,4.21z"/>
</svg>
