<?xml version="1.0" encoding="utf-8"?>
<!-- Generator: Adobe Illustrator 16.0.0, SVG Export Plug-In . SVG Version: 6.00 Build 0)  -->
<!DOCTYPE svg PUBLIC "-//W3C//DTD SVG 1.1//EN" "http://www.w3.org/Graphics/SVG/1.1/DTD/svg11.dtd">
<svg version="1.1" id="Layer_1" xmlns="http://www.w3.org/2000/svg" xmlns:xlink="http://www.w3.org/1999/xlink" x="0px" y="0px"
	 width="24px" height="24px" viewBox="0 0 24 24" enable-background="new 0 0 24 24" xml:space="preserve">
<path fill="#3C81F5" d="M12.388,19.804l0.097-0.08l7.199-6.796c0.028-0.026,0.057-0.057,0.083-0.087l-0.083,0.087
	c0.037-0.034,0.07-0.071,0.101-0.108c0.018-0.024,0.036-0.049,0.052-0.074c0.007-0.012,0.016-0.023,0.022-0.036
	c0.012-0.02,0.021-0.039,0.032-0.061c0.009-0.017,0.017-0.033,0.023-0.051c0.009-0.02,0.016-0.039,0.024-0.06
	c0.004-0.015,0.009-0.03,0.015-0.044c0.007-0.021,0.013-0.042,0.018-0.064c0.004-0.017,0.007-0.035,0.011-0.052
	c0.004-0.02,0.008-0.041,0.009-0.062c0.003-0.018,0.004-0.036,0.006-0.053c0-0.01,0-0.021,0.001-0.032l0.001-0.033
	c0-0.018,0-0.035-0.002-0.052l0.001,0.085c0.001-0.051-0.001-0.102-0.007-0.149c-0.002-0.017-0.004-0.035-0.008-0.052
	c-0.003-0.022-0.009-0.044-0.014-0.065c-0.004-0.016-0.009-0.031-0.013-0.046c-0.006-0.02-0.013-0.041-0.02-0.06
	c-0.007-0.019-0.013-0.036-0.021-0.052c-0.01-0.021-0.019-0.042-0.029-0.062c-0.006-0.013-0.014-0.024-0.02-0.036
	c-0.016-0.027-0.032-0.052-0.048-0.078c-0.004-0.006-0.009-0.012-0.013-0.018c-0.005-0.006-0.008-0.01-0.01-0.012l-0.07-0.084
	l-6.796-7.199c-0.38-0.401-1.011-0.42-1.414-0.041c-0.37,0.349-0.415,0.916-0.122,1.317l0.082,0.096l5.136,5.443L5.032,10.798
	c-0.552-0.016-1.012,0.418-1.028,0.971c-0.015,0.513,0.359,0.947,0.854,1.018l0.117,0.011l11.581,0.333l-5.442,5.139
	c-0.37,0.35-0.416,0.917-0.122,1.316l0.081,0.097C11.421,20.053,11.988,20.098,12.388,19.804z"/>
</svg>
