<?xml version="1.0" encoding="utf-8"?>
<!-- Generator: Adobe Illustrator 16.0.0, SVG Export Plug-In . SVG Version: 6.00 Build 0)  -->
<!DOCTYPE svg PUBLIC "-//W3C//DTD SVG 1.1//EN" "http://www.w3.org/Graphics/SVG/1.1/DTD/svg11.dtd">
<svg version="1.1" id="Layer_1" xmlns="http://www.w3.org/2000/svg" xmlns:xlink="http://www.w3.org/1999/xlink" x="0px" y="0px"
	 width="24px" height="24px" viewBox="0 0 24 24" enable-background="new 0 0 24 24" xml:space="preserve">
<path fill="#3C81F5" d="M8.2,13.6c1.567,0,2.9,1.002,3.395,2.4H21.4c0.662,0,1.199,0.537,1.199,1.2c0,0.62-0.472,1.132-1.076,1.194
	L21.4,18.4h-9.805C11.101,19.798,9.768,20.8,8.2,20.8c-1.568,0-2.901-1.002-3.395-2.399H2.2c-0.663,0-1.2-0.537-1.2-1.2
	c0-0.621,0.472-1.132,1.077-1.194L2.2,16h2.605C5.3,14.6,6.633,13.6,8.2,13.6z M8.2,15.4c-0.994,0-1.8,0.806-1.8,1.8
	c0,0.993,0.806,1.8,1.8,1.8c0.994,0,1.8-0.807,1.8-1.8C10,16.206,9.194,15.4,8.2,15.4z M15.4,4c1.567,0,2.9,1.002,3.395,2.4H21.4
	c0.662,0,1.199,0.537,1.199,1.2S22.063,8.8,21.4,8.8h-2.605c-0.494,1.399-1.828,2.4-3.395,2.4c-1.567,0-2.9-1.001-3.396-2.4H2.2
	C1.537,8.8,1,8.263,1,7.6s0.537-1.2,1.2-1.2h9.805C12.499,5.002,13.832,4,15.4,4z M15.4,5.8c-0.994,0-1.801,0.806-1.801,1.8
	c0,0.994,0.807,1.8,1.801,1.8s1.8-0.806,1.8-1.8C17.2,6.606,16.395,5.8,15.4,5.8z"/>
</svg>
