<svg xmlns="http://www.w3.org/2000/svg" width="65" height="64" viewBox="0 0 65 64">
    <defs>
        <linearGradient id="prefix__a" x1="100%" x2="0%" y1="50%" y2="50%">
            <stop offset="0%" stop-color="#243D92"/>
            <stop offset="100%" stop-color="#1E306E"/>
        </linearGradient>
    </defs>
    <path fill="url(#prefix__a)" fill-rule="evenodd" d="M4.8 27.2c.884 0 1.6.716 1.6 1.6v12.8c1.254-.942 2.793-1.524 4.464-1.593L11.2 40h8c2.617 0 4.94 1.257 6.4 3.2h27.2c4.302 0 7.81 3.396 7.993 7.653l.007.347v11.2c0 .884-.716 1.6-1.6 1.6-.82 0-1.497-.618-1.59-1.413l-.01-.187V56H6.4v6.4c0 .884-.716 1.6-1.6 1.6-.884 0-1.6-.716-1.6-1.6V28.8c0-.884.716-1.6 1.6-1.6zm48 19.2H27.04c.084.414.136.839.153 1.273L27.2 48v4.8h30.4v-1.6c0-2.556-1.998-4.646-4.518-4.792L52.8 46.4zm-33.6-3.2h-8c-2.58 0-4.683 2.034-4.795 4.586l-.005.171V52.8H24V48c0-2.483-1.886-4.526-4.303-4.775l-.215-.017-.282-.008zm-1.6-12.8c.884 0 1.6.716 1.6 1.6 0 .884-.716 1.6-1.6 1.6-.884 0-1.6-.716-1.6-1.6 0-.884.716-1.6 1.6-1.6zm7.809-4.59c.47.22.795.587.979 1.092.206.566.185 1.07-.057 1.526-.242.455-.6.765-1.069.936-.485.177-.97.173-1.451-.013-.482-.185-.824-.564-1.032-1.136-.184-.505-.165-.997.064-1.472.224-.473.598-.802 1.106-.987.502-.183.992-.162 1.46.053zm9.498-2.13c.713 0 1.317.25 1.805.733.488.49.728 1.098.728 1.815 0 .803-.256 1.426-.767 1.886-.511.46-1.1.686-1.766.686-.69 0-1.293-.226-1.812-.678-.52-.452-.775-1.083-.775-1.894 0-.717.248-1.324.751-1.815.496-.491 1.116-.733 1.836-.733zm-14.226-8.585c.723-.264 1.429-.353 2.101-.26.685.09 1.29.345 1.806.759.512.41.883.929 1.108 1.547.18.493.246.97.192 1.424-.048.417-.146.801-.297 1.157-.106.244-.263.586-.46 1l-.256.53c-.085.176-.146.323-.187.447-.031.09-.05.171-.056.226-.006.067-.006.127 0 .188l.087.644c.076.731-.25 1.312-.939 1.562-.388.141-.788.12-1.157-.062-.377-.186-.642-.526-.809-.984-.17-.466-.253-.908-.244-1.322.009-.399.08-.779.213-1.135.115-.31.28-.68.496-1.117l.095-.192c.06-.122.113-.233.158-.331l.112-.254c.053-.128.087-.254.103-.401.012-.089.001-.18-.035-.28-.08-.217-.207-.358-.407-.453-.19-.09-.394-.094-.645-.003-.314.114-.473.25-.53.401-.096.25-.137.62-.112 1.083l.009.193c.007.754-.317 1.32-.974 1.56-.415.151-.84.118-1.23-.088-.37-.192-.64-.482-.776-.856-.202-.556-.242-1.169-.128-1.831.115-.664.41-1.285.875-1.856.472-.58 1.105-1.012 1.887-1.296zM35.065 3.2c1.482 0 2.797.296 3.93.897 1.139.592 2.013 1.405 2.635 2.43.622 1.026.93 2.136.93 3.336 0 .95-.175 1.778-.531 2.484-.357.715-.776 1.33-1.259 1.847-.49.516-1.356 1.39-2.622 2.613-.35.342-.629.646-.839.912-.21.258-.363.501-.468.714-.105.22-.182.433-.238.653-.056.22-.14.6-.251 1.148-.196 1.154-.804 1.74-1.825 1.74-.531 0-.979-.19-1.342-.57-.364-.38-.546-.943-.546-1.687 0-.935.133-1.748.399-2.431.265-.684.622-1.284 1.062-1.8.44-.518 1.035-1.133 1.783-1.847.657-.623 1.126-1.094 1.42-1.413.293-.32.538-.669.734-1.064.202-.387.3-.813.3-1.269 0-.889-.307-1.64-.916-2.256-.608-.615-1.398-.92-2.356-.92-1.125 0-1.957.312-2.489.928-.531.615-.985 1.527-1.349 2.727-.35 1.261-1.007 1.884-1.979 1.884-.573 0-1.055-.22-1.454-.66-.391-.426-.594-.897-.594-1.414 0-1.056.315-2.127.937-3.214.622-1.086 1.538-1.983 2.733-2.697 1.196-.714 2.594-1.071 4.195-1.071z" transform="translate(.5)"/>
</svg>
