<svg xmlns="http://www.w3.org/2000/svg" width="64" height="64" viewBox="0 0 64 64">
    <defs>
        <linearGradient id="prefix__a" x1="100%" x2="0%" y1="50%" y2="50%">
            <stop offset="0%" stop-color="#F2F8FF"/>
            <stop offset="100%" stop-color="#D2DFFF"/>
        </linearGradient>
        <linearGradient id="prefix__b" x1="0%" x2="100%" y1="50%" y2="50%">
            <stop offset="0%" stop-color="#0A3097"/>
            <stop offset="100%" stop-color="#3C81F5"/>
        </linearGradient>
    </defs>
    <g fill="none" fill-rule="evenodd">
        <rect width="48" height="64" x="8" fill="url(#prefix__a)" rx="16"/>
        <path fill="url(#prefix__b)" d="M32.5 1C28.35 1 25 4.35 25 8.5s3.35 7.5 7.5 7.5S40 12.65 40 8.5 36.65 1 32.5 1zm0 3C35 4 37 6 37 8.5S35 13 32.5 13 28 11 28 8.5 30 4 32.5 4zM18.45 17.55c-1.104 0-2 .895-2 2 0 1.104.896 2 2 2 1.105 0 2-.896 2-2 0-1.105-.895-2-2-2zM9 18c-2.2 0-4 1.8-4 4s1.8 4 4 4h16v3.5c0 .85.65 1.5 1.5 1.5s1.5-.65 1.5-1.5v-5c0-.85-.65-1.5-1.5-1.5H9c-.55 0-1-.45-1-1s.45-1 1-1h3c.85 0 1.5-.65 1.5-1.5S12.85 18 12 18H9zm16 0c-.85 0-1.5.65-1.5 1.5S24.15 21 25 21h31c.55 0 1 .45 1 1s-.45 1-1 1h-3c-.85 0-1.5.65-1.5 1.5S52.15 26 53 26h3c2.2 0 4-1.8 4-4s-1.8-4-4-4H25zm22.45 4.55c-1.104 0-2 .895-2 2 0 1.104.896 2 2 2 1.105 0 2-.896 2-2 0-1.105-.895-2-2-2zm-9 .45c-.85 0-1.5.65-1.5 1.5l-.05 18.05c0 .85.65 1.5 1.5 1.5s1.5-.65 1.5-1.5L39.95 26h1.5c.85 0 1.5-.65 1.5-1.5s-.65-1.5-1.5-1.5h-3zm-12 10.55c-1.104 0-2 .895-2 2 0 1.104.896 2 2 2 1.105 0 2-.896 2-2 0-1.105-.895-2-2-2zm6.1 3.65c-.85 0-1.5.65-1.5 1.5v20.85c0 .85-.65 1.5-1.5 1.5s-1.5-.65-1.5-1.5L28 41.6c0-.85-.65-1.5-1.5-1.5s-1.5.7-1.5 1.5v17.9c0 2.5 2 4.5 4.5 4.5 1.15 0 2.2-.45 3-1.15.8.7 1.85 1.15 3 1.15 2.45 0 4.45-2 4.45-4.45v-5c0-.85-.65-1.5-1.5-1.5s-1.5.65-1.5 1.5v5c0 .8-.65 1.45-1.45 1.45-.8 0-1.45-.65-1.45-1.45V38.7c0-.85-.65-1.5-1.5-1.5zm5.9 9.35c-1.104 0-2 .895-2 2 0 .53.21 1.039.586 1.414.375.375.884.586 1.414.586.53 0 1.04-.21 1.414-.586.375-.375.586-.884.586-1.414 0-1.105-.895-2-2-2z"/>
    </g>
</svg>
