<svg xmlns="http://www.w3.org/2000/svg" width="64" height="64" viewBox="0 0 64 64">
    <defs>
        <linearGradient id="prefix__a" x1="100%" x2="0%" y1="50%" y2="50%">
            <stop offset="0%" stop-color="#F2F8FF"/>
            <stop offset="100%" stop-color="#D2DFFF"/>
        </linearGradient>
        <linearGradient id="prefix__b" x1="0%" x2="100%" y1="50%" y2="50%">
            <stop offset="0%" stop-color="#0A3097"/>
            <stop offset="100%" stop-color="#3C81F5"/>
        </linearGradient>
    </defs>
    <g fill="none" fill-rule="evenodd">
        <path fill="url(#prefix__a)" d="M56.5 1.5l5 20c0 2.96-2.171 5.436-5 5.916V61.5h-50V27.416c-2.828-.48-5-2.956-5-5.916l5-20h50z"/>
        <path fill="#FFF" fill-rule="nonzero" d="M47 1.5H37l.5 20v.05c.05 3.3 2.75 5.95 6 5.95s5.95-2.65 6-5.9v-.1L47 1.5zm-27.5 26c-3.25 0-5.95-2.65-6-5.9v-.1l2.5-20h10l-.5 20.05c0 3.25-2.7 5.95-6 5.95z"/>
        <path fill="url(#prefix__b)" d="M56.5 0c.7 0 1.3.45 1.45 1.15l4.6 18.65c.85 3.3-.65 6.85-3.7 8.4-.273.136-.557.258-.85.362V60h3.5c.85 0 1.5.65 1.5 1.5s-.65 1.5-1.5 1.5h-60C.65 63 0 62.35 0 61.5S.65 60 1.5 60H5V33.5c0-.85.65-1.5 1.5-1.5s1.5.65 1.5 1.5V60h16V33.5c0-.85.65-1.5 1.5-1.5s1.5.65 1.5 1.5V54h28V28.983c-2.248-.15-4.243-1.306-5.5-2.983-1.35 1.8-3.55 3-6 3s-4.65-1.2-6-3c-1.35 1.8-3.55 3-6 3s-4.65-1.15-6-3c-1.35 1.8-3.55 3-6 3s-4.65-1.15-6-3c-1.35 1.8-3.55 3-6 3H7c-4.6-.3-7.65-4.85-6.55-9.3l4.6-18.55C5.2.45 5.8 0 6.5 0zm-36 45.5c.828 0 1.5.672 1.5 1.5s-.672 1.5-1.5 1.5S19 47.828 19 47s.672-1.5 1.5-1.5zM14.3 3H7.65L3.3 20.45c-.5 2 .35 4.15 2.2 5.1.85.4 1.8.6 2.8.4 2.2-.4 3.7-2.4 3.7-4.6v-.05L14.3 3zm10.15 0H17.3L15 21.55C15.05 24 17.05 26 19.5 26c2.5 0 4.5-2 4.5-4.5L24.45 3zM35.5 3h-8.05L27 21.55C27 24 29 26 31.5 26s4.5-2 4.5-4.5L35.5 3zm10.2 0h-7.15L39 21.45v.05l.009.213C39.165 24.113 41.12 26 43.5 26c2.45 0 4.45-1.95 4.5-4.4L45.7 3zm9.65 0H48.7L51 21.3v.2l.005.213C51.115 24.113 53.07 26 55.5 26c.7 0 1.4-.2 2-.5 1.85-.9 2.7-3.05 2.2-5.05L55.35 3z"/>
        <path fill="#FFF" fill-rule="nonzero" d="M46 46.2c-.2 0-.4-.05-.6-.15-.75-.35-1.1-1.2-.75-2l3-6.75c.35-.75 1.2-1.1 2-.75.75.35 1.1 1.2.75 2l-3 6.75c-.3.55-.85.9-1.4.9zm-8.5 4.3c-.2 0-.4-.05-.6-.15-.75-.35-1.1-1.2-.75-2l6-13.5c.35-.75 1.2-1.1 2-.75.75.35 1.1 1.2.75 2l-6 13.5c-.3.55-.85.9-1.4.9z"/>
    </g>
</svg>
