<svg xmlns="http://www.w3.org/2000/svg" width="64" height="64" viewBox="0 0 64 64">
    <defs>
        <linearGradient id="prefix__a" x1="100%" x2="0%" y1="50%" y2="50%">
            <stop offset="0%" stop-color="#F2F8FF"/>
            <stop offset="100%" stop-color="#D2DFFF"/>
        </linearGradient>
        <linearGradient id="prefix__b" x1="0%" x2="100%" y1="50%" y2="50%">
            <stop offset="0%" stop-color="#0A3097"/>
            <stop offset="100%" stop-color="#3C81F5"/>
        </linearGradient>
    </defs>
    <g fill="none" fill-rule="evenodd">
        <path fill="url(#prefix__a)" d="M2 16h55c-4-1.333-12.667 4-26 16S8.333 53 3 59L2 16z"/>
        <path fill="url(#prefix__b)" d="M57.5 1C61.1 1 64 3.9 64 7.5v50c0 3.6-2.9 6.5-6.5 6.5H20c-.85 0-1.5-.65-1.5-1.5S19.15 61 20 61h37.5c1.95 0 3.5-1.55 3.5-3.5v-50C61 5.55 59.45 4 57.5 4h-50C5.55 4 4 5.55 4 7.5V13h52c.85 0 1.5.65 1.5 1.5S56.85 16 56 16H2.5c-.85 0-1.5-.65-1.5-1.5v-7C1 3.9 3.9 1 7.5 1zm-7 20c3.05 0 5.5 2.45 5.5 5.5S53.55 32 50.5 32c-.225 0-.45-.028-.675-.063L49.6 31.9l-6.5 13.95c1.15 1 1.9 2.5 1.9 4.15 0 3.05-2.45 5.5-5.5 5.5S34 53.05 34 50c0-.7.153-1.362.392-1.985l.108-.265-7.9-6.7c-.9.6-1.95.95-3.1.95-.643 0-1.212-.11-1.771-.3l-.279-.1L10.9 55.25c.7.9 1.1 2.05 1.1 3.25 0 3.05-2.45 5.5-5.5 5.5S1 61.55 1 58.5 3.45 53 6.5 53c.643 0 1.212.11 1.771.3l.279.1L19.1 39.75c-.7-.9-1.1-2.05-1.1-3.25 0-3.05 2.45-5.5 5.5-5.5s5.5 2.45 5.5 5.5c0 .7-.153 1.362-.392 1.985l-.108.265 7.9 6.7c.9-.6 1.95-.95 3.1-.95.225 0 .45.028.675.063l.225.037 6.5-13.95c-1.15-1-1.9-2.5-1.9-4.15 0-3.05 2.45-5.5 5.5-5.5zm-44 35C5.1 56 4 57.1 4 58.5S5.1 61 6.5 61 9 59.9 9 58.5 7.9 56 6.5 56zm33-8.5c-1.4 0-2.5 1.1-2.5 2.5s1.1 2.5 2.5 2.5S42 51.4 42 50s-1.1-2.5-2.5-2.5zm-37-28c.85 0 1.5.65 1.5 1.5v24.05c0 .85-.65 1.5-1.5 1.5S1 45.9 1 45.05V21c0-.85.65-1.5 1.5-1.5zm21 14.5c-1.4 0-2.5 1.1-2.5 2.5s1.1 2.5 2.5 2.5 2.5-1.1 2.5-2.5-1.1-2.5-2.5-2.5zm27-10c-1.4 0-2.5 1.1-2.5 2.5s1.1 2.5 2.5 2.5 2.5-1.1 2.5-2.5-1.1-2.5-2.5-2.5zM8.5 7c.828 0 1.5.672 1.5 1.5S9.328 10 8.5 10 7 9.328 7 8.5 7.672 7 8.5 7zm5 0c.828 0 1.5.672 1.5 1.5s-.672 1.5-1.5 1.5S12 9.328 12 8.5 12.672 7 13.5 7zm5 0c.828 0 1.5.672 1.5 1.5s-.672 1.5-1.5 1.5S17 9.328 17 8.5 17.672 7 18.5 7z"/>
    </g>
</svg>
