<?xml version="1.0" encoding="utf-8"?>
<!-- Generator: Adobe Illustrator 16.0.0, SVG Export Plug-In . SVG Version: 6.00 Build 0)  -->
<!DOCTYPE svg PUBLIC "-//W3C//DTD SVG 1.1//EN" "http://www.w3.org/Graphics/SVG/1.1/DTD/svg11.dtd">
<svg version="1.1" id="Layer_1" xmlns="http://www.w3.org/2000/svg" xmlns:xlink="http://www.w3.org/1999/xlink" x="0px" y="0px"
	 width="24px" height="24px" viewBox="0 0 24 24" enable-background="new 0 0 24 24" xml:space="preserve">
<path fill="#1E306E" d="M12,1c6.075,0,11,4.925,11,11s-4.925,11-11,11S1,18.075,1,12S5.925,1,12,1z M12,3c-4.971,0-9,4.029-9,9
	s4.029,9,9,9s9-4.029,9-9S16.971,3,12,3z M16.6,13.2c0.442,0.331,0.531,0.958,0.2,1.399c-0.243,0.324-0.669,0.77-1.274,1.209
	C14.507,16.55,13.324,17,12,17c-1.325,0-2.507-0.45-3.526-1.191C7.869,15.369,7.443,14.924,7.2,14.6
	c-0.332-0.441-0.242-1.068,0.2-1.399s1.069-0.242,1.4,0.2c0.132,0.176,0.425,0.48,0.851,0.791C10.351,14.7,11.137,15,12,15
	c0.863,0,1.649-0.3,2.35-0.809c0.319-0.232,0.563-0.463,0.722-0.637L15.2,13.4C15.531,12.958,16.158,12.869,16.6,13.2z M9.01,8
	c0.553,0,1,0.448,1,1c0,0.513-0.386,0.936-0.883,0.993L9,10c-0.552,0-1-0.448-1-1c0-0.513,0.386-0.936,0.883-0.993L9.01,8z M15.01,8
	c0.553,0,1,0.448,1,1c0,0.513-0.386,0.936-0.883,0.993L15,10c-0.553,0-1-0.448-1-1c0-0.513,0.387-0.936,0.883-0.993L15.01,8z"/>
</svg>
