<?xml version="1.0" encoding="utf-8"?>
<!-- Generator: Adobe Illustrator 16.0.0, SVG Export Plug-In . SVG Version: 6.00 Build 0)  -->
<!DOCTYPE svg PUBLIC "-//W3C//DTD SVG 1.1//EN" "http://www.w3.org/Graphics/SVG/1.1/DTD/svg11.dtd">
<svg version="1.1" id="Layer_1" xmlns="http://www.w3.org/2000/svg" xmlns:xlink="http://www.w3.org/1999/xlink" x="0px" y="0px"
	 width="24px" height="24px" viewBox="0 0 24 24" enable-background="new 0 0 24 24" xml:space="preserve">
<path fill="#1E306E" d="M12,1c6.075,0,11,4.925,11,11s-4.925,11-11,11S1,18.075,1,12S5.925,1,12,1z M12,3c-4.971,0-9,4.029-9,9
	s4.029,9,9,9s9-4.029,9-9S16.971,3,12,3z M12.01,16c0.553,0,1,0.447,1,1c0,0.513-0.386,0.936-0.883,0.993L12,18
	c-0.552,0-1-0.447-1-1c0-0.513,0.386-0.936,0.883-0.993L12.01,16z M12.596,6.053c1.923,0.33,3.327,1.998,3.324,3.947
	c0,1.28-0.758,2.291-1.945,3.082c-0.648,0.433-1.286,0.716-1.738,0.867c-0.524,0.174-1.09-0.109-1.265-0.633
	c-0.162-0.486,0.07-1.01,0.524-1.222l0.295-0.114c0.056-0.022,0.12-0.05,0.192-0.082c0.303-0.134,0.605-0.296,0.883-0.48
	c0.688-0.458,1.055-0.948,1.055-1.419c0.002-0.975-0.701-1.81-1.662-1.974c-0.908-0.156-1.797,0.328-2.166,1.158l-0.06,0.15
	C9.85,9.853,9.279,10.126,8.758,9.943S7.963,9.189,8.146,8.668C8.794,6.828,10.674,5.723,12.596,6.053z"/>
</svg>
