<svg xmlns="http://www.w3.org/2000/svg" width="40" height="40" viewBox="0 0 40 40">
    <defs>
        <linearGradient id="heubg5xsya" x1="100%" x2="0%" y1="50%" y2="50%">
            <stop offset="0%" stop-color="#F2F8FF"/>
            <stop offset="100%" stop-color="#D2DFFF"/>
        </linearGradient>
        <linearGradient id="eh13j0zsdb" x1="0%" x2="100%" y1="50%" y2="50%">
            <stop offset="0%" stop-color="#0A3097"/>
            <stop offset="100%" stop-color="#3C81F5"/>
        </linearGradient>
    </defs>
    <g fill="none" fill-rule="evenodd">
        <path fill="url(#heubg5xsya)" d="M29.87 23.867l5.064 5.06c.583.582.583 1.527 0 2.11l-.132.131c-.583.582-1.526.582-2.108 0L27.63 26.11c-.583-.582-.583-1.527 0-2.11l.132-.131c.582-.582 1.526-.582 2.108 0zM11.04 5.055l5.063 5.059c.583.582.583 1.527 0 2.11l-.132.132c-.582.582-1.526.582-2.108 0L8.8 7.296c-.583-.582-.583-1.527 0-2.11l.132-.131c.583-.582 1.526-.582 2.108 0z"/>
        <path fill="url(#eh13j0zsdb)" d="M35.528 9.162l.016-.016L32.4 5.998c-2.17-2.17-5.437-2.62-7.943-1.091-8.388 5.115-14.948 11.681-20.058 20.076-1.531 2.514-1.074 5.69 1.138 7.904l2.943 2.945.042.043.158.16.016-.016c.375.303.833.476 1.323.476.565 0 1.096-.22 1.497-.62l5.059-5.063c.77-.772.81-1.99.141-2.82l.016-.015-.193-.194-.095-.095-.002-.001-3.183-3.186c-.257-.258-.321-.682-.152-1.009 2.24-4.342 5.575-7.68 9.913-9.924.327-.168.738-.103 1 .16l3.193 3.195.12.122c.002 0 .004.002.005.003l.155.155.015-.015c.375.304.834.477 1.322.477.566 0 1.098-.22 1.498-.62l5.059-5.064c.77-.771.81-1.989.14-2.819zM15.69 29.928l-5.058 5.064c-.327.326-.898.326-1.224 0l-.127-.126-.006-.006c-.338-.338-.338-.887 0-1.225l5.059-5.063c.326-.327.896-.327 1.223-.002l.134.134c.336.338.336.886 0 1.224zm6.756-17.47c-4.572 2.364-8.088 5.884-10.45 10.46-.418.81-.263 1.824.378 2.465l1.833 1.836c-.28.1-.542.252-.758.469l-5.06 5.064c-.217.218-.374.473-.476.745L6.42 32.003c-1.796-1.797-2.179-4.357-.954-6.37 5.004-8.219 11.428-14.65 19.64-19.659 2.013-1.226 4.648-.853 6.409.909l1.504 1.505c-.28.1-.542.253-.759.47l-5.058 5.064c-.218.218-.375.473-.477.745l-1.821-1.823c-.642-.643-1.652-.803-2.458-.387zm12.057-1.361l-5.059 5.064c-.326.327-.897.326-1.222.002l-.136-.135c-.337-.338-.336-.886 0-1.223l5.06-5.064c.327-.328.897-.328 1.225 0l.019.019.112.113c.338.337.338.886 0 1.224z" transform="rotate(-90 19.75 20.25)"/>
    </g>
</svg>
