<?xml version="1.0" encoding="utf-8"?>
<!-- Generator: Adobe Illustrator 16.0.0, SVG Export Plug-In . SVG Version: 6.00 Build 0)  -->
<!DOCTYPE svg PUBLIC "-//W3C//DTD SVG 1.1//EN" "http://www.w3.org/Graphics/SVG/1.1/DTD/svg11.dtd">
<svg version="1.1" id="Layer_1" xmlns="http://www.w3.org/2000/svg" xmlns:xlink="http://www.w3.org/1999/xlink" x="0px" y="0px"
	 width="24px" height="24px" viewBox="0 0 24 24" enable-background="new 0 0 24 24" xml:space="preserve">
<path fill="#3F83F6" d="M11,3c0.552,0,1,0.448,1,1c0,0.513-0.386,0.936-0.883,0.993L11,5H4C3.487,5,3.064,5.386,3.007,5.883L3,6v14
	c0,0.513,0.386,0.936,0.883,0.993L4,21h14c0.513,0,0.936-0.387,0.993-0.883L19,20v-7c0-0.552,0.447-1,1-1
	c0.513,0,0.936,0.386,0.993,0.883L21,13v7c0,1.598-1.249,2.904-2.824,2.995L18,23H4c-1.598,0-2.904-1.249-2.995-2.824L1,20V6
	c0-1.598,1.249-2.904,2.824-2.995L4,3H11z M17.793,1.793c1.219-1.219,3.195-1.219,4.414,0c1.219,1.219,1.219,3.195,0,4.414l0,0
	l-9.5,9.5c-0.128,0.129-0.289,0.219-0.464,0.264l0,0l-4,1c-0.732,0.183-1.396-0.48-1.213-1.213l0,0l1-4
	c0.044-0.176,0.135-0.336,0.263-0.464l0,0L17.793,1.793z M20.793,3.207c-0.438-0.438-1.148-0.438-1.586,0l0,0l-9.304,9.304
	l-0.529,2.114l2.114-0.529l9.305-9.303c0.406-0.407,0.436-1.048,0.087-1.488l0,0L20.793,3.207z"/>
</svg>
