<?xml version="1.0" encoding="utf-8"?>
<!-- Generator: Adobe Illustrator 16.0.0, SVG Export Plug-In . SVG Version: 6.00 Build 0)  -->
<!DOCTYPE svg PUBLIC "-//W3C//DTD SVG 1.1//EN" "http://www.w3.org/Graphics/SVG/1.1/DTD/svg11.dtd">
<svg version="1.1" id="Layer_1" xmlns="http://www.w3.org/2000/svg" xmlns:xlink="http://www.w3.org/1999/xlink" x="0px" y="0px"
	 width="24px" height="24px" viewBox="0 0 24 24" enable-background="new 0 0 24 24" xml:space="preserve">
<path fill="#3F83F6" d="M14,1c1.598,0,2.904,1.249,2.995,2.824L17,4v1h4c0.553,0,1,0.448,1,1c0,0.513-0.387,0.936-0.883,0.993L21,7
	h-1v13c0,1.598-1.249,2.904-2.824,2.995L17,23H7c-1.598,0-2.904-1.249-2.995-2.824L4,20V7H3C2.448,7,2,6.552,2,6
	c0-0.513,0.386-0.936,0.883-0.993L3,5h4V4c0-1.598,1.249-2.904,2.824-2.995L10,1H14z M18,7H6v13c0,0.513,0.386,0.936,0.883,0.993
	L7,21h10c0.513,0,0.936-0.387,0.993-0.883L18,20V7z M10,10c0.513,0,0.936,0.386,0.993,0.883L11,11v6c0,0.553-0.448,1-1,1
	c-0.513,0-0.936-0.387-0.993-0.883L9,17v-6C9,10.448,9.448,10,10,10z M14,10c0.513,0,0.936,0.386,0.993,0.883L15,11v6
	c0,0.553-0.447,1-1,1c-0.513,0-0.936-0.387-0.993-0.883L13,17v-6C13,10.448,13.447,10,14,10z M14,3h-4
	C9.487,3,9.064,3.386,9.007,3.883L9,4v1h6V4c0-0.513-0.387-0.936-0.883-0.993L14,3z"/>
</svg>
