<svg xmlns="http://www.w3.org/2000/svg" width="40" height="40" viewBox="0 0 40 40">
  <defs>
    <linearGradient id="40-call-us-a" x1="100%" x2="0%" y1="50%" y2="50%">
      <stop offset="0%" stop-color="#F2F8FF"/>
      <stop offset="100%" stop-color="#D2DFFF"/>
    </linearGradient>
    <linearGradient id="40-call-us-b" x1="0%" y1="50%" y2="50%">
      <stop offset="0%" stop-color="#0A3097"/>
      <stop offset="100%" stop-color="#3C81F5"/>
    </linearGradient>
  </defs>
  <g fill="none" fill-rule="evenodd">
    <path fill="url(#40-call-us-a)" d="M29.87,23.8675 L34.93375,28.92625 C35.516875,29.50875 35.516875,30.45375 34.93375,31.03625 L34.801875,31.168125 C34.219375,31.75 33.27625,31.75 32.69375,31.168125 L27.63,26.109375 C27.046875,25.526875 27.046875,24.581875 27.63,23.999375 L27.761875,23.8675 C28.344375,23.285625 29.2875,23.285625 29.87,23.8675 Z M11.039375,5.055 L16.103125,10.11375 C16.68625,10.69625 16.68625,11.64125 16.103125,12.22375 L15.97125,12.355625 C15.38875,12.9375 14.445,12.9375 13.863125,12.355625 L8.799375,7.296875 C8.21625,6.714375 8.21625,5.769375 8.799375,5.186875 L8.93125,5.055 C9.51375,4.473125 10.456875,4.473125 11.039375,5.055 Z"/>
    <path fill="url(#40-call-us-b)" d="M35.5279429,9.16217865 L35.5441929,9.14592865 L32.3998179,5.99842865 C30.2304429,3.82717865 26.9629429,3.37717865 24.4566929,4.90655365 C16.0691929,10.0215536 9.50856791,16.5884286 4.39919291,24.9828036 C2.86794291,27.4971786 3.32544291,30.6734286 5.53669291,32.8865536 L8.47981791,35.8321786 L8.52169291,35.8746786 C8.52169291,35.8746786 8.52231791,35.8746786 8.52231791,35.8746786 L8.68044291,36.0340536 L8.69606791,36.0190536 C9.07106791,36.3221786 9.52919291,36.4953036 10.0185679,36.4953036 C10.5841929,36.4953036 11.1154429,36.2753036 11.5160679,35.8753036 L16.5748179,30.8115536 C17.3448179,30.0403036 17.3854429,28.8228036 16.7160679,27.9928036 L16.7323179,27.9771786 L16.5385679,27.7834286 L16.4435679,27.6878036 C16.4429429,27.6871786 16.4423179,27.6871786 16.4416929,27.6865536 L13.2585679,24.5009286 C13.0016929,24.2434286 12.9379429,23.8190536 13.1066929,23.4921786 C15.3473179,19.1503036 18.6823179,15.8115536 23.0198179,13.5684286 C23.3466929,13.4003036 23.7579429,13.4653036 24.0191929,13.7271786 L27.2129429,16.9234286 L27.3335679,17.0446786 C27.3348179,17.0459286 27.3366929,17.0465536 27.3379429,17.0478036 L27.4929429,17.2034286 L27.5079429,17.1884286 C27.8829429,17.4915536 28.3416929,17.6653036 28.8304429,17.6653036 C29.3960679,17.6653036 29.9279429,17.4446786 30.3279429,17.0453036 L35.3866929,11.9809286 C36.1573179,11.2096786 36.1979429,9.99217865 35.5279429,9.16217865 Z M15.6904429,29.9278036 L10.6316929,34.9915536 C10.3048179,35.3184286 9.73419291,35.3178036 9.40794291,34.9928036 L9.28106791,34.8659286 L9.27481791,34.8596786 C8.93731791,34.5221786 8.93731791,33.9728036 9.27481791,33.6353036 L14.3335679,28.5715536 C14.6604429,28.2453036 15.2304429,28.2453036 15.5573179,28.5696786 L15.6910679,28.7040536 C16.0273179,29.0415536 16.0273179,29.5903036 15.6904429,29.9278036 Z M22.4460679,12.4571786 C17.8735679,14.8221786 14.3579429,18.3415536 11.9960679,22.9178036 C11.5779429,23.7278036 11.7329429,24.7415536 12.3735679,25.3834286 L14.2073179,27.2190536 C13.9273179,27.3184286 13.6654429,27.4709286 13.4485679,27.6878036 L8.38981791,32.7515536 C8.17169291,32.9703036 8.01544291,33.2253036 7.91294291,33.4971786 L6.42044291,32.0034286 C4.62419291,30.2059286 4.24106791,27.6459286 5.46606791,25.6334286 C10.4698179,17.4140536 16.8941929,10.9834286 25.1066929,5.97405365 C27.1191929,4.74780365 29.7541929,5.12092865 31.5148179,6.88280365 L33.0191929,8.38842865 C32.7391929,8.48780365 32.4773179,8.64092865 32.2604429,8.85780365 L27.2016929,13.9215536 C26.9835679,14.1396786 26.8273179,14.3953036 26.7248179,14.6665536 L24.9035679,12.8440536 C24.2616929,12.2009286 23.2523179,12.0409286 22.4460679,12.4571786 Z M34.5029429,11.0965536 L29.4441929,16.1609286 C29.1179429,16.4884286 28.5466929,16.4865536 28.2216929,16.1634286 L28.0860679,16.0278036 C27.7491929,15.6903036 27.7498179,15.1421786 28.0866929,14.8046786 L33.1454429,9.74092865 C33.4729429,9.41280365 34.0429429,9.41280365 34.3710679,9.74092865 L34.3898179,9.75967865 L34.5023179,9.87280365 C34.8404429,10.2103036 34.8404429,10.7590536 34.5029429,11.0965536 Z" transform="rotate(-90 19.75 20.25)"/>
  </g>
</svg>
