<?xml version="1.0" encoding="utf-8"?>
<!-- Generator: Adobe Illustrator 16.0.0, SVG Export Plug-In . SVG Version: 6.00 Build 0)  -->
<!DOCTYPE svg PUBLIC "-//W3C//DTD SVG 1.1//EN" "http://www.w3.org/Graphics/SVG/1.1/DTD/svg11.dtd">
<svg version="1.1" id="Layer_1" xmlns="http://www.w3.org/2000/svg" xmlns:xlink="http://www.w3.org/1999/xlink" x="0px" y="0px"
	 width="24px" height="24px" viewBox="0 0 24 24" enable-background="new 0 0 24 24" xml:space="preserve">
<path fill="#1E306E" d="M20,3c1.652,0,3,1.348,3,3l0,0v12c0,1.652-1.348,3-3,3l0,0H4c-1.652,0-3-1.348-3-3l0,0V6
	c0-1.652,1.348-3,3-3l0,0H20z M21,7.92l-8.427,5.899c-0.306,0.214-0.702,0.237-1.028,0.071l-0.119-0.071L3,7.921V18
	c0,0.509,0.39,0.936,0.884,0.993L4,19h16c0.548,0,1-0.452,1-1l0,0V7.92z M20,5H4C3.612,5,3.272,5.227,3.106,5.554L12,11.779
	l8.894-6.225C20.729,5.227,20.389,5,20,5L20,5z"/>
</svg>
