<?xml version="1.0" encoding="utf-8"?>
<!-- Generator: Adobe Illustrator 16.0.0, SVG Export Plug-In . SVG Version: 6.00 Build 0)  -->
<!DOCTYPE svg PUBLIC "-//W3C//DTD SVG 1.1//EN" "http://www.w3.org/Graphics/SVG/1.1/DTD/svg11.dtd">
<svg version="1.1" id="Layer_1" xmlns="http://www.w3.org/2000/svg" xmlns:xlink="http://www.w3.org/1999/xlink" x="0px" y="0px"
	 width="24px" height="24px" viewBox="0 0 24 24" enable-background="new 0 0 24 24" xml:space="preserve">
<path fill="#1E306E" d="M12,1c6.075,0,11,4.925,11,11s-4.925,11-11,11S1,18.075,1,12S5.925,1,12,1z M12,3c-4.971,0-9,4.029-9,9
	s4.029,9,9,9s9-4.029,9-9S16.971,3,12,3z M12,5c0.513,0,0.936,0.386,0.993,0.883L13,6v5.382l3.447,1.724
	c0.459,0.229,0.664,0.764,0.493,1.234l-0.046,0.107c-0.229,0.459-0.764,0.664-1.234,0.493l-0.107-0.046l-4-2
	c-0.301-0.15-0.503-0.441-0.545-0.77L11,12V6C11,5.448,11.448,5,12,5z"/>
</svg>
