<svg xmlns="http://www.w3.org/2000/svg" width="40" height="40" viewBox="0 0 40 40">
    <defs>
        <linearGradient id="cs3u42f86a" x1="100%" x2="0%" y1="50%" y2="50%">
            <stop offset="0%" stop-color="#F2F8FF"/>
            <stop offset="100%" stop-color="#D2DFFF"/>
        </linearGradient>
        <linearGradient id="v4g9fy21qb" x1="0%" x2="100%" y1="50%" y2="50%">
            <stop offset="0%" stop-color="#0A3097"/>
            <stop offset="100%" stop-color="#3C81F5"/>
        </linearGradient>
        <linearGradient id="zw021s84jc" x1="100%" x2="0%" y1="50%" y2="50%">
            <stop offset="0%" stop-color="#F2F8FF"/>
            <stop offset="100%" stop-color="#D2DFFF"/>
        </linearGradient>
    </defs>
    <g fill="none" fill-rule="evenodd">
        <path fill="url(#cs3u42f86a)" d="M1.2 9.443L19.987 1.741 38.808 9.443 20.005 16.29z"/>
        <path fill="url(#v4g9fy21qb)" d="M34.873 23.173l.086.027 4.225 1.731c.403.165.662.562.654.998-.006.291-.131.56-.337.752l-.001 5.05c0 .21-.13.398-.328.47l-19 6.969c-.111.04-.233.04-.344 0l-19-6.969c-.197-.072-.328-.26-.328-.47l-.001-5.058c-.2-.19-.323-.457-.33-.745-.006-.392.203-.752.54-.94l.116-.057 4.184-1.718c.255-.105.547.017.652.273.094.227.007.483-.192.61l-.08.042-4.184 1.718c-.022.008-.035.03-.035.052 0 .015.007.03.018.04l.018.011 18.78 6.847.019.004.018-.004 18.779-6.846c.021-.008.036-.028.036-.051 0-.015-.005-.03-.016-.04l-.018-.013-4.224-1.73c-.256-.106-.378-.398-.273-.653.093-.227.334-.35.566-.3zm-1.326-4.988l.086.028 3.854 1.648c.375.171.613.55.605.962-.007.372-.212.707-.54.889l-.114.055-17.082 6.497c-.181.07-.377.083-.564.042l-.138-.041L2.558 21.76c-.382-.157-.634-.525-.642-.938-.007-.372.185-.715.505-.908l.111-.06 3.807-1.63c.253-.108.547.01.656.263.097.226.015.483-.183.614l-.08.043-3.795 1.625c-.013.006-.022.02-.021.034l.004.019.006.009 17.077 6.495 17.067-6.49c.007-.003.012-.007.016-.013l.007-.02-.005-.019-.006-.01-3.842-1.642c-.254-.109-.372-.403-.263-.657.096-.225.339-.344.57-.29zm0-5.48l.086.029 3.854 1.648c.375.17.613.549.605.962-.007.371-.212.707-.54.889l-.114.054-17.082 6.498c-.181.07-.377.083-.564.042l-.138-.042-17.096-6.503c-.382-.157-.634-.526-.642-.939-.007-.371.185-.714.505-.908l.111-.059 3.807-1.63c.253-.109.547.01.656.263.097.226.015.483-.183.614l-.08.042-3.795 1.626c-.013.006-.022.02-.021.033l.004.02.006.008 17.078 6.496 17.066-6.49c.007-.003.012-.008.016-.014l.007-.019-.005-.02-.006-.009-3.842-1.643c-.254-.108-.372-.402-.263-.656.096-.226.339-.344.57-.291zm-13.56-11.52c.072 0 .144.014.21.042L39.02 8.929c.212.087.35.296.345.525-.005.23-.15.433-.366.511l-18.803 6.847c-.123.045-.258.045-.38 0L1.01 9.965c-.216-.079-.36-.282-.366-.51-.004-.23.133-.439.345-.526l18.787-7.702c.067-.028.139-.042.211-.042zm0 1.156L2.74 9.412 20.005 15.7l17.263-6.286-17.28-7.072zm-.489 10.104c.307 0 .556.249.556.556 0 .306-.249.555-.556.555-.307 0-.555-.249-.555-.555 0-.307.248-.556.555-.556zm-3.647-1.35c.307 0 .556.248.556.555 0 .307-.249.555-.556.555-.306 0-.555-.248-.555-.555 0-.307.249-.556.555-.556zm9.287-.767c.307 0 .556.249.556.556 0 .307-.25.555-.556.555-.307 0-.556-.248-.556-.555 0-.307.25-.556.556-.556zm-12.933-.585c.307 0 .555.25.555.556 0 .307-.248.555-.555.555-.307 0-.556-.248-.556-.555 0-.307.249-.556.556-.556zm9.286-.766c.307 0 .556.25.556.556 0 .307-.249.555-.556.555-.307 0-.555-.248-.555-.555 0-.307.248-.556.555-.556zM8.558 8.393c.307 0 .556.248.556.555 0 .307-.25.556-.556.556-.307 0-.556-.25-.556-.556 0-.307.25-.555.556-.555zm22.22-.182c.307 0 .555.25.555.556 0 .307-.248.555-.555.555-.307 0-.556-.248-.556-.555 0-.307.249-.556.556-.556zm-12.933-.584c.306 0 .555.248.555.555 0 .307-.249.556-.555.556-.307 0-.556-.25-.556-.556 0-.307.249-.555.556-.555zm9.286-.766c.307 0 .556.248.556.555 0 .307-.25.556-.556.556-.307 0-.556-.25-.556-.556 0-.307.25-.555.556-.555zm-12.933-.585c.307 0 .555.248.555.555 0 .307-.248.556-.555.556-.307 0-.556-.249-.556-.556 0-.307.249-.555.556-.555zm9.286-.766c.307 0 .556.248.556.555 0 .307-.249.556-.556.556-.307 0-.555-.249-.555-.556 0-.307.248-.555.555-.555zm-3.646-1.351c.306 0 .555.249.555.555 0 .307-.249.556-.555.556-.307 0-.556-.249-.556-.556 0-.306.249-.555.556-.555z"/>
        <path fill="url(#zw021s84jc)" d="M38.5 27.2v4.166L20 38.152 1.5 31.366v-4.165l18.328 6.722c.111.041.233.041.344 0L38.5 27.2z"/>
    </g>
</svg>
