<svg xmlns="http://www.w3.org/2000/svg" width="64" height="64" viewBox="0 0 64 64">
    <defs>
        <linearGradient id="nji24hq7ma" x1="0%" x2="100%" y1="50%" y2="50%">
            <stop offset="0%" stop-color="#0A3097"/>
            <stop offset="100%" stop-color="#3C81F5"/>
        </linearGradient>
        <linearGradient id="r83cbc8vfb" x1="100%" x2="0%" y1="50%" y2="50%">
            <stop offset="0%" stop-color="#F2F8FF"/>
            <stop offset="100%" stop-color="#D2DFFF"/>
        </linearGradient>
        <linearGradient id="i2qwsnvozc" x1="0%" x2="100%" y1="50%" y2="50%">
            <stop offset="0%" stop-color="#0A3097"/>
            <stop offset="100%" stop-color="#3C81F5"/>
        </linearGradient>
    </defs>
    <g fill="none" fill-rule="evenodd">
        <path fill="url(#nji24hq7ma)" d="M55 3.2c.552 0 1 .448 1 1v18.2h.141c.806 0 1.459.716 1.459 1.6v3.2c0 .884-.653 1.6-1.459 1.6L56 28.799V59.8c0 .552-.448 1-1 1H10.6c-.552 0-1-.448-1-1V28.799l-.141.001C8.653 28.8 8 28.084 8 27.2V24c0-.884.653-1.6 1.459-1.6H9.6V4.2c0-.552.448-1 1-1H55z"/>
        <path fill="url(#r83cbc8vfb)" d="M11.2 28.8H54.400000000000006V59.2H11.2z"/>
        <path fill="#FFF" d="M11.2 4.8H54.400000000000006V22.400000000000002H11.2zM56 24L9.6 24 9.6 27.2 56 27.2z"/>
        <path fill="url(#i2qwsnvozc)" d="M31 8c.552 0 1 .448 1 1v9.2c0 .552-.448 1-1 1H13.8c-.552 0-1-.448-1-1V9c0-.552.448-1 1-1H31zm20.8 0c.552 0 1 .448 1 1v9.2c0 .552-.448 1-1 1H34.6c-.552 0-1-.448-1-1V9c0-.552.448-1 1-1h17.2z"/>
        <path fill="#FFF" d="M14.4 9.6H30.4V17.6H14.4z"/>
        <path fill="#FFF" d="M1.6 1.6H17.6V9.6H1.6z" transform="translate(33.6 8)"/>
    </g>
</svg>
