<?xml version="1.0" encoding="utf-8"?>
<!-- Generator: Adobe Illustrator 23.0.1, SVG Export Plug-In . SVG Version: 6.00 Build 0)  -->
<svg version="1.1" id="Layer_1" xmlns="http://www.w3.org/2000/svg" xmlns:xlink="http://www.w3.org/1999/xlink" x="0px" y="0px"
	 viewBox="0 0 24 24" style="enable-background:new 0 0 24 24;" xml:space="preserve">
<style type="text/css">
	.st0{fill:#1E306E;}
</style>
<g>
	<path class="st0" d="M22.7,4.3l0-0.1l-0.1,0l-0.3-0.1C15.6,2.1,12.1,0,12.1,0L12-0.1L11.9,0l0,0C11.7,0.1,8.2,2.2,1.4,4.2l-0.1,0
		l0,0.1l0,0c0,0.2-0.5,3.7,0.5,7.8c1,3.9,3.5,9.1,10.2,11.7l0.1,0l0.1,0l0.3-0.1c6.5-2.7,8.9-7.8,9.9-11.6C23.3,8,22.7,4.4,22.7,4.3
		z M14,20.3c-0.5,0.4-1.2,0.8-1.9,1.1c0,0-0.1,0-0.1,0c0,0,0,0,0,0c0,0,0,0,0,0c0,0-0.1,0-0.1,0c-0.7-0.3-1.3-0.7-1.9-1.1
		C3.1,15.6,3.9,7,4,5.9c5-1.5,7.4-3,8-3.4c0.5,0.4,2.9,1.9,8,3.4C20.1,7,21,15.6,14,20.3z"/>
	<path class="st0" d="M16.9,8.9c-0.3,0-0.6,0.2-0.6,0.6c0,0,0,0.1,0,0.1l-1.6,2.2c0-1.1,0-2.5,0-2.9c0.2-0.1,0.3-0.3,0.3-0.5
		c0-0.3-0.2-0.6-0.6-0.6c-0.3,0-0.6,0.2-0.6,0.6c0,0.1,0,0.2,0.1,0.3c-0.1,0.2-0.3,0.7-1,2.5l-0.6-3.2c0.1-0.1,0.2-0.2,0.2-0.4
		C12.6,7.2,12.3,7,12,7h0c-0.3,0-0.6,0.2-0.6,0.6c0,0.1,0.1,0.3,0.2,0.4L11,11.2c-0.4-1-0.9-2.2-1-2.5C10,8.6,10,8.5,10,8.4
		c0-0.3-0.2-0.6-0.6-0.6c-0.3,0-0.6,0.2-0.6,0.6c0,0.2,0.1,0.4,0.3,0.5l0,0.2c0,0.6,0,1.8,0,2.6L7.6,9.6c0,0,0-0.1,0-0.1
		c0-0.3-0.2-0.6-0.6-0.6c-0.3,0-0.6,0.2-0.6,0.6c0,0.2,0.2,0.5,0.4,0.5c0.5,1.2,1.5,4.5,1.5,4.6l0,0.1l0.1,0c0,0,2.1-0.3,3.4-0.3
		c1.3,0,3.4,0.3,3.4,0.3l0.1,0l0-0.1c0,0,1-3.4,1.5-4.6c0.2-0.1,0.4-0.3,0.4-0.5C17.5,9.1,17.2,8.9,16.9,8.9z"/>
</g>
</svg>
