<?xml version="1.0" encoding="utf-8"?>
<!-- Generator: Adobe Illustrator 16.0.0, SVG Export Plug-In . SVG Version: 6.00 Build 0)  -->
<!DOCTYPE svg PUBLIC "-//W3C//DTD SVG 1.1//EN" "http://www.w3.org/Graphics/SVG/1.1/DTD/svg11.dtd">
<svg version="1.1" id="Layer_1" xmlns="http://www.w3.org/2000/svg" xmlns:xlink="http://www.w3.org/1999/xlink" x="0px" y="0px"
	 width="24px" height="24px" viewBox="0 0 24 24" enable-background="new 0 0 24 24" xml:space="preserve">
<path fill="#1E306E" d="M16,2c0.552,0,1,0.448,1,1v4h3c0.221,0,0.434,0.073,0.607,0.206l0.101,0.087l3,3
	C23.895,10.48,24,10.735,24,11v5c0,0.552-0.448,1-1,1h-1.337C21.879,17.455,22,17.963,22,18.5c0,1.934-1.566,3.5-3.5,3.5
	S15,20.434,15,18.5c0-0.537,0.12-1.045,0.337-1.5H8.663C8.879,17.455,9,17.963,9,18.5C9,20.434,7.433,22,5.5,22S2,20.434,2,18.5
	c0-0.537,0.12-1.045,0.337-1.5H1c-0.552,0-1-0.448-1-1V3c0-0.552,0.448-1,1-1H16z M5.5,17C4.672,17,4,17.672,4,18.5S4.672,20,5.5,20
	S7,19.328,7,18.5S6.328,17,5.5,17z M18.5,17c-0.828,0-1.5,0.672-1.5,1.5s0.672,1.5,1.5,1.5s1.5-0.672,1.5-1.5S19.328,17,18.5,17z
	 M15,4H2v11h13V4z M19.585,9H17v6h5v-3.585L19.585,9z"/>
</svg>
