<?xml version="1.0" encoding="utf-8"?>
<!-- Generator: Adobe Illustrator 16.0.0, SVG Export Plug-In . SVG Version: 6.00 Build 0)  -->
<!DOCTYPE svg PUBLIC "-//W3C//DTD SVG 1.1//EN" "http://www.w3.org/Graphics/SVG/1.1/DTD/svg11.dtd">
<svg version="1.1" id="Layer_1" xmlns="http://www.w3.org/2000/svg" xmlns:xlink="http://www.w3.org/1999/xlink" x="0px" y="0px"
	 width="24px" height="24px" viewBox="0 0 24 24" enable-background="new 0 0 24 24" xml:space="preserve">
<g>
	<g>
		<g>
			<g>
				<path fill="#3C81F5" d="M18.4,8.526c-0.471,0.225-0.978,0.377-1.508,0.445c0.543-0.35,0.959-0.904,1.154-1.564
					c-0.508,0.324-1.07,0.56-1.669,0.685C15.9,7.543,15.218,7.2,14.462,7.2c-1.45,0-2.625,1.266-2.625,2.827
					c0,0.222,0.022,0.437,0.067,0.644c-2.182-0.118-4.117-1.242-5.413-2.955c-0.226,0.42-0.355,0.905-0.355,1.423
					c0,0.98,0.463,1.846,1.168,2.353c-0.43-0.013-0.835-0.142-1.19-0.352v0.034c0,1.37,0.905,2.514,2.107,2.773
					c-0.22,0.066-0.452,0.1-0.692,0.1c-0.169,0-0.334-0.018-0.494-0.051c0.334,1.123,1.304,1.939,2.453,1.963
					c-0.899,0.758-2.032,1.21-3.261,1.21c-0.212,0-0.422-0.012-0.627-0.038c1.162,0.801,2.543,1.27,4.025,1.27
					c4.831,0,7.473-4.309,7.473-8.044c0-0.123-0.002-0.246-0.008-0.367C17.604,9.59,18.05,9.093,18.4,8.526"/>
			</g>
		</g>
	</g>
</g>
</svg>
