<svg xmlns="http://www.w3.org/2000/svg" width="100" height="100" viewBox="0 0 100 100">
    <defs>
        <linearGradient id="8zc5xobvua" x1="0%" x2="100%" y1="50%" y2="50%">
            <stop offset="0%" stop-color="#0A3097"/>
            <stop offset="100%" stop-color="#3C81F5"/>
        </linearGradient>
    </defs>
    <g fill="none" fill-rule="evenodd">
        <g fill="url(#8zc5xobvua)" transform="translate(-864 -260)">
            <g>
                <g>
                    <g>
                        <path d="M76.175 29.422c.257.641-.055 1.369-.696 1.625-1.974.79-3.802 1.775-5.483 2.957l11.45 4.164c1.298.472 1.967 1.906 1.495 3.204l-.118.274-.151.258-3.55 5.322 3.05 3.05c.19.19.348.41.469.65.573 1.147.182 2.523-.865 3.209l-.253.145-2.759 1.378v20.986c0 .854-.435 1.644-1.146 2.102l-.156.093L51.16 93.185c-.632.345-1.38.399-2.05.155l-.182-.074L22.73 81.357c-.837-.38-1.392-1.186-1.459-2.093l-.006-.183-.001-22.173-4.882-2.44c-.389-.195-.72-.488-.962-.85-.711-1.066-.494-2.481.46-3.29l.234-.177 4.667-3.112-3.424-5.135c-.765-1.149-.455-2.701.694-3.467l.258-.15.274-.12 17.088-6.214c-.435-.375-.885-.717-1.35-1.027-.574-.383-.73-1.159-.346-1.733.383-.574 1.159-.73 1.733-.347.922.615 1.788 1.331 2.6 2.149l5.357-1.948c.985-.358 2.076-.062 2.746.715l.188.248 3.415 5.122 3.416-5.122c.581-.872 1.636-1.28 2.636-1.05l.299.087 10.824 3.936c2.2-1.754 4.654-3.174 7.361-4.257.641-.257 1.369.055 1.625.696zm.089 27.486L58.88 65.601c-.867.434-1.895.324-2.647-.257l-.24-.21-4.729-4.73v14.482c0 .69-.559 1.25-1.25 1.25-.613 0-1.123-.442-1.23-1.025l-.02-.225V59.887l-7.381 5.536c-.674.505-1.55.633-2.33.358l-.288-.122-15.001-7.501v20.923l26.2 11.91 26.3-14.347V56.908zm-26.25 25.478c.691 0 1.25.56 1.25 1.25s-.559 1.25-1.25 1.25c-.69 0-1.25-.56-1.25-1.25s.56-1.25 1.25-1.25zm0-5c.691 0 1.25.56 1.25 1.25s-.559 1.25-1.25 1.25c-.69 0-1.25-.56-1.25-1.25s.56-1.25 1.25-1.25zm-26.25-28.215v6.192l16.119 8.06 7.534-5.651-23.653-8.601zm52.5 0L52.286 57.89l5.475 5.475 18.503-9.252v-4.942zm-26.25-10.457l-5.94 2.16c.904 2.597 1.628 5.533 2.174 8.807.113.68-.347 1.325-1.028 1.438-.68.114-1.325-.346-1.438-1.027-.523-3.136-1.21-5.923-2.057-8.365l-15.558 5.657 23.848 8.672 23.846-8.672-11.958-4.348c-1.247 2.167-2.314 4.581-3.202 7.246-.219.655-.927 1.008-1.582.79-.655-.218-1.008-.926-.79-1.581.888-2.666 1.953-5.107 3.192-7.321l-9.506-3.456zm-28.75 11.008l-3.764 2.51 3.764 1.881v-4.391zm57.5.681v2.46l1.64-.82-1.64-1.64zM67.693 35.827c-1.642 1.458-3.118 3.14-4.429 5.047l13.754 5.001 3.574-5.358-12.9-4.69zM37.58 33.919l-18.142 6.598 3.571 5.358 17.813-6.477c-.93-2.153-2.011-3.978-3.242-5.48zm17.93-2.522l-3.573 5.358 8.907 3.239c1.254-1.903 2.658-3.613 4.21-5.127l-9.544-3.47zm-10.99 0l-4.467 1.623c1.184 1.575 2.224 3.416 3.122 5.523l4.916-1.788-3.572-5.358zM36.226 8.252c.06.14.095.29.102.443l.332 7.528 4.99 5.645c.457.517.408 1.307-.109 1.764-.114.102-.246.18-.39.235l-5.4 2.021c-1.071.401-1.973 1.158-2.554 2.143L30.269 33c-.35.594-1.117.792-1.711.442-.132-.078-.248-.179-.343-.299l-4.693-5.894-7.356-1.634c-.674-.15-1.099-.818-.95-1.492.034-.149.094-.29.179-.418l4.156-6.285-.72-7.5c-.065-.687.438-1.298 1.126-1.364.152-.014.305 0 .452.04l7.262 2.01 6.911-3.001c.633-.275 1.37.015 1.645.648zm-2.318 2.367l-5.242 2.28c-.42.182-.88.245-1.329.184l-.334-.068-5.513-1.529.548 5.695c.044.455-.038.912-.235 1.32l-.168.297-3.157 4.768 5.585 1.241c.446.1.855.319 1.183.632l.23.251 3.56 4.473 2.007-3.401c.775-1.314 1.93-2.357 3.306-2.995l.526-.22 3.696-1.385-3.785-4.284c-.303-.342-.504-.76-.586-1.206l-.038-.34-.254-5.713zm47.356 16.767c.69 0 1.25.56 1.25 1.25s-.56 1.25-1.25 1.25-1.25-.56-1.25-1.25.56-1.25 1.25-1.25zM46.728 13.53l.074.213 2.601 10.434c.167.67-.24 1.348-.91 1.515-.596.148-1.198-.157-1.442-.697l-.074-.214-2.6-10.433c-.168-.67.24-1.348.91-1.515.595-.149 1.197.157 1.441.697zm19.17 2.973c.434.434.483 1.108.145 1.595l-.144.173-5 5c-.489.488-1.28.488-1.768 0-.434-.434-.482-1.107-.145-1.594l.145-.174 5-5c.488-.488 1.28-.488 1.768 0z" transform="translate(247 80) translate(487 80) translate(130 100)"/>
                    </g>
                </g>
            </g>
        </g>
    </g>
</svg>
