<?xml version="1.0" encoding="utf-8"?>
<!-- Generator: Adobe Illustrator 16.0.0, SVG Export Plug-In . SVG Version: 6.00 Build 0)  -->
<!DOCTYPE svg PUBLIC "-//W3C//DTD SVG 1.1//EN" "http://www.w3.org/Graphics/SVG/1.1/DTD/svg11.dtd">
<svg version="1.1" id="Layer_1" xmlns="http://www.w3.org/2000/svg" xmlns:xlink="http://www.w3.org/1999/xlink" x="0px" y="0px"
	 width="16px" height="16px" viewBox="0 0 16 16" enable-background="new 0 0 16 16" xml:space="preserve">
<g>
	<g>
		<g>
			<g>
				<g>
					<path fill="#1E306E" d="M10.667,0.667c0.342,0,0.623,0.257,0.662,0.589l0.004,0.077V2h1.334c1.054,0,1.918,0.816,1.994,1.85
						L14.667,4v9.333c0,1.104-0.896,2-2,2H3.333c-1.104,0-2-0.896-2-2V4c0-1.105,0.896-2,2-2h1.333V1.333
						c0-0.368,0.3-0.666,0.667-0.666c0.342,0,0.624,0.257,0.663,0.589L6,1.333V2h4V1.333C10,0.965,10.298,0.667,10.667,0.667z
						 M13.333,7.333H2.666v6c0,0.335,0.247,0.612,0.569,0.66L3.333,14h9.334c0.368,0,0.666-0.298,0.666-0.667V7.333z M4.666,3.333
						H3.333C2.965,3.333,2.667,3.632,2.667,4v2h10.666V4c0-0.335-0.246-0.612-0.567-0.66l-0.099-0.007h-1.334V4
						c0,0.368-0.298,0.667-0.666,0.667c-0.342,0-0.624-0.258-0.663-0.59L10,4V3.333H6V4c0,0.368-0.298,0.667-0.667,0.667
						c-0.342,0-0.623-0.258-0.662-0.59L4.667,4L4.666,3.333L4.666,3.333z"/>
				</g>
			</g>
		</g>
	</g>
</g>
</svg>
