<svg xmlns="http://www.w3.org/2000/svg" width="64" height="64" viewBox="0 0 64 64">
    <defs>
        <linearGradient id="ugob4d2pra" x1="0%" x2="100%" y1="50%" y2="50%">
            <stop offset="0%" stop-color="#0A3097"/>
            <stop offset="100%" stop-color="#3C81F5"/>
        </linearGradient>
    </defs>
    <g fill="none" fill-rule="evenodd">
        <g fill="url(#ugob4d2pra)" transform="translate(-298 -1030)">
            <g>
                <g>
                    <path d="M48.752 18.83c.164.41-.035.876-.445 1.04-1.264.505-2.433 1.136-3.51 1.892l7.329 2.665c.83.302 1.258 1.22.956 2.05l-.076.176-.096.166-2.271 3.406 1.951 1.952c.122.121.223.262.3.416.367.733.117 1.615-.554 2.053l-.162.093-1.765.882v13.431c0 .537-.268 1.034-.71 1.33l-.123.075-16.833 9.181c-.392.214-.854.253-1.273.113l-.155-.06-16.768-7.622c-.527-.24-.88-.744-.931-1.313l-.007-.144V36.421l-3.124-1.562c-.25-.124-.462-.312-.616-.543-.455-.683-.316-1.588.294-2.107l.15-.112 2.986-1.992-2.19-3.286c-.49-.736-.292-1.73.444-2.22l.165-.096.175-.076L22.83 20.45c-.279-.24-.567-.459-.864-.657-.368-.245-.467-.742-.222-1.11.245-.367.742-.466 1.11-.221.59.393 1.144.851 1.663 1.374l3.428-1.246c.63-.229 1.33-.04 1.758.458l.12.158 2.186 3.278 2.186-3.278c.372-.558 1.047-.819 1.688-.672l.19.056 6.928 2.52c1.408-1.124 2.979-2.033 4.711-2.726.41-.164.876.036 1.04.446zm.057 17.591l-11.126 5.564c-.554.277-1.213.207-1.694-.165l-.153-.135-3.027-3.027v9.27c0 .441-.358.8-.8.8-.392 0-.719-.284-.787-.657l-.013-.144v-9.6l-4.724 3.544c-.431.323-.991.405-1.491.229l-.185-.078-9.6-4.801v13.391l16.768 7.622 16.832-9.182V36.421zm-16.8 16.306c.442 0 .8.358.8.8 0 .442-.358.8-.8.8-.441 0-.8-.358-.8-.8 0-.442.359-.8.8-.8zm0-3.2c.442 0 .8.358.8.8 0 .442-.358.8-.8.8-.441 0-.8-.358-.8-.8 0-.442.359-.8.8-.8zM15.21 31.47v3.963l10.316 5.158 4.822-3.617-15.138-5.504zm33.6-.001l-15.346 5.58 3.504 3.505 11.842-5.922v-3.163zm-16.8-6.692l-3.802 1.382c.58 1.662 1.042 3.542 1.392 5.637.072.436-.222.848-.658.92-.436.073-.848-.221-.92-.657-.335-2.007-.775-3.791-1.317-5.354l-9.957 3.621 15.262 5.55 15.262-5.55-7.653-2.783c-.798 1.386-1.481 2.932-2.05 4.637-.14.42-.592.646-1.012.506-.419-.14-.645-.593-.506-1.012.57-1.706 1.25-3.268 2.044-4.685l-6.085-2.212zm-18.4 7.045L11.2 33.428l2.409 1.205v-2.811zm36.8.437v1.573l1.05-.524-1.05-1.049zM24.051 21.707L12.44 25.931l2.286 3.429 11.4-4.144c-.595-1.379-1.287-2.548-2.075-3.509zm19.273 1.222c-1.05.933-1.995 2.01-2.835 3.23l8.803 3.201 2.287-3.429-8.255-3.002zm-7.798-2.835l-2.286 3.429 5.7 2.073c.803-1.218 1.702-2.313 2.696-3.282l-6.11-2.22zm-7.034 0l-2.858 1.039c.758 1.008 1.423 2.186 1.998 3.534l3.146-1.143-2.286-3.43zM23.185 5.282c.039.09.061.185.065.283l.213 4.818 3.194 3.613c.292.33.261.836-.07 1.129-.073.065-.158.115-.25.15l-3.456 1.293c-.685.257-1.262.741-1.634 1.372l-1.875 3.18c-.224.38-.715.506-1.095.282-.084-.05-.159-.114-.22-.19l-3.003-3.774-4.708-1.045c-.431-.096-.703-.523-.607-.955.021-.095.06-.186.114-.267l2.66-4.023-.46-4.8c-.043-.44.28-.83.72-.873.097-.009.195 0 .289.026l4.647 1.286 4.423-1.92c.406-.177.877.01 1.053.415zm-1.483 1.514l-3.355 1.459c-.269.117-.563.157-.85.118l-.215-.044-3.528-.978.351 3.645c.028.291-.025.583-.15.845l-.108.19-2.02 3.051 3.574.795c.286.063.547.203.757.404l.148.16 2.278 2.863 1.284-2.177c.496-.84 1.235-1.508 2.116-1.916l.336-.141 2.366-.886-2.422-2.742c-.194-.22-.323-.487-.375-.772l-.025-.217-.162-3.657zm30.307 10.731c.442 0 .8.358.8.8 0 .442-.358.8-.8.8-.441 0-.8-.358-.8-.8 0-.442.359-.8.8-.8zM29.906 8.66l.047.136 1.665 6.677c.107.43-.154.863-.583.97-.38.095-.766-.1-.922-.446l-.047-.136L28.4 9.182c-.107-.429.154-.863.582-.97.381-.095.767.1.923.447zm12.27 1.903c.277.277.308.708.092 1.02l-.093.11-3.2 3.2c-.312.313-.819.313-1.131 0-.278-.277-.309-.708-.093-1.02l.093-.11 3.2-3.2c.312-.313.819-.313 1.131 0z" transform="translate(150 1010) translate(148 20)"/>
                </g>
            </g>
        </g>
    </g>
</svg>
