<?xml version="1.0" encoding="utf-8"?>
<!-- Generator: Adobe Illustrator 23.0.1, SVG Export Plug-In . SVG Version: 6.00 Build 0)  -->
<svg version="1.1" id="Layer_1" xmlns="http://www.w3.org/2000/svg" xmlns:xlink="http://www.w3.org/1999/xlink" x="0px" y="0px"
	 viewBox="0 0 20 22" style="enable-background:new 0 0 20 22;" xml:space="preserve">
<style type="text/css">
	.st0{fill:#5179BD;}
</style>
<g>
	<path class="st0" d="M7.7,9h0.7C8.7,9,9,9.3,9,9.7v6.5c0,0.4-0.3,0.7-0.7,0.7H7.7c-0.4,0-0.7-0.3-0.7-0.7V9.7C7,9.3,7.3,9,7.7,9z"
		/>
	<path class="st0" d="M11.5,9h0.7c0.4,0,0.6,0.3,0.6,0.6v6.5c0,0.4-0.3,0.6-0.6,0.6h-0.7c-0.4,0-0.6-0.3-0.6-0.6V9.6
		C10.9,9.3,11.2,9,11.5,9z"/>
	<path class="st0" d="M14.9,4c0-0.2,0.1-0.3,0.1-0.4V1.9c0-0.9-0.7-1.6-1.6-1.6H6.8C5.8,0.2,5.1,1,5.1,1.9v1.7
		c0,0.2,0.1,0.3,0.2,0.4H0.7C0.4,4,0.1,4.3,0.1,4.6v1c0,0.3,0.3,0.6,0.6,0.6h1.5v13.6c0,1.1,0.9,2,2,2h11.6c1.1,0,2.1-0.9,2.1-2.1
		V6.1h1.4c0.3,0,0.6-0.2,0.6-0.6v-1c0-0.3-0.2-0.6-0.6-0.6H14.9z M7,2.1h5.9V4H7V2.1z M15.9,20H4.1V6.1h11.8V20z"/>
</g>
</svg>
