<svg xmlns="http://www.w3.org/2000/svg" width="40" height="40" viewBox="0 0 40 40">
    <defs>
        <linearGradient id="prefix__a" x1="100%" x2="0%" y1="50%" y2="50%">
            <stop offset="0%" stop-color="#F2F8FF"/>
            <stop offset="100%" stop-color="#D2DFFF"/>
        </linearGradient>
        <linearGradient id="prefix__b" x1="0%" x2="100%" y1="50%" y2="50%">
            <stop offset="0%" stop-color="#0A3097"/>
            <stop offset="100%" stop-color="#3C81F5"/>
        </linearGradient>
    </defs>
    <g fill="none" fill-rule="evenodd">
        <path fill="url(#prefix__a)" d="M18.844 22.25h3.75c3.687 0 7.187 1.469 9.812 4.063V22.25c2.25 0 4.063-1.813 4.063-4.063v-8.093c0-2.25-1.813-4.063-4.063-4.063H18.844c-2.25 0-4.063 1.813-4.063 4.063v8.094c0 2.25 1.813 4.062 4.063 4.062z"/>
        <path fill="#FFF" d="M21.531 29.281h-3.75c-3.687 0-7.187 1.469-9.812 4.063V29.28c-2.25 0-4.063-1.812-4.063-4.062v-8.094c0-2.25 1.813-4.063 4.063-4.063H21.5c2.25 0 4.063 1.813 4.063 4.063v8.094c.03 2.25-1.782 4.062-4.032 4.062"/>
        <path fill="url(#prefix__b)" d="M21.531 12.125c2.75 0 5 2.25 5 5v8.094c0 2.75-2.25 5-5 5h-3.75c-3.437 0-6.687 1.343-9.125 3.781-.187.188-.406.281-.656.281-.125 0-.25-.031-.344-.062-.343-.157-.593-.5-.593-.875v-3.219C4.75 29.687 3 27.656 3 25.219v-8.094c0-2.75 2.25-5 5-5h13.531zM21.563 14H8c-1.719 0-3.125 1.406-3.125 3.125v8.094c0 1.718 1.406 3.125 3.125 3.125.531 0 .938.406.938.937v2c2.53-1.906 5.624-2.937 8.874-2.937h3.75c1.72 0 3.125-1.407 3.125-3.125v-8.094c0-1.719-1.406-3.125-3.125-3.125zm10.812-8.906c2.75 0 5 2.25 5 5v8.094c0 2.437-1.75 4.468-4.063 4.906v3.218c0 .375-.218.72-.593.875-.094.032-.219.063-.344.063-.25 0-.469-.094-.656-.281-.969-.969-2.063-1.75-3.282-2.375-.468-.25-.656-.813-.406-1.25.219-.469.813-.657 1.25-.407.75.375 1.469.844 2.157 1.344v-2c0-.531.406-.937.937-.937 1.719 0 3.125-1.407 3.125-3.125v-8.125c0-1.719-1.406-3.125-3.125-3.125H18.844c-1.719 0-3.125 1.406-3.125 3.125 0 .531-.406.937-.938.937-.531 0-.937-.406-.937-.937 0-2.75 2.25-5 5-5h13.531zM13.406 21.937c.531 0 .938.407.938.938 0 .531-.406.938-.938.938H9.344c-.531 0-.938-.407-.938-.938 0-.531.406-.938.938-.938zm6.781-4.062c.532 0 .938.406.938.938 0 .53-.406.937-.938.937H9.345c-.531 0-.938-.406-.938-.938 0-.53.406-.937.938-.937z"/>
    </g>
</svg>
