<svg xmlns="http://www.w3.org/2000/svg" width="40" height="40" viewBox="0 0 40 40">
    <defs>
        <linearGradient id="prefix__a" x1="0%" x2="100%" y1="50%" y2="50%">
            <stop offset="0%" stop-color="#0A3097"/>
            <stop offset="100%" stop-color="#3C81F5"/>
        </linearGradient>
        <linearGradient id="prefix__b" x1="100%" x2="0%" y1="50%" y2="50%">
            <stop offset="0%" stop-color="#F2F8FF"/>
            <stop offset="100%" stop-color="#D2DFFF"/>
        </linearGradient>
    </defs>
    <g fill="none" fill-rule="evenodd">
        <path fill="#FFF" fill-rule="nonzero" d="M20.063 4.688c1.5.093 2.937.75 4 1.812l13.812 13.813c1.219 1.218 1.219 3.187 0 4.406L26.812 35.78c-1.218 1.219-3.187 1.219-4.406 0L8.594 21.97c-1.063-1.063-1.719-2.5-1.813-4l-.468-7.094c-.25-3.781 2.875-6.906 6.656-6.656l7.094.468z"/>
        <path fill="url(#prefix__a)" d="M13.031 3.281l7.094.469c1.75.125 3.375.844 4.594 2.094L38.53 19.656c1.594 1.594 1.594 4.157 0 5.75L27.5 36.438c-.781.78-1.813 1.187-2.875 1.187-1.094 0-2.094-.438-2.875-1.188L7.937 22.626C6.72 21.406 5.97 19.75 5.845 18.031c-.032-.531.343-.968.875-1 .531-.031.968.344 1 .875.093 1.282.625 2.5 1.531 3.407l13.813 13.812c.406.406.968.625 1.53.625.595 0 1.126-.219 1.563-.625L37.22 24.062c.406-.406.656-.968.656-1.53 0-.595-.219-1.126-.656-1.532L23.406 7.156C22.5 6.25 21.281 5.688 20 5.625l-7.094-.469c-1.531-.093-3.031.469-4.125 1.532C7.687 7.78 7.125 9.28 7.25 10.813c.031.53-.344.968-.875 1-.531.03-.969-.344-1-.876C5.25 8.876 6 6.845 7.469 5.375c1.468-1.469 3.5-2.219 5.562-2.094zM3.812 16.72c.376.343.438.937.094 1.312-.823.915-1.409 1.98-1.785 3.164-.005.04-.015.078-.027.117v.063c-.125.375-.5.656-.906.656-.094 0-.188 0-.25-.031-.413-.129-.676-.491-.669-.894-.004-.106.01-.216.043-.325C.75 19.313 1.5 17.97 2.5 16.813c.344-.375.938-.438 1.313-.094zm10.813-8.594c1.063.125 2.063.625 2.719 1.469.656.844 1 1.906.875 2.969-.125 1.25-.813 2.343-1.875 3.03-.125.095-.282.126-.469.126-.313 0-.625-.156-.781-.438-.281-.437-.156-1.031.281-1.281.563-.344.938-.938 1-1.625.063-.594-.094-1.156-.469-1.594-.375-.469-.875-.75-1.469-.812-.718-.063-1.437.219-1.906.781-.344.406-.937.438-1.312.125-.406-.344-.438-.938-.125-1.313.875-1.03 2.187-1.562 3.531-1.437zM1.75 11.406l.031.031c3.094 2.938 7.844 3.157 11.156.594.376-.281.907-.25 1.25.094l.032.031c.375.406.312 1.031-.125 1.344-1.875 1.438-4.125 2.156-6.375 2.156-2.481 0-4.962-.886-6.95-2.631L.5 12.78c-.344-.312-.406-.812-.188-1.187.344-.5 1.032-.563 1.438-.188z"/>
        <path fill="url(#prefix__b)" d="M19.781 18.5l.969 2.844c.063.187.031.406-.094.562l-1.781 2.407c-.313.406 0 1 .5 1l3-.032c.219 0 .406.094.531.25l1.719 2.438c.313.437.969.312 1.094-.188l.875-2.843c.062-.188.218-.344.406-.407l2.844-.875c.5-.156.593-.812.187-1.093l-2.437-1.72c-.157-.124-.282-.312-.25-.53l.031-3c0-.532-.594-.813-1-.5l-2.406 1.78c-.157.126-.375.157-.563.095l-2.843-1c-.47-.157-.938.312-.782.812z"/>
    </g>
</svg>
