<svg xmlns="http://www.w3.org/2000/svg" width="40" height="40" viewBox="0 0 40 40">
    <defs>
        <linearGradient id="prefix__a" x1="100%" x2="0%" y1="50%" y2="50%">
            <stop offset="0%" stop-color="#F2F8FF"/>
            <stop offset="100%" stop-color="#D2DFFF"/>
        </linearGradient>
        <linearGradient id="prefix__b" x1="0%" x2="100%" y1="50%" y2="50%">
            <stop offset="0%" stop-color="#0A3097"/>
            <stop offset="100%" stop-color="#3C81F5"/>
        </linearGradient>
    </defs>
    <g fill="none" fill-rule="evenodd">
        <path fill="url(#prefix__a)" d="M23.991 26.925l1.953.256v10.29l-4.781-3.032c-.288-.183-.656-.183-.944 0l-4.781 3.033V27.18l1.953-.256 2.765 2.116c.158.121.346.182.535.182.189 0 .377-.06.536-.182l2.764-2.116zM16.013 6.848C15.366 8.09 15 9.502 15 11c0 4.97 4.03 9 9 9 1.845 0 3.56-.555 4.988-1.508-1.501 2.881-4.515 4.849-7.988 4.849-4.97 0-9-4.03-9-9 0-3.126 1.594-5.88 4.013-7.493z"/>
        <path fill="url(#prefix__b)" d="M20.156.181c.316-.241.754-.241 1.07 0l2.765 2.116 3.453-.452c.395-.051.776.169.928.537l1.332 3.217L32.92 6.93c.369.153.589.534.537.929l-.452 3.452 2.116 2.765c.242.316.242.755 0 1.07l-2.116 2.765.452 3.453c.052.395-.168.776-.536.928l-3.217 1.332-1.332 3.217c-.118.285-.373.48-.665.53v11.703c0 .321-.175.617-.457.772-.132.073-.279.109-.425.109-.164 0-.328-.046-.471-.137l-5.663-3.592-5.662 3.592c-.272.172-.615.183-.897.028-.281-.155-.456-.451-.456-.772V27.372c-.293-.05-.548-.246-.666-.531l-1.331-3.217-3.217-1.332c-.369-.152-.589-.533-.537-.928l.452-3.453-2.116-2.764c-.242-.316-.242-.755 0-1.071l2.116-2.765-.452-3.452c-.052-.395.168-.776.537-.929L11.679 5.6l1.331-3.217c.153-.368.534-.588.929-.537l3.452.452zm3.835 26.744l-2.764 2.116c-.159.121-.347.182-.536.182-.189 0-.377-.06-.535-.182l-2.765-2.116-1.953.256v10.29l4.781-3.032c.288-.183.656-.183.944 0l4.781 3.033v-10.29l-1.953-.257zm-3.3-24.934l-2.518 1.927c-.185.142-.419.204-.65.174L14.38 3.68l-1.213 2.93c-.09.216-.261.388-.477.477L9.76 8.3l.411 3.143c.03.231-.032.465-.174.65L8.07 14.611l1.927 2.518c.142.185.205.419.174.65l-.411 3.143 2.93 1.213c.216.09.387.261.477.477l1.213 2.93 3.143-.411c.038-.005.076-.008.115-.008.192 0 .38.063.535.182l2.518 1.927 2.518-1.927c.185-.142.419-.204.65-.174l3.143.411 1.213-2.93c.09-.216.261-.387.477-.476l2.93-1.213-.411-3.144c-.03-.23.032-.465.174-.65l1.927-2.518-1.927-2.518c-.142-.185-.205-.418-.174-.65l.411-3.143-2.93-1.213c-.216-.09-.387-.26-.477-.477l-1.213-2.93-3.143.412c-.231.03-.465-.032-.65-.174l-2.518-1.927zm2.016 4.325c.164-.459.667-.698 1.126-.535 3.725 1.325 6.228 4.874 6.228 8.83 0 5.167-4.203 9.37-9.37 9.37-5.167 0-9.37-4.203-9.37-9.37 0-1.837.532-3.617 1.538-5.146.268-.407.814-.519 1.22-.252.407.268.52.814.252 1.22-.817 1.241-1.248 2.686-1.248 4.178 0 4.196 3.413 7.609 7.608 7.609S28.3 18.807 28.3 14.61c0-3.212-2.032-6.094-5.057-7.17-.458-.163-.698-.667-.535-1.125zM20.691 5.24c.487 0 .881.394.881.88 0 .488-.394.882-.88.882-1.757 0-3.47.612-4.824 1.724-.164.134-.362.2-.559.2-.254 0-.507-.11-.681-.322-.309-.376-.254-.931.122-1.24 1.669-1.37 3.779-2.124 5.941-2.124z"/>
    </g>
</svg>
