<svg xmlns="http://www.w3.org/2000/svg" width="40" height="40" viewBox="0 0 40 40">
    <defs>
        <linearGradient id="prefix__a" x1="100%" x2="0%" y1="50%" y2="50%">
            <stop offset="0%" stop-color="#F2F8FF"/>
            <stop offset="100%" stop-color="#D2DFFF"/>
        </linearGradient>
        <linearGradient id="prefix__b" x1="0%" x2="100%" y1="50%" y2="50%">
            <stop offset="0%" stop-color="#0A3097"/>
            <stop offset="100%" stop-color="#3C81F5"/>
        </linearGradient>
    </defs>
    <g fill="none" fill-rule="evenodd">
        <path fill="url(#prefix__a)" d="M20.375 27.688c-4.844 0-8.75-3.907-8.75-8.75v-15h17.5v15c0 4.843-3.906 8.75-8.75 8.75z"/>
        <path fill="url(#prefix__b)" d="M29.125 3c.531 0 .938.406.938.938v2.187h3.75c.53 0 .937.406.937.938v7.03c0 2.782-2.063 5.095-4.719 5.532-.343 4.719-4.031 8.5-8.718 8.969v3.781h5c.53 0 .937.406.937.938v2.812h5.313c.53 0 .937.406.937.938 0 .53-.406.937-.938.937h-13.75c-.53 0-.937-.406-.937-.938 0-.53.406-.937.938-.937h6.562V34.25h-10v2.813c0 .53-.406.937-.938.937h-6.25c-.53 0-.937-.406-.937-.938 0-.53.406-.937.938-.937H13.5v-2.813c0-.53.406-.937.938-.937h5v-3.781c-4.75-.469-8.532-4.375-8.75-9.188C8.03 18.97 6 16.656 6 13.875V7.062c0-.53.406-.937.938-.937h1.875c.53 0 .937.406.937.938 0 .53-.406.937-.938.937h-.937v5.875c0 1.75 1.188 3.219 2.813 3.625V3.937c0-.53.406-.937.937-.937zm-.938 1.875H12.563v14.063c0 4.312 3.5 7.812 7.813 7.812s7.813-3.5 7.813-7.813V4.876zM20.5 8.917l5.004 2.078-.006.937-.009.422c-.063 2.417-.329 4.128-.843 5.195l-.102.196c-.583 1.046-1.7 2.037-3.354 3.012l-.691.397-.734-.425-.304-.183c-1.565-.97-2.61-1.967-3.13-3.049l-.083-.184c-.413-.987-.646-2.498-.723-4.578l-.022-.837-.012-.9 5.01-2.08zm0 2.165l-2.986 1.241.01.349c.064 1.733.245 2.988.506 3.71l.054.136.06.137c.316.655 1.1 1.404 2.356 2.182l.204-.128c.986-.636 1.652-1.241 1.999-1.778l.08-.133.075-.143c.346-.72.575-2.198.632-4.349l-.002.017-2.988-1.241zM32.875 8h-2.813v9.719c1.625-.407 2.813-1.875 2.813-3.625V8z"/>
        <path fill="#FFF" d="M20.5 11.082l2.988 1.241.002-.017c-.057 2.15-.286 3.63-.632 4.349l-.075.143-.08.133c-.347.537-1.013 1.142-2 1.778l-.203.128c-1.256-.778-2.04-1.527-2.356-2.182l-.06-.137-.054-.137c-.26-.72-.442-1.976-.506-3.71l-.01-.348 2.986-1.241z"/>
    </g>
</svg>
