<svg xmlns="http://www.w3.org/2000/svg" width="40" height="40" viewBox="0 0 40 40">
    <defs>
        <linearGradient id="prefix__a" x1="100%" x2="0%" y1="50%" y2="50%">
            <stop offset="0%" stop-color="#F2F8FF"/>
            <stop offset="100%" stop-color="#D2DFFF"/>
        </linearGradient>
        <linearGradient id="prefix__b" x1="0%" x2="100%" y1="50%" y2="50%">
            <stop offset="0%" stop-color="#0A3097"/>
            <stop offset="100%" stop-color="#3C81F5"/>
        </linearGradient>
    </defs>
    <g fill="none" fill-rule="evenodd">
        <path fill="#FFF" fill-rule="nonzero" d="M17.406 28.656l-5.875 4.094c-1.25.875-2.875-.313-2.437-1.781l2.062-6.844c.188-.625-.031-1.344-.562-1.75l-5.719-4.344c-1.219-.906-.594-2.843.938-2.875L12.968 15c.656 0 1.25-.438 1.469-1.063l2.374-6.75c.5-1.437 2.532-1.437 3.032 0l2.343 6.75c.22.626.813 1.063 1.47 1.063l7.155.156c1.532.031 2.157 1.969.938 2.875l-5.719 4.344c-.531.406-.75 1.094-.562 1.75l2.062 6.844c.438 1.437-1.187 2.656-2.437 1.781l-5.875-4.094c-.532-.406-1.282-.406-1.813 0z"/>
        <path fill="url(#prefix__a)" d="M17.174 28.516L11.3 32.609c-1.25.875-2.875-.312-2.437-1.78l2.062-6.845c.188-.625-.03-1.343-.562-1.75l-5.719-4.312c-1.219-.906-.594-2.844.938-2.875l7.156-.156c.656 0 1.25-.438 1.469-1.063l2.343-6.75c.5-1.437 2.532-1.437 3.032 0l2.375 6.75c.218.625.812 1.063 1.468 1.063l7.157.156c1.531.031 2.156 1.969.937 2.875l-5.687 4.312c-.532.407-.75 1.094-.563 1.75l2.063 6.844c.437 1.438-1.188 2.656-2.438 1.781l-5.906-4.093c-.531-.375-1.281-.375-1.813 0z"/>
        <path fill="url(#prefix__b)" d="M36.031 32.188c.518 0 .938.42.938.937 0 .518-.42.938-.938.938s-.937-.42-.937-.938.42-.938.937-.938zM18.281 5.28l.181.007c1.015.07 1.871.738 2.226 1.712l2.343 6.75c.094.25.344.438.625.438l7.157.156c1.125.031 2.03.719 2.375 1.75.343 1.031 0 2.125-1 2.781L26.5 23.188c-.219.156-.313.468-.219.718l2.063 6.844c.156.469.156.969.031 1.406h2.875c.531 0 .938.407.938.938 0 .531-.407.937-.938.937H10.844c-.031 0-.063-.031-.094-.031s-.063-.031-.094-.031l-.047-.016-.046-.016c-.032 0-.063 0-.094-.03l-.023-.024-.063-.062-.04-.04-.062-.093c0-.032-.031-.032-.031-.063l-.023-.04c-.012-.03-.019-.064-.04-.085-.03 0-.03-.031-.03-.031-.032-.032-.032-.063-.032-.094s-.031-.063-.031-.094v-.375c0-.031.031-.062.031-.093l.031-.094c0-.032.031-.063.031-.094s0-.063.032-.094l.062-.062c.031 0 .031-.032.063-.063l.094-.062c.03 0 .03-.032.062-.032l6.313-4.374c.875-.594 2.03-.594 2.906 0l5.875 4.093c.375.25.687.063.781 0 .094-.062.375-.312.25-.718l-2.063-6.844c-.28-1 .063-2.125.907-2.75l5.718-4.282c.344-.25.25-.593.22-.718-.032-.125-.188-.469-.626-.469l-7.156-.156c-1.063-.032-2-.719-2.344-1.719l-2.343-6.781c-.157-.407-.5-.438-.625-.438l-.044.002c-.148.008-.44.07-.581.436l-2.344 6.75c-.344 1-1.281 1.687-2.344 1.719l-7.156.156c-.438.031-.594.375-.625.468-.032.094-.125.47.218.72l5.72 4.312c.843.625 1.218 1.75.905 2.75l-2.124 6.843c-.126.5-.657.782-1.157.625-.5-.125-.781-.656-.625-1.156l2.063-6.843c.094-.25 0-.563-.219-.72l-5.688-4.312c-.875-.656-1.218-1.781-.875-2.812.344-1.032 1.282-1.719 2.376-1.75l7.125-.156c.28 0 .53-.188.624-.438L15.876 7c.375-1.063 1.313-1.719 2.406-1.719zm.407 24.219c-.22-.156-.532-.156-.75 0l-3.844 2.688h8.437z"/>
    </g>
</svg>
