<svg xmlns="http://www.w3.org/2000/svg" width="64" height="64" viewBox="0 0 64 64">
    <defs>
        <linearGradient id="prefix__a" x1="0%" x2="100%" y1="50%" y2="50%">
            <stop offset="0%" stop-color="#0A3097"/>
            <stop offset="100%" stop-color="#3C81F5"/>
        </linearGradient>
        <linearGradient id="prefix__b" x1="0%" x2="100%" y1="50%" y2="50%">
            <stop offset="0%" stop-color="#0A3097"/>
            <stop offset="100%" stop-color="#3C81F5"/>
        </linearGradient>
    </defs>
    <g fill="none" fill-rule="evenodd">
        <path fill="url(#prefix__a)" d="M21 54v8.5c0 .828-.672 1.5-1.5 1.5s-1.5-.672-1.5-1.5V54h3zm25 0v8.5c0 .828-.672 1.5-1.5 1.5s-1.5-.672-1.5-1.5V54h3zM35.894 2c1.003 0 1.866.674 2.062 1.61l2.503 12c.226 1.084-.513 2.137-1.652 2.352-.135.025-.272.038-.41.038h-2.369l1.174 6.652c.192 1.088-.534 2.126-1.622 2.318-.115.02-.231.03-.348.03H28c-1.105 0-2-.895-2-2 0-.117.01-.233.03-.348L27.204 18h-2.602c-1.161 0-2.102-.895-2.102-2 0-.13.013-.261.04-.39l2.504-12C25.239 2.675 26.102 2 27.105 2h8.79zm-2.913 16h-2.73l-1.06 6h4.85l-1.06-6zm2.05-13h-7.063L25.88 15h11.237L35.03 5z"/>
        <path fill="url(#prefix__b)" d="M49 24c1.105 0 2 .895 2 2v9c0 .173-.022.34-.063.5.041.16.063.327.063.5v9c0 .173-.022.34-.063.501.041.159.063.326.063.499v9c0 1.105-.895 2-2 2H15c-1.105 0-2-.895-2-2v-9c0-.173.022-.34.063-.5-.041-.16-.063-.327-.063-.5v-9c0-.173.022-.34.063-.5-.041-.16-.063-.327-.063-.5v-9c0-1.105.895-2 2-2h34zm-1 23H16v7h32v-7zm-15.5 2c.828 0 1.5.672 1.5 1.5s-.672 1.5-1.5 1.5-1.5-.672-1.5-1.5.672-1.5 1.5-1.5zM48 37H16v7h32v-7zm-15.5 2c.828 0 1.5.672 1.5 1.5s-.672 1.5-1.5 1.5-1.5-.672-1.5-1.5.672-1.5 1.5-1.5zM48 27H16v7h32v-7zm-15.5 2c.828 0 1.5.672 1.5 1.5s-.672 1.5-1.5 1.5-1.5-.672-1.5-1.5.672-1.5 1.5-1.5z"/>
    </g>
</svg>
