<svg xmlns="http://www.w3.org/2000/svg" width="64" height="64" viewBox="0 0 64 64">
    <defs>
        <linearGradient id="prefix__a" x1="100%" x2="0%" y1="50%" y2="50%">
            <stop offset="0%" stop-color="#F2F8FF"/>
            <stop offset="100%" stop-color="#D2DFFF"/>
        </linearGradient>
        <linearGradient id="prefix__b" x1="0%" x2="100%" y1="50%" y2="50%">
            <stop offset="0%" stop-color="#0A3097"/>
            <stop offset="100%" stop-color="#3C81F5"/>
        </linearGradient>
    </defs>
    <g fill="none" fill-rule="evenodd">
        <path fill="url(#prefix__a)" d="M6 13v32h40c-9.212-4.17-16.212-8.17-21-12S13.879 22.503 6 13z"/>
        <path fill="url(#prefix__b)" d="M44.827 12c1.09 0 1.986.836 2.065 1.894l.006.152v2.179h7.549c2.25 0 4.094 1.754 4.203 3.95l.006.208v1.056c0 .436-.286.806-.683.938l-.11.03 1.657 6.55c2.458.37 4.365 2.422 4.475 4.926l.005.23v10.56c0 .508-.387.927-.885.984l-.117.006h-3.276l.002.066c0 3.458-2.847 6.271-6.346 6.271-3.5 0-6.347-2.813-6.347-6.27l.001-.034.001-.033H24.449l.002.066c0 3.458-2.847 6.271-6.347 6.271-3.421 0-6.22-2.69-6.342-6.041l-.004-.23.002-.066H6.347c-1.09 0-1.986-.836-2.066-1.893l-.005-.153V41.44H1.002c-.553 0-1.002-.443-1.002-.99 0-.508.387-.926.885-.984l.117-.006h9.62c.554 0 1.002.443 1.002.99 0 .508-.387.926-.885.983l-.117.007H6.28v2.178c0 .024.013.046.033.057l.034.01h5.76c.86-2.456 3.223-4.225 5.997-4.225 2.688 0 4.99 1.66 5.913 3.996l.085.228h20.791v-7.458c0-.547.449-.99 1.002-.99.514 0 .938.382.996.874l.006.116v7.458h.483c.86-2.455 3.223-4.224 5.998-4.224 2.687 0 4.989 1.66 5.912 3.996l.085.228h2.62v-4.356H60.86c-1.672 0-3.042-1.297-3.135-2.927l-.005-.175v-2.113c0-.507.387-.926.885-.983l.117-.007h3.116c-.405-1.24-1.549-2.156-2.917-2.238l-.197-.006H46.898V32c0 .547-.449.99-1.002.99-.514 0-.938-.382-.996-.874L44.893 32V14.046c0-.024-.013-.045-.033-.057l-.033-.009H6.347c-.025 0-.047.013-.058.033l-.01.033V32c0 .547-.448.99-1.001.99-.514 0-.938-.382-.996-.874L4.276 32V14.046c0-1.077.846-1.962 1.916-2.04L6.347 12h38.48zM18.104 41.44c-2.394 0-4.342 1.924-4.342 4.29s1.948 4.29 4.342 4.29c2.395 0 4.343-1.924 4.343-4.29s-1.948-4.29-4.343-4.29zm35.274 0c-2.394 0-4.342 1.924-4.342 4.29s1.948 4.29 4.342 4.29c2.394 0 4.342-1.924 4.342-4.29s-1.948-4.29-4.342-4.29zm-35.274 2.243c1.142 0 2.071.918 2.071 2.047 0 1.128-.929 2.046-2.07 2.046-1.143 0-2.072-.918-2.072-2.046 0-1.129.93-2.047 2.071-2.047zm35.274 0c1.142 0 2.071.918 2.071 2.047 0 1.128-.929 2.046-2.071 2.046-1.142 0-2.071-.918-2.071-2.046 0-1.129.929-2.047 2.071-2.047zM41.62 39.46c.554 0 1.002.443 1.002.99 0 .508-.387.926-.885.984l-.117.006H26.656c-.554 0-1.003-.443-1.003-.99 0-.508.387-.926.886-.983l.117-.007H41.62zm20.376-4.357h-2.272v1.123c0 .577.444 1.054 1.013 1.115l.123.007h1.136v-2.245zm-46.03.133c.554 0 1.003.443 1.003.99 0 .507-.387.926-.885.983l-.117.007H3.14c-.554 0-1.002-.443-1.002-.99 0-.508.387-.927.885-.984l.117-.006h12.827zM26.503 18L33 20.512l-.012 1.282c-.055 3.211-.407 5.461-1.108 6.816-.76 1.468-2.4 2.825-4.913 4.143l-.47.247-.907-.487c-2.26-1.242-3.752-2.522-4.466-3.903-.703-1.359-1.054-3.613-1.109-6.836L20 20.514 26.502 18zm0 2.257L22.07 21.97l.021.707c.089 2.25.353 3.851.759 4.764l.083.174c.485.938 1.689 1.97 3.613 3.028l-.046-.025.313-.174c1.596-.92 2.645-1.812 3.15-2.64l.108-.19c.427-.824.71-2.339.822-4.506l.035-.902.004-.235-4.43-1.714zm29.3 2.172h-8.904v6.469h10.541l-1.637-6.469zm-1.355-4.224h-7.55v2.244h9.754v-.066c0-1.201-.989-2.178-2.204-2.178z"/>
    </g>
</svg>
