<svg xmlns="http://www.w3.org/2000/svg" width="64" height="64" viewBox="0 0 64 64">
    <defs>
        <linearGradient id="prefix__a" x1="100%" x2="0%" y1="50%" y2="50%">
            <stop offset="0%" stop-color="#F2F8FF"/>
            <stop offset="100%" stop-color="#D2DFFF"/>
        </linearGradient>
        <linearGradient id="prefix__b" x1="0%" x2="100%" y1="50%" y2="50%">
            <stop offset="0%" stop-color="#0A3097"/>
            <stop offset="100%" stop-color="#3C81F5"/>
        </linearGradient>
    </defs>
    <g fill="none" fill-rule="evenodd">
        <path fill="url(#prefix__a)" d="M50.98 19.58c0 9.922-4.572 16.484-8.407 20.242-4.353 4.265-9.007 6.159-10.041 6.159-1.035 0-5.69-1.894-10.042-6.16-3.835-3.757-8.407-10.32-8.407-20.242v-9.55c6.495-1.844 12.544-4.418 18.449-7.85 5.757 3.341 12.108 6.043 18.447 7.85v9.55z"/>
        <path fill="url(#prefix__b)" d="M32.018.14c.317-.187.71-.187 1.027 0 5.964 3.521 12.607 6.339 19.21 8.149.44.12.744.518.744.973V19.58c0 10.624-4.901 17.657-9.013 21.685-.306.3-.616.592-.929.873l6.61 15.795c.186.445.103.945-.217 1.305-.288.324-.71.472-1.13.403l-.139-.032-5.924-1.672c-.017-.005-.034-.002-.047.008l-.016.017-2.966 5.395c-.221.402-.634.644-1.088.644L38.075 64c-.432-.022-.811-.26-1.02-.63l-.063-.127-3.591-8.583c-.203-.483.025-1.04.509-1.242.449-.187.96-.004 1.193.41l.049.1 3.066 7.326 2.314-4.207c.415-.752 1.254-1.138 2.085-.974l.155.037 4.622 1.305-5.855-13.991c-2.722 2.162-5.445 3.603-7.316 4.226L27.7 63.237c-.19.447-.605.737-1.085.762L26.55 64c-.408 0-.783-.196-1.015-.528l-.072-.116-2.967-5.396c-.008-.014-.022-.023-.038-.026l-.025.002-5.925 1.672c-.462.132-.948-.01-1.268-.37-.288-.325-.384-.762-.266-1.17l.048-.135 6.713-16.043c-.221-.204-.44-.412-.658-.626-4.112-4.028-9.013-11.06-9.013-21.685V9.262c0-.455.304-.853.743-.973C19.598 6.428 25.882 3.762 32.018.14zM23.245 43.2l-5.948 14.214 4.621-1.304c.827-.234 1.692.094 2.158.8l.082.136 2.315 4.208 5.563-13.296c-1.797-.283-5.319-1.936-8.79-4.758zm9.287-41.02c-5.905 3.432-11.954 6.006-18.449 7.85v9.55c0 9.923 4.572 16.485 8.407 20.243 4.353 4.265 9.007 6.159 10.042 6.159 1.034 0 5.688-1.894 10.04-6.16 3.836-3.757 8.407-10.32 8.407-20.242v-9.55c-6.34-1.807-12.69-4.509-18.447-7.85zm2.49 38.456c.48-.281 1.099-.12 1.38.361.282.481.12 1.1-.36 1.382l-.067.039c-.16.092-.334.136-.505.136-.349 0-.688-.18-.875-.504-.28-.483-.114-1.1.368-1.38zm8.142-7.784c.305-.467.93-.598 1.397-.293.467.305.599.93.293 1.397-.901 1.38-1.958 2.7-3.14 3.924-.97 1.003-2.02 1.938-3.124 2.779-.182.14-.398.206-.611.206-.304 0-.605-.137-.804-.397-.338-.444-.252-1.077.19-1.415 1.023-.78 1.998-1.647 2.897-2.577 1.094-1.131 2.07-2.35 2.902-3.624zm-7.05-15.51c1.131-1.13 2.972-1.13 4.104 0 1.131 1.133 1.131 2.973 0 4.105l-9.049 9.05c-.548.547-1.277.849-2.052.849-.775 0-1.504-.302-2.052-.85L22.92 26.35c-1.131-1.132-1.131-2.973 0-4.104 1.131-1.132 2.973-1.132 4.104 0l2.093 2.092zm2.761 1.343c-.391-.391-1.028-.392-1.42 0l-7.667 7.668c-.178.178-.42.278-.67.278-.253 0-.494-.1-.672-.278l-2.764-2.765c-.196-.195-.453-.293-.71-.293-.257 0-.514.098-.71.294-.391.391-.391 1.028 0 1.42l4.145 4.145c.19.19.442.294.71.294.268 0 .52-.105.71-.294l9.048-9.049c.392-.391.392-1.028 0-1.42zM22.272 9.346c.52-.204 1.105.05 1.31.57.204.519-.05 1.105-.57 1.31-1.618.637-3.273 1.23-4.93 1.766v3.162c0 .557-.453 1.01-1.01 1.01-.558 0-1.01-.453-1.01-1.01v-3.9c0-.44.286-.83.707-.963 1.848-.58 3.7-1.234 5.503-1.944zm2.836-1.179c.51-.224 1.108.007 1.332.518.224.51-.006 1.106-.517 1.33l-.018.008c-.132.057-.27.084-.405.084-.39 0-.762-.225-.927-.605-.223-.51.007-1.105.519-1.328z"/>
        <path fill="#FFF" d="M29.117 26.63c.252 0 .493-.1.671-.278l7.668-7.668c.391-.392 1.028-.391 1.42 0 .391.392.391 1.029 0 1.42l-9.049 9.049c-.19.19-.442.294-.71.294-.268 0-.52-.105-.71-.294l-4.145-4.145c-.391-.392-.391-1.029 0-1.42.196-.196.453-.294.71-.294.257 0 .514.098.71.293l2.764 2.765c.178.178.42.278.671.278z"/>
    </g>
</svg>
