<svg xmlns="http://www.w3.org/2000/svg" width="64" height="64" viewBox="0 0 64 64">
    <defs>
        <linearGradient id="prefix__a" x1="0%" x2="100%" y1="50%" y2="50%">
            <stop offset="0%" stop-color="#0A3097"/>
            <stop offset="100%" stop-color="#3C81F5"/>
        </linearGradient>
    </defs>
    <path fill="url(#prefix__a)" fill-rule="evenodd" d="M6.887 7.557c.256.128 1.177.282 2.85.458l2.556.253c.821.082 1.51.157 2.166.236l.325.04c4.219.532 6.984 1.277 8.59 2.697 2.803-.314 6.215-.51 10.241-.594l.649-.013.115.003 12.944.769.44-.013c3.379-.132 6.469-1.033 9.293-2.706l.401-.244c2.434-1.518 4.657-1.154 5.038 1.512.235 1.645-.34 4.319-1.673 8.191-.52 1.655-.146 5.096 1.21 10.142 1.505 5.607 1.144 11.846-1.054 18.694-.07.223-.19.417-.34.575.432 1.544.735 2.868.91 3.977l.042.278c.45 3.142-.142 5.212-2.485 5.212-1.368 0-2.34-.285-4.55-1.239l-1.728-.755c-1.018-.433-1.668-.664-2.356-.828-.495-.119-.946-.178-1.366-.178-.617 0-1.398.115-2.472.358l-.834.203c-1.123.285-3.223.838-3.434.892-4.047 1.031-7.242 1.547-10.815 1.547-3.39 0-6.743-.466-11.09-1.392l-5.045-1.118-.247-.053c-1.333-.275-2.262-.416-2.917-.435l-.146-.002c-.388 0-.804.066-1.863.313l-2.08.499-.698.156c-1.333.286-2.317.407-3.207.353-1.696-.103-2.945-.947-3.19-2.601-.334-2.25.59-5.532 2.714-10.008-1.725-2.755-2.43-5.977-2.094-9.625l.073-.685.11-.935c.69-5.776 1.806-12.485 1.845-12.593.001-.954-.022-1.66-.116-2.6-.12-1.202-.334-2.366-.66-3.46l-.213-.674c-1.195-3.871.727-6.324 4.161-4.607zm-1.55 2.587l.013.121c.036.262.108.577.218.937l.071.222.174.55c.385 1.292.633 2.642.771 4.025.088.884.121 1.582.13 2.395l.002.505-.802 5.217c-.367 2.444-.789 5.39-1.1 8.017l-.107.931-.035.352c-.275 3.033.3 5.65 1.753 7.89.278.198.471.48.564.793C8 43.409 9.34 44.582 11.01 45.627c.703.439.916 1.364.477 2.067-.439.702-1.364.916-2.067.477-1.357-.848-2.54-1.783-3.545-2.801-1.385 3.14-1.993 5.434-1.86 6.783l.022.167c.01.016.063.01.402.03.614.038 1.477-.083 2.74-.367l2.705-.644c1.057-.24 1.533-.308 2.116-.315h.104c.92 0 2.048.164 3.67.5l4.665 1.034c4.48.98 7.813 1.466 11.11 1.466 3.087 0 5.898-.425 9.408-1.287l1.398-.358c1-.262 2.72-.712 3.286-.846 1.438-.34 2.506-.51 3.463-.51.67 0 1.352.09 2.064.26 1.02.245 1.89.571 3.381 1.224l.882.388c1.572.685 2.402.99 3.104 1.089l.17.02.01-.086c.031-.339.014-.826-.064-1.444l-.032-.238-.077-.492c-.381-2.213-1.332-5.463-2.85-9.716-.279-.78.128-1.638.908-1.917.78-.279 1.638.128 1.917.908l.366 1.037c.065.187.13.372.192.556 1.14-4.953 1.155-9.463.058-13.545-1.497-5.572-1.918-9.452-1.162-11.858l.255-.756c.852-2.577 1.286-4.461 1.32-5.551v-.196l-.06.03c-.089.045-.184.098-.285.157l-.156.095c-3.384 2.111-7.12 3.247-11.183 3.404l-.531.015-.115-.003-12.963-.77-.569.012c-6.05.125-10.64.511-13.74 1.148l-.315.067c-2.829.617-5.1 2.676-6.844 6.32-.357.748-1.253 1.064-2 .706-.748-.357-1.064-1.253-.706-2 1.953-4.083 4.641-6.698 8.042-7.731-.942-.22-2.055-.416-3.33-.585l-.383-.05c-.621-.078-1.265-.15-2.025-.228l-2.665-.264c-2.234-.227-3.321-.397-4.069-.739l-.23-.11-.084-.036z"/>
</svg>
