<svg xmlns="http://www.w3.org/2000/svg" width="64" height="64" viewBox="0 0 64 64">
    <defs>
        <linearGradient id="prefix__a" x1="100%" x2="0%" y1="50%" y2="50%">
            <stop offset="0%" stop-color="#F2F8FF"/>
            <stop offset="100%" stop-color="#D2DFFF"/>
        </linearGradient>
        <linearGradient id="prefix__b" x1="0%" x2="100%" y1="50%" y2="50%">
            <stop offset="0%" stop-color="#0A3097"/>
            <stop offset="100%" stop-color="#3C81F5"/>
        </linearGradient>
    </defs>
    <g fill="none" fill-rule="evenodd">
        <path fill="url(#prefix__a)" d="M25.48 55.007c-12.934-.002-23.418-10.49-23.415-23.424 0-8.493 4.6-16.32 12.02-20.454-.88 2.608-1.326 5.341-1.322 8.093 0 14.15 11.473 25.621 25.623 25.62 2.372 0 4.732-.329 7.013-.978-4.27 6.904-11.8 11.117-19.919 11.143z"/>
        <path fill="url(#prefix__b)" d="M15.886 8.118c.288-.12.614-.114.896.02.55.26.785.916.525 1.466-2.775 5.943-2.926 12.778-.418 18.838 4.94 11.935 18.62 17.604 30.554 12.664.418-.172.898-.072 1.211.253.311.328.39.813.199 1.222-2.714 5.853-7.537 10.466-13.504 12.917-13.084 5.374-28.047-.875-33.421-13.959-5.375-13.084.875-28.047 13.958-33.421zm-1.651 3.237c-7.42 4.134-12.019 11.96-12.02 20.454C2.213 44.743 12.696 55.23 25.63 55.233c8.118-.026 15.648-4.239 19.918-11.143-2.28.649-4.64.978-7.012.978-14.15.001-25.623-11.47-25.624-25.62-.003-2.752.443-5.486 1.322-8.093zm33.249 5.968c.843 0 1.315.946.853 1.614l-.07.09-4.734 5.521h3.95c.53 0 .967.399 1.026.912l.007.12c0 .53-.398.966-.912 1.026l-.12.007H41.29c-.843 0-1.315-.947-.852-1.615l.069-.09 4.732-5.52h-2.916c-.53 0-.966-.4-1.026-.913l-.007-.12c0-.53.399-.966.912-1.025l.12-.007h5.162zm-12.387-9.29c.852 0 1.321.962.842 1.628l-.07.09-6.732 7.572h6.992c.53 0 .966.398 1.025.911l.007.12c0 .53-.398.967-.912 1.026l-.12.007h-9.29c-.852 0-1.322-.963-.843-1.63l.071-.088 6.73-7.572h-5.958c-.53 0-.966-.399-1.026-.912l-.007-.12c0-.53.399-.966.912-1.026l.12-.007h8.259zM61.935 7c.852 0 1.322.963.843 1.63l-.071.088-6.732 7.572h6.993c.53 0 .965.399 1.025.912l.007.12c0 .53-.398.966-.912 1.026l-.12.007h-9.29c-.853 0-1.322-.963-.843-1.63l.07-.088 6.73-7.572h-5.958c-.529 0-.965-.399-1.025-.912l-.007-.12c0-.53.399-.966.912-1.026l.12-.007h8.258z"/>
    </g>
</svg>
