<svg xmlns="http://www.w3.org/2000/svg" width="64" height="64" viewBox="0 0 64 64">
    <defs>
        <linearGradient id="prefix__a" x1="0%" x2="100%" y1="50%" y2="50%">
            <stop offset="0%" stop-color="#0A3097"/>
            <stop offset="100%" stop-color="#3C81F5"/>
        </linearGradient>
    </defs>
    <g fill="none" fill-rule="evenodd">
        <path fill="url(#prefix__a)" d="M53 10c4.418 0 8 3.582 8 8l.001 6.803C62.794 25.841 64 27.78 64 30v17c0 1.105-.895 2-2 2h-1v3.5c0 .828-.672 1.5-1.5 1.5s-1.5-.672-1.5-1.5V49H7v3.5c0 .828-.672 1.5-1.5 1.5S4 53.328 4 52.5V49H2c-1.105 0-2-.895-2-2V30c0-2.22 1.207-4.16 3-5.197V18c0-4.418 3.582-8 8-8h42zm8 28H3v8h58v-8zM9 31.126c-1.725.444-3 2.01-3 3.874h3zM52 31H38c-2.398 0-4.402 1.688-4.888 3.941l-.011.059H52v-4zm-27 0H12v4h17.899l-.011-.059C29.402 32.688 27.398 31 25 31zm33 0h-3v4h3v-4zm-5-18H11c-2.689 0-4.882 2.122-4.995 4.783L6 18v6c2.613 0 4.835 1.67 5.659 4H25c2.678 0 5.049 1.316 6.5 3.337C32.952 29.316 35.323 28 38 28h14.341c.824-2.33 3.046-4 5.659-4v-6c0-2.689-2.122-4.882-4.783-4.995L53 13zM6 27v2.255c.71-.496 1.518-.864 2.389-1.069-.514-.677-1.31-1.129-2.213-1.18L6 27zm52 0c-.889 0-1.687.386-2.236 1H58v-1zm-14-7c1.105 0 2 .895 2 2s-.895 2-2 2-2-.895-2-2 .895-2 2-2zm-24 0c1.105 0 2 .895 2 2s-.895 2-2 2-2-.895-2-2 .895-2 2-2z"/>
        <path fill="#FFF" d="M58 27c-1.598 0-2.904 1.249-2.995 2.824L55 30v8h6v-8c0-1.598-1.249-2.904-2.824-2.995L58 27zM6 27c-1.598 0-2.904 1.249-2.995 2.824L3 30v8h6v-8c0-1.598-1.249-2.904-2.824-2.995L6 27z"/>
    </g>
</svg>
