<svg xmlns="http://www.w3.org/2000/svg" width="20" height="20" viewBox="0 0 20 20">
  <path fill="#616E99" fill-rule="evenodd" d="M2.2156945,1.08859116 C2.41056264,0.953595107 2.67998704,0.972880258 2.85355339,1.14644661 L2.85355339,1.14644661 L4.35355339,2.64644661 L4.41140884,2.7156945 C4.54640489,2.91056264 4.52711974,3.17998704 4.35355339,3.35355339 L4.35355339,3.35355339 L4.2843055,3.41140884 C4.08943736,3.54640489 3.82001296,3.52711974 3.64644661,3.35355339 L3.64644661,3.35355339 L2.999,2.705 L3,15.5 C3,16.2796961 3.59488808,16.9204487 4.35553999,16.9931334 L4.5,17 L16.043,17 L15.3964466,16.3535534 L15.3385912,16.2843055 C15.2035951,16.0894374 15.2228803,15.820013 15.3964466,15.6464466 C15.5917088,15.4511845 15.9082912,15.4511845 16.1035534,15.6464466 L16.1035534,15.6464466 L17.6035534,17.1464466 L17.6614088,17.2156945 C17.7964049,17.4105626 17.7771197,17.679987 17.6035534,17.8535534 L17.6035534,17.8535534 L16.1035534,19.3535534 L16.0343055,19.4114088 C15.8394374,19.5464049 15.570013,19.5271197 15.3964466,19.3535534 L15.3964466,19.3535534 L15.3385912,19.2843055 C15.2035951,19.0894374 15.2228803,18.820013 15.3964466,18.6464466 L15.3964466,18.6464466 L16.043,18 L4.5,18 C3.1745166,18 2.08996133,16.9684641 2.00531768,15.6643757 L2,15.5 L1.999,2.707 L1.35355339,3.35355339 L1.2843055,3.41140884 C1.08943736,3.54640489 0.820012961,3.52711974 0.646446609,3.35355339 C0.451184464,3.15829124 0.451184464,2.84170876 0.646446609,2.64644661 L0.646446609,2.64644661 L2.14644661,1.14644661 Z M15.5,2 C16.8254834,2 17.9100387,3.03153594 17.9946823,4.33562431 L18,4.5 L18,13.5 C18,13.7761424 17.7761424,14 17.5,14 C17.2545401,14 17.0503916,13.8231248 17.0080557,13.5898756 L17,13.5 L17,11 L13,11 L13,7 L3,7 L3,6 L17,6 L17,4.5 C17,3.72030388 16.4051119,3.07955132 15.64446,3.00686658 L15.5,3 L7,3 C6.72385763,3 6.5,2.77614237 6.5,2.5 C6.5,2.25454011 6.67687516,2.05039163 6.91012437,2.00805567 L7,2 L15.5,2 Z M14,8.415 L14,10 L15.585,10 L14,8.415 Z M17,10 L17,7 L14,7 L17,10 Z"/>
</svg>
