<?xml version="1.0" encoding="utf-8"?>
<!-- Generator: Adobe Illustrator 16.0.0, SVG Export Plug-In . SVG Version: 6.00 Build 0)  -->
<!DOCTYPE svg PUBLIC "-//W3C//DTD SVG 1.1//EN" "http://www.w3.org/Graphics/SVG/1.1/DTD/svg11.dtd">
<svg version="1.1" id="Layer_1" xmlns="http://www.w3.org/2000/svg" xmlns:xlink="http://www.w3.org/1999/xlink" x="0px" y="0px"
	 width="16px" height="16px" viewBox="8.063 3.907 16 16" enable-background="new 8.063 3.907 16 16" xml:space="preserve">
<path fill="#3C81F5" d="M15.686,6.727l-0.063,0.056l-4.738,4.737c-0.019,0.02-0.037,0.042-0.054,0.063l0.054-0.063
	c-0.024,0.024-0.045,0.05-0.066,0.077c-0.012,0.016-0.023,0.034-0.033,0.05c-0.005,0.009-0.01,0.016-0.015,0.025
	c-0.007,0.014-0.015,0.027-0.021,0.041c-0.005,0.012-0.011,0.024-0.015,0.035c-0.005,0.014-0.01,0.027-0.015,0.042
	c-0.002,0.01-0.006,0.02-0.009,0.03c-0.005,0.014-0.008,0.028-0.011,0.044c-0.002,0.011-0.004,0.023-0.006,0.035
	c-0.002,0.013-0.004,0.027-0.005,0.041c-0.001,0.012-0.001,0.024-0.002,0.037c0,0.008,0,0.015,0,0.022v0.022
	c0,0.012,0.001,0.024,0.002,0.037L10.686,12c0,0.034,0.002,0.068,0.007,0.101c0.002,0.011,0.003,0.024,0.006,0.035
	c0.002,0.015,0.006,0.03,0.011,0.043c0.002,0.012,0.006,0.021,0.009,0.032c0.004,0.013,0.01,0.027,0.014,0.041
	c0.005,0.012,0.01,0.023,0.015,0.034c0.007,0.014,0.013,0.028,0.021,0.041c0.003,0.009,0.01,0.016,0.014,0.024
	c0.011,0.018,0.022,0.034,0.034,0.051c0.003,0.004,0.006,0.008,0.009,0.012s0.005,0.007,0.006,0.008l0.05,0.057l4.739,4.737
	c0.264,0.265,0.692,0.265,0.957,0c0.244-0.244,0.263-0.628,0.057-0.894l-0.057-0.063l-3.582-3.583h7.843
	c0.374,0,0.677-0.303,0.677-0.677c0-0.347-0.262-0.634-0.598-0.672l-0.079-0.004h-7.843l3.583-3.583
	c0.243-0.243,0.263-0.628,0.058-0.893l-0.058-0.064C16.335,6.54,15.951,6.521,15.686,6.727z"/>
</svg>
