<svg xmlns="http://www.w3.org/2000/svg" width="24" height="25" viewBox="0 0 24 25">
    <path fill="#A5ACC6" fill-rule="evenodd" d="M17.665 5.213c.39-.386 1.02-.382 1.406.009l.012.012c.385.39.385 1.016 0 1.406l-5.669 5.735 5.67 5.736c.384.39.384 1.017 0 1.406l-.013.013c-.386.39-1.015.394-1.406.008l-.008-.008L12 13.806 6.343 19.53l-.004.004c-.395.39-1.024.386-1.41-.004l-.012-.013c-.385-.39-.385-1.016 0-1.406l5.668-5.736L4.917 6.64c-.385-.39-.385-1.016 0-1.406l.012-.012c.386-.391 1.015-.395 1.406-.009l.008.009L12 10.944l5.657-5.722.004-.005z"/>
</svg>
