<?xml version="1.0" encoding="utf-8"?>
<!-- Generator: Adobe Illustrator 16.0.0, SVG Export Plug-In . SVG Version: 6.00 Build 0)  -->
<!DOCTYPE svg PUBLIC "-//W3C//DTD SVG 1.1//EN" "http://www.w3.org/Graphics/SVG/1.1/DTD/svg11.dtd">
<svg version="1.1" id="Layer_1" xmlns="http://www.w3.org/2000/svg" xmlns:xlink="http://www.w3.org/1999/xlink" x="0px" y="0px"
	 width="24px" height="24px" viewBox="0 0 24 24" enable-background="new 0 0 24 24" xml:space="preserve">
<path fill="#FFFFFF" d="M6.343,4.929L12,10.585l5.656-5.656c0.361-0.36,0.928-0.388,1.32-0.083l0.095,0.083
	c0.39,0.391,0.39,1.024,0,1.415l0,0L13.415,12l5.656,5.656c0.39,0.391,0.39,1.024,0,1.415c-0.391,0.39-1.024,0.39-1.415,0L12,13.415
	l-5.657,5.656c-0.361,0.36-0.928,0.388-1.32,0.083l-0.094-0.083c-0.39-0.391-0.39-1.024,0-1.415l0,0L10.585,12L4.929,6.343
	c-0.39-0.391-0.39-1.024,0-1.415C5.319,4.539,5.953,4.539,6.343,4.929z"/>
</svg>
