<svg xmlns="http://www.w3.org/2000/svg" xmlns:xlink="http://www.w3.org/1999/xlink" width="360" height="203" viewBox="0 0 360 203">
    <defs>
        <path id="c8je805hba" d="M0 0H360V203H0z"/>
    </defs>
    <g fill="none" fill-rule="evenodd">
        <path fill="#CFDCED" d="M41.941 190.53c0-1.815 80.76-1.815 242.278 0 30.135-18.752 45.202-42.949 45.202-72.589 0-44.46.904-88.013-35.257-99.809C258.003 6.336 208.027-.939 157.692 47.25 107.358 95.436 77.198 62.593 49.173 98.887c-28.024 36.294-7.232 94.365-7.232 91.643z"/>
        <g transform="translate(7.397 7.427)">
            <path fill="#1C2C47" fill-rule="nonzero" d="M226.813 15.588H282.318V88.63799999999999H226.813z"/>
            <path fill="#294269" fill-rule="nonzero" d="M231.055 54.781H242.05100000000002V77.466H231.055z"/>
            <path fill="#294269" fill-rule="nonzero" d="M240.663 62.273H257V84.958H240.663zM259.671 56.043H277.239V89.217H259.671z"/>
            <path fill="#335182" fill-rule="nonzero" d="M251.476 56.043H270.405V90.005H251.476z"/>
            <g fill="#6785B5" fill-rule="nonzero">
                <path d="M.183.21H2.67V5.546H.183zM5.891.21H8.378V5.546H5.891zM11.599.21H14.086V5.546H11.599z" transform="translate(253.702 58.882)"/>
            </g>
            <g fill="#6785B5" fill-rule="nonzero">
                <path d="M.183.131H2.67V5.4670000000000005H.183zM5.891.131H8.378V5.4670000000000005H5.891zM11.599.131H14.086V5.4670000000000005H11.599z" transform="translate(253.702 67.556)"/>
            </g>
            <g fill="#6785B5" fill-rule="nonzero">
                <path d="M.183.053H2.67V5.389H.183zM5.891.053H8.378V5.389H5.891zM11.599.053H14.086V5.389H11.599z" transform="translate(253.702 76.23)"/>
            </g>
            <path fill="#859E3E" fill-rule="nonzero" d="M36.052 124.282c0-.499-5.236-17.874-2.513-18.82 2.697-.947 5.027 14.325 5.027 14.273 0-.053-7.2-23.842-2.906-25.077 4.32-1.236 5.55 22.238 5.55 22.238s-3.56-26.76 0-27.075c3.56-.316 3.011 24.157 3.011 24.157s.89-17.454 3.194-17.296c2.304.157-2.487 22.764-2.487 22.764s2.67-14.458 4.45-13.985c1.781.473-4.633 20.872-4.633 20.872l-8.693-2.05z"/>
            <path fill="#BAA7A7" fill-rule="nonzero" d="M48.463 137.61L33.565 137.61 32.02 121.759 49.981 121.759z"/>
            <path fill="#9C8C8C" fill-rule="nonzero" d="M48.463 137.61H33.565c8.09-2.235 13.772-7.255 16.442-15.851l-1.544 15.85z"/>
            <path fill="#1E306E" fill-rule="nonzero" d="M189.975 138.661H69.277v-28.6c0-9.384 7.567-16.98 16.914-16.98h86.845c9.347 0 16.913 7.596 16.913 16.98l.026 28.6z"/>
            <path fill="#486699" fill-rule="nonzero" d="M112.739 120.576H140.282V128.593H112.739z"/>
            <path fill="#FE9879" fill-rule="nonzero" d="M94.412 130.144l18.798.868c1.754.079 3.273-1.315 3.378-3.076.104-1.787-.629-4.731-3.22-4.994l-18.564.736c-1.754-.079-3.272 1.314-3.377 3.075-.105 1.788 1.23 3.312 2.985 3.391z"/>
            <path fill="#A5ACC6" fill-rule="nonzero" d="M147.09 125.676h-32.257c-4.372 0-8.22 1.288-11.99-2.024l-11.416-12.013c-3.98-3.943-2.487-9.227 1.885-9.227h31.313c4.373 0 9.086 3.943 13.091 7.886l14.139 11.224c3.953 3.97-.393 4.154-4.766 4.154z"/>
            <path fill="#DCE1E6" fill-rule="nonzero" d="M154.185 121.102l-31.994 4.574c-4.373 0-7.488-.21-11.468-4.154l-12.096-11.96c-3.98-3.943-3.666-7.15.707-7.15h32.622c4.373 0 9.085 3.943 13.091 7.886l14.138 11.224c3.98 3.97-.602-.42-5-.42z"/>
            <path fill="#805236" fill-rule="nonzero" d="M120.2 94.053s9.819-.079 12.385 3.706c2.566 3.786 13.745-3.285 19.165 5.705s1.57 9.252 1.57 9.252l-17.28-.867-8.901-3.154-6.938-14.642z"/>
            <path fill="#8DA0BF" fill-rule="nonzero" d="M221.263 11.75v79.096h61.37V11.75h-61.37zm56.002 73.707H226.84V15.562h50.426v69.895z"/>
            <path fill="#BAC8DE" fill-rule="nonzero" d="M226.839 15.588H231.133V45.055H226.839z"/>
            <path fill="#BAC8DE" fill-rule="nonzero" d="M226.839 40.928H231.133V85.431H226.839z"/>
            <g fill-rule="nonzero">
                <path fill="#1E306E" d="M7.933 3.47H21.939999999999998V181.929H7.933zM106.796 4.074l1.152 177.513h-11.18V95.84s-27.36-24.577-27.36-91.45l37.388-.316z" transform="translate(199.244)"/>
                <path fill="#18284C" d="M106.324 99.284H95.46c-1.31 0-2.383-1.078-2.383-2.392v-.29c0-1.314 1.074-2.391 2.383-2.391h10.865c1.31 0 2.383 1.077 2.383 2.392v.289c.026 1.314-1.047 2.392-2.383 2.392zM8.64 99.284h12.044c1.309 0 2.382-1.078 2.382-2.392v-.29c0-1.314-1.073-2.391-2.382-2.391H8.64c-1.31 0-2.383 1.077-2.383 2.392v.289c0 1.314 1.074 2.392 2.383 2.392zM107.948 4.837H2.749c-.733 0-1.361-.605-1.361-1.367v-.158c0-.736.602-1.367 1.361-1.367h105.199c.733 0 1.361.605 1.361 1.367v.158c-.026.762-.628 1.367-1.361 1.367z" transform="translate(199.244)"/>
                <path fill="#18284C" d="M110.252 7.176V1.288c0-.789-.707-1.314-1.336-1.025-1.413.63-2.408 2.182-2.408 3.97 0 1.813.995 3.338 2.408 3.968.655.29 1.336-.236 1.336-1.025zM.157 1.288v5.888c0 .789.707 1.315 1.335 1.025 1.414-.63 2.41-2.181 2.41-3.969 0-1.787-.996-3.338-2.41-3.97C.864-.025.157.5.157 1.289z" transform="translate(199.244)"/>
            </g>
            <path fill="#FFF" fill-rule="nonzero" d="M133.265 88.717L134.287 85.142 132.506 85.746 132.035 84.327 136.067 82.96 136.407 83.933 135.386 87.508 137.455 86.798 137.926 88.217 133.606 89.689zM140.439 84.327L143.084 80.069 140.57 80.174 140.465 78.15 146.199 77.887 146.252 79.28 143.607 83.538 146.54 83.407 146.644 85.431 140.492 85.72zM150.833 81.304L155.153 76.546 151.959 76.126 152.3 73.55 159.578 74.522 159.343 76.283 155.023 81.041 158.767 81.541 158.426 84.117 150.598 83.065z"/>
            <path fill="#12223D" fill-rule="nonzero" d="M325.361 181.534h-9.844v-32.7c0-1.63 1.31-2.944 2.932-2.944h3.98c1.623 0 2.932 1.314 2.932 2.944v32.7zM189.975 181.534h-9.844V85.878c0-2.734 2.2-4.942 4.922-4.942 2.723 0 4.922 2.208 4.922 4.942v95.656z"/>
            <path fill="#68432E" fill-rule="nonzero" d="M69.303 143.34H249.539V157.955H69.303z"/>
            <path fill="#1F3356" fill-rule="nonzero" d="M79.148 180.93h-9.845V85.878c0-2.708 2.2-4.916 4.896-4.916h.026c2.697 0 4.896 2.208 4.896 4.916v95.052h.027z"/>
            <path fill="#C5CBD1" fill-rule="nonzero" d="M184.294 133.509h-26.732c-3.587 0-7.985-3.549-9.792-7.965l-5.524-13.327c-1.807-4.39-.393-7.965 3.194-7.965h26.732c3.587 0 7.985 3.549 9.792 7.965l5.524 13.327c1.833 4.416.393 7.965-3.194 7.965z"/>
            <path fill="#A5ACC6" fill-rule="nonzero" d="M326.985 143.472h-82.159v-14.879h69.958c6.755 0 12.2 5.494 12.2 12.25v2.629z"/>
            <path fill="#486699" fill-rule="nonzero" d="M176.78 137.662c-.21.763-1.074 1.183-1.938.92l-38.278-12.039 13.091-24.052 23.145 10.777 3.98 24.394z"/>
            <path fill="#486699" fill-rule="nonzero" d="M144.838 119.34c1.492-2.838 1.492-7.412 1.073-11.54-.419-4.126-5.288-6.045-8.404-3.338l-2.88 2.498c-2.226.657-.707 1.682-.76 2.05-.261.237-.47 1.603-.968 2.629-.576 3.364-8.038 8.937-6.1 11.33.026-.053 15.002 2.207 18.039-3.628z"/>
            <path fill="#A5ACC6" fill-rule="nonzero" d="M79.148 128.567H249.539V143.445H79.148z"/>
            <path fill="#FE9879" fill-rule="nonzero" d="M123.526 128.646l4.739-1.603c1.597-.447 1.466-1.578 1.073-3.207-.419-1.63-1.885-2.235-3.482-1.788l-3.823.657c-1.597.447-2.565 2.156-2.146 3.786.392 1.63 2.042 2.602 3.639 2.155z"/>
            <path fill="#FE9879" fill-rule="nonzero" d="M128.527 126.911l19.714 2.786c1.755.158 3.326-1.182 3.483-2.944.183-1.76-.445-4.757-3.011-5.125l-20.972.42c-1.754-.158-.942.762-1.1 2.55-.183 1.761.158 2.155 1.886 2.313z"/>
            <path fill="#FE9879" fill-rule="nonzero" d="M153.452 127.752l.47-17.323c-.051-1.524-1.544-2.55-3.298-2.313-1.754.237-4.608 1.393-4.66 3.654l-1.99 15.956c.052 1.525 5.655 2.366 7.435 2.13 1.755-.237 2.095-.58 2.043-2.104z"/>
            <path fill="#486699" fill-rule="nonzero" d="M141.539 114.294s-7.043-8.176-2.068-11.146c4.974-2.97 15.028-2.891 15.133 9.384.104 12.302-.681 15.036-.681 15.036-3.378-3.26-6.912-5.441-10.682-5.967l-1.702-7.307z"/>
            <path fill="#FE9879" fill-rule="nonzero" d="M88.992 130.46l4.372-2.445c1.493-.736 1.152-1.84.445-3.365-.706-1.524-2.251-1.84-3.744-1.104l-3.639 1.367c-1.492.736-2.12 2.603-1.414 4.127.681 1.525 2.488 2.156 3.98 1.42z"/>
            <path fill="#DCE1E6" fill-rule="nonzero" d="M154.656 128.751s-.576-19.662 15.421-20.661c15.997-.999 27.779 0 27.779 0s24.873 2.839 51.683 4.626c30.816 2.077 64.172 3.865 65.245 15.877h-43.226l-116.902.158z"/>
            <path fill="#FE9879" fill-rule="nonzero" d="M129.652 114.872c2.435-3.207 3.064-8.832-.078-11.33l-6.703-5.336c-3.142-2.497-7.697-1.919-10.158 1.315-2.435 3.207-1.885 7.886 1.256 10.409l6.703 5.336c3.116 2.497 7.619 1.499 8.98-.394z"/>
            <path fill="#FE9879" fill-rule="nonzero" d="M135.072 114.189l-9.216-4.574c-1.283-.579-1.78-2.314-1.126-3.89l.21-.5c.654-1.577 2.225-2.392 3.508-1.84l7.33 2.812c1.284.526 2.802 8.018-.706 7.992z"/>
            <path fill="#40291B" fill-rule="nonzero" d="M121.248 107.301c.393-.552.838-1.025 1.361-1.445.21-.184.236-.5.053-.71-.157-.184-.42-.21-.629-.053-.628.473-1.178 1.025-1.57 1.683-.131.21-.079.473.104.63.21.158.524.106.681-.105zM117.975 111.507c.184-.394.42-.71.707-.999.131-.131.053-.368-.13-.5-.158-.13-.393-.157-.498-.052-.393.316-.655.71-.838 1.157-.052.131.052.342.236.447.21.105.445.105.523-.053z"/>
            <path stroke="#40291B" stroke-linecap="round" stroke-linejoin="round" stroke-width="1.045" d="M122.557 108.72s1.885-.21 1.545-2.207M119.127 113.006s1.571.262 1.205-1.735"/>
            <path fill="#805236" fill-rule="nonzero" d="M112.66 108.59s-7.802-10.725 5.55-14.327c6.52-1.76 9.374 7.729 9.374 7.729-3.692-2.945-5.21-2.787-7.488-2.287.026 0-8.51 1.919-7.436 8.884z"/>
            <path stroke="#D47153" stroke-linecap="round" stroke-linejoin="round" stroke-width="2.09" d="M123.814 113.742s3.037.078 1.911-3.207"/>
            <path fill="#805236" fill-rule="nonzero" d="M111.168 105.777s-.602 4.39-.76 8.411c-.156 4.022 6.991 3.89 7.305 6.914 0 0 3.142-2.313.524-4.285-2.618-1.998-6.257-5.1-5.786-6.834.445-1.735 1.361-6.782 1.361-6.782l-2.644 2.576zM113.786 103.174s10.709 2.97 14.138-.92l3.404-3.89s-5.577.762-8.483-.158c-2.906-.92-5.498 1.656-5.498 1.656l-3.56 3.312z"/>
            <path fill="#FE9879" fill-rule="nonzero" d="M131.852 101.545c.995 1.445.968 3.049 0 3.548-.995.526-2.592-.236-3.587-1.682-.995-1.446-.969-3.05 0-3.549.995-.5 2.592.237 3.587 1.683z"/>
            <path fill="#D47153" fill-rule="nonzero" d="M131.668 112.48s.315-.368.105-2.629c0 0 1.283 1.393 1.807 3.575l-1.912-.946z"/>
            <path fill="#DEE5EC" fill-rule="nonzero" d="M118.499 114.057s3.194.158 4.556 2.234c1.361 2.077 1.361 2.261 1.361 2.261l-4.032-.683-1.885-3.812z"/>
            <path fill="#D47153" fill-rule="nonzero" d="M129.443 103.043s-.576-.999.21-1.288c.785-.29 1.518 1.367 1.178 2.26l-1.388-.972z"/>
            <path fill="#DEE5EC" fill-rule="nonzero" d="M153.504 124.913c-2.252-2.155-4.896-3.811-8.09-4.705l.523-1.288c3.064.92 5.76 2.497 8.09 4.705l-.523 1.288z"/>
            <path fill="#5D85C7" fill-rule="nonzero" d="M132.454 112.795l-2.383 3.418s2.566 1.971 6.022 1.209l-1.021-3.234s-1.283-.446-2.618-1.393zM135.072 114.188l4.45-.131s3.352-6.177-1.832-10.015l-2.487 1.919c0-.027 1.361 4.836-.131 8.227z"/>
            <path stroke="#12223D" stroke-linecap="round" stroke-linejoin="round" stroke-width="2.09" d="M145.833 113.006L144.969 117.606"/>
            <path fill="#805236" fill-rule="nonzero" d="M151.148 103.174s4.398 1.472 3.456 5.915c-.943 4.442-1.336 5.73.785 7.202 0 0 3.718-5.572 1.911-8.806-1.806-3.233-7.592-6.519-7.592-6.519l1.44 2.208z"/>
            <path fill="#A5ACC6" fill-rule="nonzero" d="M154.656 128.751l99.805-.131c0-4.18-3.325-7.57-7.488-7.676l-90.72-1.866c-1.728 4.942-1.597 9.673-1.597 9.673z"/>
            <path fill="#DEE5EC" fill-rule="nonzero" d="M156.672 117.606c.445-.605 1.073-9.99 8.195-11.356 7.121-1.367 13.457 1.84 13.457 1.84l-6.755 5.967-14.897 3.549z"/>
            <path fill="#805236" fill-rule="nonzero" d="M47.127 138.057H86.714V180.92999999999998H47.127z"/>
            <path fill="#17253B" fill-rule="nonzero" d="M22.595 138.057H47.101V180.92999999999998H22.595z"/>
            <path fill="#49576E" fill-rule="nonzero" d="M1.073 182.928h343.454c.55 0 .994-.447.994-1 0-.551-.445-.998-.994-.998H1.073c-.55 0-.994.447-.994.999s.445.999.994.999z"/>
            <g fill-rule="nonzero">
                <path fill="#17253B" d="M27.255 11.54H3.09c-1.623 0-2.932-1.315-2.932-2.944V3.18C.157 1.55 1.467.237 3.09.237h24.166c1.624 0 2.933 1.314 2.933 2.944v5.415c0 1.63-1.31 2.944-2.933 2.944z" transform="translate(40.32 126.7)"/>
                <path fill="#5D6E94" d="M30.79 11.54H10.525c-1.492 0-2.697-1.21-2.697-2.708V2.97c0-1.498 1.205-2.707 2.697-2.707H30.79c1.492 0 2.697 1.209 2.697 2.707v5.862c.026 1.499-1.205 2.708-2.697 2.708z" transform="translate(40.32 126.7)"/>
                <path fill="#2A3E6B" d="M28.59 9.857H12.778c-1.283 0-2.33-1.051-2.33-2.34V4.81c0-1.288 1.047-2.34 2.33-2.34H28.59c1.282 0 2.33 1.052 2.33 2.34v2.708c-.026 1.288-1.048 2.34-2.33 2.34z" transform="translate(40.32 126.7)"/>
                <g fill="#DEE5EC">
                    <path d="M.183 2.024C.183.762.681.08 1.466.08c.786 0 1.283.657 1.283 1.945 0 1.262-.497 1.972-1.283 1.972-.785 0-1.283-.684-1.283-1.972zm1.885 0C2.068.946 1.807.631 1.44.631S.812.973.812 2.024c0 1.078.261 1.446.628 1.446s.628-.368.628-1.446zM3.194 2.024C3.194.762 3.692.08 4.477.08c.786 0 1.283.657 1.283 1.945 0 1.262-.497 1.972-1.283 1.972-.785 0-1.283-.684-1.283-1.972zm1.911 0c0-1.078-.261-1.393-.628-1.393-.366 0-.628.342-.628 1.393 0 1.078.262 1.446.628 1.446.367 0 .628-.368.628-1.446zM6.362 1.525c0-.263.206-.474.5-.474.265 0 .5.184.5.474 0 .262-.206.473-.5.473-.265-.027-.5-.21-.5-.473zm0 2.024c0-.263.206-.473.5-.473.265 0 .5.184.5.473 0 .263-.206.473-.5.473-.265-.026-.5-.21-.5-.473zM7.855 2.024C7.855.762 8.352.08 9.137.08c.786 0 1.283.657 1.283 1.945 0 1.262-.497 1.972-1.283 1.972-.785 0-1.282-.684-1.282-1.972zm1.91 0c0-1.078-.261-1.393-.628-1.393-.366 0-.628.342-.628 1.393 0 1.078.262 1.446.628 1.446.367 0 .629-.368.629-1.446zM10.892 2.024c0-1.262.497-1.945 1.283-1.945.785 0 1.282.657 1.282 1.945 0 1.262-.497 1.972-1.282 1.972-.786 0-1.283-.684-1.283-1.972zm1.885 0c0-1.078-.262-1.393-.629-1.393-.366 0-.628.342-.628 1.393 0 1.078.262 1.446.628 1.446.367 0 .629-.368.629-1.446z" transform="translate(40.32 126.7) translate(14.662 4.206)"/>
                </g>
            </g>
            <path fill="#6E462E" fill-rule="nonzero" d="M259.383 181.534h-9.844v-32.7c0-1.63 1.309-2.944 2.932-2.944h3.98c1.623 0 2.932 1.314 2.932 2.944v32.7z"/>
            <path fill="#12223D" fill-rule="nonzero" d="M47.206 152.12H86.714V153.25H47.206zM47.206 166.551H86.714V167.68099999999998H47.206z"/>
            <ellipse cx="68.492" cy="145.18" fill="#12223D" fill-rule="nonzero" rx="1.571" ry="1.577"/>
            <ellipse cx="68.492" cy="159.901" fill="#12223D" fill-rule="nonzero" rx="1.571" ry="1.577"/>
            <ellipse cx="68.492" cy="174.595" fill="#12223D" fill-rule="nonzero" rx="1.571" ry="1.577"/>
            <path fill="#DEE5EC" fill-rule="nonzero" d="M242.287 30.15c-2.33-.525-3.954-2.707-3.823-5.099.052-.736.236-1.446.576-2.05.105-.21-.13-.42-.34-.316-1.362.815-2.304 2.26-2.383 4.022-.13 2.366 1.492 4.521 3.796 5.073 1.702.395 3.352-.105 4.504-1.183.183-.157.026-.446-.21-.394-.68.105-1.387.105-2.12-.052z"/>
            <path fill="#486699" fill-rule="nonzero" d="M231.133 60.695s13.562-2.444 10.84 14.3c0 0 11.886-2.05 13.771 10.436h-24.61V60.695z"/>
            <path fill="#DEE5EC" fill-rule="nonzero" d="M263.39 24.157c0 .368-.289.657-.655.657-.367 0-.655-.289-.655-.657 0-.368.288-.657.655-.657.366 0 .654.29.654.657zM270.406 40.297c0 .368-.288.657-.655.657-.366 0-.654-.289-.654-.657 0-.368.288-.657.654-.657.367 0 .655.29.655.657zM236.553 43.425c0 .368-.288.657-.655.657-.366 0-.654-.289-.654-.657 0-.368.288-.657.654-.657.367 0 .655.316.655.657zM252 34.646c0 .368-.288.657-.655.657-.366 0-.654-.29-.654-.657 0-.368.288-.658.654-.658.367 0 .655.29.655.658zM248.23 54.939c0 .368-.288.657-.655.657-.366 0-.654-.29-.654-.657 0-.368.288-.657.654-.657.367 0 .655.315.655.657z"/>
            <path stroke="#12223D" stroke-linecap="round" stroke-linejoin="round" stroke-width="1.818" d="M37.361 107.722L40.32 111.718M39.456 101.86L41.236 121.26M44.483 110.114L41.236 116.659"/>
            <path stroke="#DEE5EC" stroke-linecap="round" stroke-linejoin="round" stroke-width="2.814" d="M136.329 112.795L139.471 112.795M134.287 114.583L134.758 117.054"/>
            <path fill="#805236" fill-rule="nonzero" d="M245.193 143.34H326.985V157.955H245.193z"/>
            <path fill="#BAC8DE" fill-rule="nonzero" d="M220.213 48.402L290.056 48.402 290.056 52.617 220.213 52.617z" transform="rotate(90 255.134 50.51)"/>
            <path fill="#8DA0BF" fill-rule="nonzero" d="M213.665 47.932L290.237 47.932 290.237 52.148 213.665 52.148z" transform="rotate(90 251.95 50.04)"/>
        </g>
    </g>
</svg>
